<?xml version="1.0" encoding="utf-8" standalone="no"?>
<!DOCTYPE svg PUBLIC "-//W3C//DTD SVG 1.1//EN"
  "http://www.w3.org/Graphics/SVG/1.1/DTD/svg11.dtd">
<!-- Created with matplotlib (https://matplotlib.org/) -->
<svg height="345.6pt" version="1.1" viewBox="0 0 460.8 345.6" width="460.8pt" xmlns="http://www.w3.org/2000/svg" xmlns:xlink="http://www.w3.org/1999/xlink">
 <defs>
  <style type="text/css">
*{stroke-linecap:butt;stroke-linejoin:round;}
  </style>
 </defs>
 <g id="figure_1">
  <g id="patch_1">
   <path d="M 0 345.6 
L 460.8 345.6 
L 460.8 0 
L 0 0 
z
" style="fill:#ffffff;"/>
  </g>
  <g id="axes_1">
   <g id="patch_2">
    <path d="M 57.6 307.584 
L 414.72 307.584 
L 414.72 41.472 
L 57.6 41.472 
z
" style="fill:#eeeeee;"/>
   </g>
   <g id="matplotlib.axis_1">
    <g id="xtick_1">
     <g id="line2d_1">
      <path clip-path="url(#p8aaa2d7906)" d="M 73.832727 307.584 
L 73.832727 41.472 
" style="fill:none;stroke:#b2b2b2;stroke-dasharray:1.85,0.8;stroke-dashoffset:0;stroke-width:0.5;"/>
     </g>
     <g id="line2d_2">
      <defs>
       <path d="M 0 0 
L 0 -3.5 
" id="mf30babd0f6" style="stroke:#000000;stroke-width:0.8;"/>
      </defs>
      <g>
       <use style="stroke:#000000;stroke-width:0.8;" x="73.832727" xlink:href="#mf30babd0f6" y="307.584"/>
      </g>
     </g>
     <g id="text_1">
      <!-- 0 -->
      <defs>
       <path d="M 31.78125 66.40625 
Q 24.171875 66.40625 20.328125 58.90625 
Q 16.5 51.421875 16.5 36.375 
Q 16.5 21.390625 20.328125 13.890625 
Q 24.171875 6.390625 31.78125 6.390625 
Q 39.453125 6.390625 43.28125 13.890625 
Q 47.125 21.390625 47.125 36.375 
Q 47.125 51.421875 43.28125 58.90625 
Q 39.453125 66.40625 31.78125 66.40625 
z
M 31.78125 74.21875 
Q 44.046875 74.21875 50.515625 64.515625 
Q 56.984375 54.828125 56.984375 36.375 
Q 56.984375 17.96875 50.515625 8.265625 
Q 44.046875 -1.421875 31.78125 -1.421875 
Q 19.53125 -1.421875 13.0625 8.265625 
Q 6.59375 17.96875 6.59375 36.375 
Q 6.59375 54.828125 13.0625 64.515625 
Q 19.53125 74.21875 31.78125 74.21875 
z
" id="DejaVuSans-48"/>
      </defs>
      <g transform="translate(70.651477 318.682437)scale(0.1 -0.1)">
       <use xlink:href="#DejaVuSans-48"/>
      </g>
     </g>
    </g>
    <g id="xtick_2">
     <g id="line2d_3">
      <path clip-path="url(#p8aaa2d7906)" d="M 126.880856 307.584 
L 126.880856 41.472 
" style="fill:none;stroke:#b2b2b2;stroke-dasharray:1.85,0.8;stroke-dashoffset:0;stroke-width:0.5;"/>
     </g>
     <g id="line2d_4">
      <g>
       <use style="stroke:#000000;stroke-width:0.8;" x="126.880856" xlink:href="#mf30babd0f6" y="307.584"/>
      </g>
     </g>
     <g id="text_2">
      <!-- 200 -->
      <defs>
       <path d="M 19.1875 8.296875 
L 53.609375 8.296875 
L 53.609375 0 
L 7.328125 0 
L 7.328125 8.296875 
Q 12.9375 14.109375 22.625 23.890625 
Q 32.328125 33.6875 34.8125 36.53125 
Q 39.546875 41.84375 41.421875 45.53125 
Q 43.3125 49.21875 43.3125 52.78125 
Q 43.3125 58.59375 39.234375 62.25 
Q 35.15625 65.921875 28.609375 65.921875 
Q 23.96875 65.921875 18.8125 64.3125 
Q 13.671875 62.703125 7.8125 59.421875 
L 7.8125 69.390625 
Q 13.765625 71.78125 18.9375 73 
Q 24.125 74.21875 28.421875 74.21875 
Q 39.75 74.21875 46.484375 68.546875 
Q 53.21875 62.890625 53.21875 53.421875 
Q 53.21875 48.921875 51.53125 44.890625 
Q 49.859375 40.875 45.40625 35.40625 
Q 44.1875 33.984375 37.640625 27.21875 
Q 31.109375 20.453125 19.1875 8.296875 
z
" id="DejaVuSans-50"/>
      </defs>
      <g transform="translate(117.337106 318.682437)scale(0.1 -0.1)">
       <use xlink:href="#DejaVuSans-50"/>
       <use x="63.623047" xlink:href="#DejaVuSans-48"/>
       <use x="127.246094" xlink:href="#DejaVuSans-48"/>
      </g>
     </g>
    </g>
    <g id="xtick_3">
     <g id="line2d_5">
      <path clip-path="url(#p8aaa2d7906)" d="M 179.928984 307.584 
L 179.928984 41.472 
" style="fill:none;stroke:#b2b2b2;stroke-dasharray:1.85,0.8;stroke-dashoffset:0;stroke-width:0.5;"/>
     </g>
     <g id="line2d_6">
      <g>
       <use style="stroke:#000000;stroke-width:0.8;" x="179.928984" xlink:href="#mf30babd0f6" y="307.584"/>
      </g>
     </g>
     <g id="text_3">
      <!-- 400 -->
      <defs>
       <path d="M 37.796875 64.3125 
L 12.890625 25.390625 
L 37.796875 25.390625 
z
M 35.203125 72.90625 
L 47.609375 72.90625 
L 47.609375 25.390625 
L 58.015625 25.390625 
L 58.015625 17.1875 
L 47.609375 17.1875 
L 47.609375 0 
L 37.796875 0 
L 37.796875 17.1875 
L 4.890625 17.1875 
L 4.890625 26.703125 
z
" id="DejaVuSans-52"/>
      </defs>
      <g transform="translate(170.385234 318.682437)scale(0.1 -0.1)">
       <use xlink:href="#DejaVuSans-52"/>
       <use x="63.623047" xlink:href="#DejaVuSans-48"/>
       <use x="127.246094" xlink:href="#DejaVuSans-48"/>
      </g>
     </g>
    </g>
    <g id="xtick_4">
     <g id="line2d_7">
      <path clip-path="url(#p8aaa2d7906)" d="M 232.977112 307.584 
L 232.977112 41.472 
" style="fill:none;stroke:#b2b2b2;stroke-dasharray:1.85,0.8;stroke-dashoffset:0;stroke-width:0.5;"/>
     </g>
     <g id="line2d_8">
      <g>
       <use style="stroke:#000000;stroke-width:0.8;" x="232.977112" xlink:href="#mf30babd0f6" y="307.584"/>
      </g>
     </g>
     <g id="text_4">
      <!-- 600 -->
      <defs>
       <path d="M 33.015625 40.375 
Q 26.375 40.375 22.484375 35.828125 
Q 18.609375 31.296875 18.609375 23.390625 
Q 18.609375 15.53125 22.484375 10.953125 
Q 26.375 6.390625 33.015625 6.390625 
Q 39.65625 6.390625 43.53125 10.953125 
Q 47.40625 15.53125 47.40625 23.390625 
Q 47.40625 31.296875 43.53125 35.828125 
Q 39.65625 40.375 33.015625 40.375 
z
M 52.59375 71.296875 
L 52.59375 62.3125 
Q 48.875 64.0625 45.09375 64.984375 
Q 41.3125 65.921875 37.59375 65.921875 
Q 27.828125 65.921875 22.671875 59.328125 
Q 17.53125 52.734375 16.796875 39.40625 
Q 19.671875 43.65625 24.015625 45.921875 
Q 28.375 48.1875 33.59375 48.1875 
Q 44.578125 48.1875 50.953125 41.515625 
Q 57.328125 34.859375 57.328125 23.390625 
Q 57.328125 12.15625 50.6875 5.359375 
Q 44.046875 -1.421875 33.015625 -1.421875 
Q 20.359375 -1.421875 13.671875 8.265625 
Q 6.984375 17.96875 6.984375 36.375 
Q 6.984375 53.65625 15.1875 63.9375 
Q 23.390625 74.21875 37.203125 74.21875 
Q 40.921875 74.21875 44.703125 73.484375 
Q 48.484375 72.75 52.59375 71.296875 
z
" id="DejaVuSans-54"/>
      </defs>
      <g transform="translate(223.433362 318.682437)scale(0.1 -0.1)">
       <use xlink:href="#DejaVuSans-54"/>
       <use x="63.623047" xlink:href="#DejaVuSans-48"/>
       <use x="127.246094" xlink:href="#DejaVuSans-48"/>
      </g>
     </g>
    </g>
    <g id="xtick_5">
     <g id="line2d_9">
      <path clip-path="url(#p8aaa2d7906)" d="M 286.025241 307.584 
L 286.025241 41.472 
" style="fill:none;stroke:#b2b2b2;stroke-dasharray:1.85,0.8;stroke-dashoffset:0;stroke-width:0.5;"/>
     </g>
     <g id="line2d_10">
      <g>
       <use style="stroke:#000000;stroke-width:0.8;" x="286.025241" xlink:href="#mf30babd0f6" y="307.584"/>
      </g>
     </g>
     <g id="text_5">
      <!-- 800 -->
      <defs>
       <path d="M 31.78125 34.625 
Q 24.75 34.625 20.71875 30.859375 
Q 16.703125 27.09375 16.703125 20.515625 
Q 16.703125 13.921875 20.71875 10.15625 
Q 24.75 6.390625 31.78125 6.390625 
Q 38.8125 6.390625 42.859375 10.171875 
Q 46.921875 13.96875 46.921875 20.515625 
Q 46.921875 27.09375 42.890625 30.859375 
Q 38.875 34.625 31.78125 34.625 
z
M 21.921875 38.8125 
Q 15.578125 40.375 12.03125 44.71875 
Q 8.5 49.078125 8.5 55.328125 
Q 8.5 64.0625 14.71875 69.140625 
Q 20.953125 74.21875 31.78125 74.21875 
Q 42.671875 74.21875 48.875 69.140625 
Q 55.078125 64.0625 55.078125 55.328125 
Q 55.078125 49.078125 51.53125 44.71875 
Q 48 40.375 41.703125 38.8125 
Q 48.828125 37.15625 52.796875 32.3125 
Q 56.78125 27.484375 56.78125 20.515625 
Q 56.78125 9.90625 50.3125 4.234375 
Q 43.84375 -1.421875 31.78125 -1.421875 
Q 19.734375 -1.421875 13.25 4.234375 
Q 6.78125 9.90625 6.78125 20.515625 
Q 6.78125 27.484375 10.78125 32.3125 
Q 14.796875 37.15625 21.921875 38.8125 
z
M 18.3125 54.390625 
Q 18.3125 48.734375 21.84375 45.5625 
Q 25.390625 42.390625 31.78125 42.390625 
Q 38.140625 42.390625 41.71875 45.5625 
Q 45.3125 48.734375 45.3125 54.390625 
Q 45.3125 60.0625 41.71875 63.234375 
Q 38.140625 66.40625 31.78125 66.40625 
Q 25.390625 66.40625 21.84375 63.234375 
Q 18.3125 60.0625 18.3125 54.390625 
z
" id="DejaVuSans-56"/>
      </defs>
      <g transform="translate(276.481491 318.682437)scale(0.1 -0.1)">
       <use xlink:href="#DejaVuSans-56"/>
       <use x="63.623047" xlink:href="#DejaVuSans-48"/>
       <use x="127.246094" xlink:href="#DejaVuSans-48"/>
      </g>
     </g>
    </g>
    <g id="xtick_6">
     <g id="line2d_11">
      <path clip-path="url(#p8aaa2d7906)" d="M 339.073369 307.584 
L 339.073369 41.472 
" style="fill:none;stroke:#b2b2b2;stroke-dasharray:1.85,0.8;stroke-dashoffset:0;stroke-width:0.5;"/>
     </g>
     <g id="line2d_12">
      <g>
       <use style="stroke:#000000;stroke-width:0.8;" x="339.073369" xlink:href="#mf30babd0f6" y="307.584"/>
      </g>
     </g>
     <g id="text_6">
      <!-- 1000 -->
      <defs>
       <path d="M 12.40625 8.296875 
L 28.515625 8.296875 
L 28.515625 63.921875 
L 10.984375 60.40625 
L 10.984375 69.390625 
L 28.421875 72.90625 
L 38.28125 72.90625 
L 38.28125 8.296875 
L 54.390625 8.296875 
L 54.390625 0 
L 12.40625 0 
z
" id="DejaVuSans-49"/>
      </defs>
      <g transform="translate(326.348369 318.682437)scale(0.1 -0.1)">
       <use xlink:href="#DejaVuSans-49"/>
       <use x="63.623047" xlink:href="#DejaVuSans-48"/>
       <use x="127.246094" xlink:href="#DejaVuSans-48"/>
       <use x="190.869141" xlink:href="#DejaVuSans-48"/>
      </g>
     </g>
    </g>
    <g id="xtick_7">
     <g id="line2d_13">
      <path clip-path="url(#p8aaa2d7906)" d="M 392.121497 307.584 
L 392.121497 41.472 
" style="fill:none;stroke:#b2b2b2;stroke-dasharray:1.85,0.8;stroke-dashoffset:0;stroke-width:0.5;"/>
     </g>
     <g id="line2d_14">
      <g>
       <use style="stroke:#000000;stroke-width:0.8;" x="392.121497" xlink:href="#mf30babd0f6" y="307.584"/>
      </g>
     </g>
     <g id="text_7">
      <!-- 1200 -->
      <g transform="translate(379.396497 318.682437)scale(0.1 -0.1)">
       <use xlink:href="#DejaVuSans-49"/>
       <use x="63.623047" xlink:href="#DejaVuSans-50"/>
       <use x="127.246094" xlink:href="#DejaVuSans-48"/>
       <use x="190.869141" xlink:href="#DejaVuSans-48"/>
      </g>
     </g>
    </g>
    <g id="text_8">
     <!-- epoch -->
     <defs>
      <path d="M 56.203125 29.59375 
L 56.203125 25.203125 
L 14.890625 25.203125 
Q 15.484375 15.921875 20.484375 11.0625 
Q 25.484375 6.203125 34.421875 6.203125 
Q 39.59375 6.203125 44.453125 7.46875 
Q 49.3125 8.734375 54.109375 11.28125 
L 54.109375 2.78125 
Q 49.265625 0.734375 44.1875 -0.34375 
Q 39.109375 -1.421875 33.890625 -1.421875 
Q 20.796875 -1.421875 13.15625 6.1875 
Q 5.515625 13.8125 5.515625 26.8125 
Q 5.515625 40.234375 12.765625 48.109375 
Q 20.015625 56 32.328125 56 
Q 43.359375 56 49.78125 48.890625 
Q 56.203125 41.796875 56.203125 29.59375 
z
M 47.21875 32.234375 
Q 47.125 39.59375 43.09375 43.984375 
Q 39.0625 48.390625 32.421875 48.390625 
Q 24.90625 48.390625 20.390625 44.140625 
Q 15.875 39.890625 15.1875 32.171875 
z
" id="DejaVuSans-101"/>
      <path d="M 18.109375 8.203125 
L 18.109375 -20.796875 
L 9.078125 -20.796875 
L 9.078125 54.6875 
L 18.109375 54.6875 
L 18.109375 46.390625 
Q 20.953125 51.265625 25.265625 53.625 
Q 29.59375 56 35.59375 56 
Q 45.5625 56 51.78125 48.09375 
Q 58.015625 40.1875 58.015625 27.296875 
Q 58.015625 14.40625 51.78125 6.484375 
Q 45.5625 -1.421875 35.59375 -1.421875 
Q 29.59375 -1.421875 25.265625 0.953125 
Q 20.953125 3.328125 18.109375 8.203125 
z
M 48.6875 27.296875 
Q 48.6875 37.203125 44.609375 42.84375 
Q 40.53125 48.484375 33.40625 48.484375 
Q 26.265625 48.484375 22.1875 42.84375 
Q 18.109375 37.203125 18.109375 27.296875 
Q 18.109375 17.390625 22.1875 11.75 
Q 26.265625 6.109375 33.40625 6.109375 
Q 40.53125 6.109375 44.609375 11.75 
Q 48.6875 17.390625 48.6875 27.296875 
z
" id="DejaVuSans-112"/>
      <path d="M 30.609375 48.390625 
Q 23.390625 48.390625 19.1875 42.75 
Q 14.984375 37.109375 14.984375 27.296875 
Q 14.984375 17.484375 19.15625 11.84375 
Q 23.34375 6.203125 30.609375 6.203125 
Q 37.796875 6.203125 41.984375 11.859375 
Q 46.1875 17.53125 46.1875 27.296875 
Q 46.1875 37.015625 41.984375 42.703125 
Q 37.796875 48.390625 30.609375 48.390625 
z
M 30.609375 56 
Q 42.328125 56 49.015625 48.375 
Q 55.71875 40.765625 55.71875 27.296875 
Q 55.71875 13.875 49.015625 6.21875 
Q 42.328125 -1.421875 30.609375 -1.421875 
Q 18.84375 -1.421875 12.171875 6.21875 
Q 5.515625 13.875 5.515625 27.296875 
Q 5.515625 40.765625 12.171875 48.375 
Q 18.84375 56 30.609375 56 
z
" id="DejaVuSans-111"/>
      <path d="M 48.78125 52.59375 
L 48.78125 44.1875 
Q 44.96875 46.296875 41.140625 47.34375 
Q 37.3125 48.390625 33.40625 48.390625 
Q 24.65625 48.390625 19.8125 42.84375 
Q 14.984375 37.3125 14.984375 27.296875 
Q 14.984375 17.28125 19.8125 11.734375 
Q 24.65625 6.203125 33.40625 6.203125 
Q 37.3125 6.203125 41.140625 7.25 
Q 44.96875 8.296875 48.78125 10.40625 
L 48.78125 2.09375 
Q 45.015625 0.34375 40.984375 -0.53125 
Q 36.96875 -1.421875 32.421875 -1.421875 
Q 20.0625 -1.421875 12.78125 6.34375 
Q 5.515625 14.109375 5.515625 27.296875 
Q 5.515625 40.671875 12.859375 48.328125 
Q 20.21875 56 33.015625 56 
Q 37.15625 56 41.109375 55.140625 
Q 45.0625 54.296875 48.78125 52.59375 
z
" id="DejaVuSans-99"/>
      <path d="M 54.890625 33.015625 
L 54.890625 0 
L 45.90625 0 
L 45.90625 32.71875 
Q 45.90625 40.484375 42.875 44.328125 
Q 39.84375 48.1875 33.796875 48.1875 
Q 26.515625 48.1875 22.3125 43.546875 
Q 18.109375 38.921875 18.109375 30.90625 
L 18.109375 0 
L 9.078125 0 
L 9.078125 75.984375 
L 18.109375 75.984375 
L 18.109375 46.1875 
Q 21.34375 51.125 25.703125 53.5625 
Q 30.078125 56 35.796875 56 
Q 45.21875 56 50.046875 50.171875 
Q 54.890625 44.34375 54.890625 33.015625 
z
" id="DejaVuSans-104"/>
     </defs>
     <g transform="translate(217.88625 333.88025)scale(0.12 -0.12)">
      <use xlink:href="#DejaVuSans-101"/>
      <use x="61.523438" xlink:href="#DejaVuSans-112"/>
      <use x="125" xlink:href="#DejaVuSans-111"/>
      <use x="186.181641" xlink:href="#DejaVuSans-99"/>
      <use x="241.162109" xlink:href="#DejaVuSans-104"/>
     </g>
    </g>
   </g>
   <g id="matplotlib.axis_2">
    <g id="ytick_1">
     <g id="line2d_15">
      <path clip-path="url(#p8aaa2d7906)" d="M 57.6 258.546751 
L 414.72 258.546751 
" style="fill:none;stroke:#b2b2b2;stroke-dasharray:1.85,0.8;stroke-dashoffset:0;stroke-width:0.5;"/>
     </g>
     <g id="line2d_16">
      <defs>
       <path d="M 0 0 
L 3.5 0 
" id="m5425d86a76" style="stroke:#000000;stroke-width:0.8;"/>
      </defs>
      <g>
       <use style="stroke:#000000;stroke-width:0.8;" x="57.6" xlink:href="#m5425d86a76" y="258.546751"/>
      </g>
     </g>
     <g id="text_9">
      <!-- 50 -->
      <defs>
       <path d="M 10.796875 72.90625 
L 49.515625 72.90625 
L 49.515625 64.59375 
L 19.828125 64.59375 
L 19.828125 46.734375 
Q 21.96875 47.46875 24.109375 47.828125 
Q 26.265625 48.1875 28.421875 48.1875 
Q 40.625 48.1875 47.75 41.5 
Q 54.890625 34.8125 54.890625 23.390625 
Q 54.890625 11.625 47.5625 5.09375 
Q 40.234375 -1.421875 26.90625 -1.421875 
Q 22.3125 -1.421875 17.546875 -0.640625 
Q 12.796875 0.140625 7.71875 1.703125 
L 7.71875 11.625 
Q 12.109375 9.234375 16.796875 8.0625 
Q 21.484375 6.890625 26.703125 6.890625 
Q 35.15625 6.890625 40.078125 11.328125 
Q 45.015625 15.765625 45.015625 23.390625 
Q 45.015625 31 40.078125 35.4375 
Q 35.15625 39.890625 26.703125 39.890625 
Q 22.75 39.890625 18.8125 39.015625 
Q 14.890625 38.140625 10.796875 36.28125 
z
" id="DejaVuSans-53"/>
      </defs>
      <g transform="translate(41.375 262.34597)scale(0.1 -0.1)">
       <use xlink:href="#DejaVuSans-53"/>
       <use x="63.623047" xlink:href="#DejaVuSans-48"/>
      </g>
     </g>
    </g>
    <g id="ytick_2">
     <g id="line2d_17">
      <path clip-path="url(#p8aaa2d7906)" d="M 57.6 205.393875 
L 414.72 205.393875 
" style="fill:none;stroke:#b2b2b2;stroke-dasharray:1.85,0.8;stroke-dashoffset:0;stroke-width:0.5;"/>
     </g>
     <g id="line2d_18">
      <g>
       <use style="stroke:#000000;stroke-width:0.8;" x="57.6" xlink:href="#m5425d86a76" y="205.393875"/>
      </g>
     </g>
     <g id="text_10">
      <!-- 100 -->
      <g transform="translate(35.0125 209.193094)scale(0.1 -0.1)">
       <use xlink:href="#DejaVuSans-49"/>
       <use x="63.623047" xlink:href="#DejaVuSans-48"/>
       <use x="127.246094" xlink:href="#DejaVuSans-48"/>
      </g>
     </g>
    </g>
    <g id="ytick_3">
     <g id="line2d_19">
      <path clip-path="url(#p8aaa2d7906)" d="M 57.6 152.240999 
L 414.72 152.240999 
" style="fill:none;stroke:#b2b2b2;stroke-dasharray:1.85,0.8;stroke-dashoffset:0;stroke-width:0.5;"/>
     </g>
     <g id="line2d_20">
      <g>
       <use style="stroke:#000000;stroke-width:0.8;" x="57.6" xlink:href="#m5425d86a76" y="152.240999"/>
      </g>
     </g>
     <g id="text_11">
      <!-- 150 -->
      <g transform="translate(35.0125 156.040218)scale(0.1 -0.1)">
       <use xlink:href="#DejaVuSans-49"/>
       <use x="63.623047" xlink:href="#DejaVuSans-53"/>
       <use x="127.246094" xlink:href="#DejaVuSans-48"/>
      </g>
     </g>
    </g>
    <g id="ytick_4">
     <g id="line2d_21">
      <path clip-path="url(#p8aaa2d7906)" d="M 57.6 99.088123 
L 414.72 99.088123 
" style="fill:none;stroke:#b2b2b2;stroke-dasharray:1.85,0.8;stroke-dashoffset:0;stroke-width:0.5;"/>
     </g>
     <g id="line2d_22">
      <g>
       <use style="stroke:#000000;stroke-width:0.8;" x="57.6" xlink:href="#m5425d86a76" y="99.088123"/>
      </g>
     </g>
     <g id="text_12">
      <!-- 200 -->
      <g transform="translate(35.0125 102.887342)scale(0.1 -0.1)">
       <use xlink:href="#DejaVuSans-50"/>
       <use x="63.623047" xlink:href="#DejaVuSans-48"/>
       <use x="127.246094" xlink:href="#DejaVuSans-48"/>
      </g>
     </g>
    </g>
    <g id="ytick_5">
     <g id="line2d_23">
      <path clip-path="url(#p8aaa2d7906)" d="M 57.6 45.935247 
L 414.72 45.935247 
" style="fill:none;stroke:#b2b2b2;stroke-dasharray:1.85,0.8;stroke-dashoffset:0;stroke-width:0.5;"/>
     </g>
     <g id="line2d_24">
      <g>
       <use style="stroke:#000000;stroke-width:0.8;" x="57.6" xlink:href="#m5425d86a76" y="45.935247"/>
      </g>
     </g>
     <g id="text_13">
      <!-- 250 -->
      <g transform="translate(35.0125 49.734466)scale(0.1 -0.1)">
       <use xlink:href="#DejaVuSans-50"/>
       <use x="63.623047" xlink:href="#DejaVuSans-53"/>
       <use x="127.246094" xlink:href="#DejaVuSans-48"/>
      </g>
     </g>
    </g>
    <g id="text_14">
     <!-- average reward (100 epochs) -->
     <defs>
      <path d="M 34.28125 27.484375 
Q 23.390625 27.484375 19.1875 25 
Q 14.984375 22.515625 14.984375 16.5 
Q 14.984375 11.71875 18.140625 8.90625 
Q 21.296875 6.109375 26.703125 6.109375 
Q 34.1875 6.109375 38.703125 11.40625 
Q 43.21875 16.703125 43.21875 25.484375 
L 43.21875 27.484375 
z
M 52.203125 31.203125 
L 52.203125 0 
L 43.21875 0 
L 43.21875 8.296875 
Q 40.140625 3.328125 35.546875 0.953125 
Q 30.953125 -1.421875 24.3125 -1.421875 
Q 15.921875 -1.421875 10.953125 3.296875 
Q 6 8.015625 6 15.921875 
Q 6 25.140625 12.171875 29.828125 
Q 18.359375 34.515625 30.609375 34.515625 
L 43.21875 34.515625 
L 43.21875 35.40625 
Q 43.21875 41.609375 39.140625 45 
Q 35.0625 48.390625 27.6875 48.390625 
Q 23 48.390625 18.546875 47.265625 
Q 14.109375 46.140625 10.015625 43.890625 
L 10.015625 52.203125 
Q 14.9375 54.109375 19.578125 55.046875 
Q 24.21875 56 28.609375 56 
Q 40.484375 56 46.34375 49.84375 
Q 52.203125 43.703125 52.203125 31.203125 
z
" id="DejaVuSans-97"/>
      <path d="M 2.984375 54.6875 
L 12.5 54.6875 
L 29.59375 8.796875 
L 46.6875 54.6875 
L 56.203125 54.6875 
L 35.6875 0 
L 23.484375 0 
z
" id="DejaVuSans-118"/>
      <path d="M 41.109375 46.296875 
Q 39.59375 47.171875 37.8125 47.578125 
Q 36.03125 48 33.890625 48 
Q 26.265625 48 22.1875 43.046875 
Q 18.109375 38.09375 18.109375 28.8125 
L 18.109375 0 
L 9.078125 0 
L 9.078125 54.6875 
L 18.109375 54.6875 
L 18.109375 46.1875 
Q 20.953125 51.171875 25.484375 53.578125 
Q 30.03125 56 36.53125 56 
Q 37.453125 56 38.578125 55.875 
Q 39.703125 55.765625 41.0625 55.515625 
z
" id="DejaVuSans-114"/>
      <path d="M 45.40625 27.984375 
Q 45.40625 37.75 41.375 43.109375 
Q 37.359375 48.484375 30.078125 48.484375 
Q 22.859375 48.484375 18.828125 43.109375 
Q 14.796875 37.75 14.796875 27.984375 
Q 14.796875 18.265625 18.828125 12.890625 
Q 22.859375 7.515625 30.078125 7.515625 
Q 37.359375 7.515625 41.375 12.890625 
Q 45.40625 18.265625 45.40625 27.984375 
z
M 54.390625 6.78125 
Q 54.390625 -7.171875 48.1875 -13.984375 
Q 42 -20.796875 29.203125 -20.796875 
Q 24.46875 -20.796875 20.265625 -20.09375 
Q 16.0625 -19.390625 12.109375 -17.921875 
L 12.109375 -9.1875 
Q 16.0625 -11.328125 19.921875 -12.34375 
Q 23.78125 -13.375 27.78125 -13.375 
Q 36.625 -13.375 41.015625 -8.765625 
Q 45.40625 -4.15625 45.40625 5.171875 
L 45.40625 9.625 
Q 42.625 4.78125 38.28125 2.390625 
Q 33.9375 0 27.875 0 
Q 17.828125 0 11.671875 7.65625 
Q 5.515625 15.328125 5.515625 27.984375 
Q 5.515625 40.671875 11.671875 48.328125 
Q 17.828125 56 27.875 56 
Q 33.9375 56 38.28125 53.609375 
Q 42.625 51.21875 45.40625 46.390625 
L 45.40625 54.6875 
L 54.390625 54.6875 
z
" id="DejaVuSans-103"/>
      <path id="DejaVuSans-32"/>
      <path d="M 4.203125 54.6875 
L 13.1875 54.6875 
L 24.421875 12.015625 
L 35.59375 54.6875 
L 46.1875 54.6875 
L 57.421875 12.015625 
L 68.609375 54.6875 
L 77.59375 54.6875 
L 63.28125 0 
L 52.6875 0 
L 40.921875 44.828125 
L 29.109375 0 
L 18.5 0 
z
" id="DejaVuSans-119"/>
      <path d="M 45.40625 46.390625 
L 45.40625 75.984375 
L 54.390625 75.984375 
L 54.390625 0 
L 45.40625 0 
L 45.40625 8.203125 
Q 42.578125 3.328125 38.25 0.953125 
Q 33.9375 -1.421875 27.875 -1.421875 
Q 17.96875 -1.421875 11.734375 6.484375 
Q 5.515625 14.40625 5.515625 27.296875 
Q 5.515625 40.1875 11.734375 48.09375 
Q 17.96875 56 27.875 56 
Q 33.9375 56 38.25 53.625 
Q 42.578125 51.265625 45.40625 46.390625 
z
M 14.796875 27.296875 
Q 14.796875 17.390625 18.875 11.75 
Q 22.953125 6.109375 30.078125 6.109375 
Q 37.203125 6.109375 41.296875 11.75 
Q 45.40625 17.390625 45.40625 27.296875 
Q 45.40625 37.203125 41.296875 42.84375 
Q 37.203125 48.484375 30.078125 48.484375 
Q 22.953125 48.484375 18.875 42.84375 
Q 14.796875 37.203125 14.796875 27.296875 
z
" id="DejaVuSans-100"/>
      <path d="M 31 75.875 
Q 24.46875 64.65625 21.28125 53.65625 
Q 18.109375 42.671875 18.109375 31.390625 
Q 18.109375 20.125 21.3125 9.0625 
Q 24.515625 -2 31 -13.1875 
L 23.1875 -13.1875 
Q 15.875 -1.703125 12.234375 9.375 
Q 8.59375 20.453125 8.59375 31.390625 
Q 8.59375 42.28125 12.203125 53.3125 
Q 15.828125 64.359375 23.1875 75.875 
z
" id="DejaVuSans-40"/>
      <path d="M 44.28125 53.078125 
L 44.28125 44.578125 
Q 40.484375 46.53125 36.375 47.5 
Q 32.28125 48.484375 27.875 48.484375 
Q 21.1875 48.484375 17.84375 46.4375 
Q 14.5 44.390625 14.5 40.28125 
Q 14.5 37.15625 16.890625 35.375 
Q 19.28125 33.59375 26.515625 31.984375 
L 29.59375 31.296875 
Q 39.15625 29.25 43.1875 25.515625 
Q 47.21875 21.78125 47.21875 15.09375 
Q 47.21875 7.46875 41.1875 3.015625 
Q 35.15625 -1.421875 24.609375 -1.421875 
Q 20.21875 -1.421875 15.453125 -0.5625 
Q 10.6875 0.296875 5.421875 2 
L 5.421875 11.28125 
Q 10.40625 8.6875 15.234375 7.390625 
Q 20.0625 6.109375 24.8125 6.109375 
Q 31.15625 6.109375 34.5625 8.28125 
Q 37.984375 10.453125 37.984375 14.40625 
Q 37.984375 18.0625 35.515625 20.015625 
Q 33.0625 21.96875 24.703125 23.78125 
L 21.578125 24.515625 
Q 13.234375 26.265625 9.515625 29.90625 
Q 5.8125 33.546875 5.8125 39.890625 
Q 5.8125 47.609375 11.28125 51.796875 
Q 16.75 56 26.8125 56 
Q 31.78125 56 36.171875 55.265625 
Q 40.578125 54.546875 44.28125 53.078125 
z
" id="DejaVuSans-115"/>
      <path d="M 8.015625 75.875 
L 15.828125 75.875 
Q 23.140625 64.359375 26.78125 53.3125 
Q 30.421875 42.28125 30.421875 31.390625 
Q 30.421875 20.453125 26.78125 9.375 
Q 23.140625 -1.703125 15.828125 -13.1875 
L 8.015625 -13.1875 
Q 14.5 -2 17.703125 9.0625 
Q 20.90625 20.125 20.90625 31.390625 
Q 20.90625 42.671875 17.703125 53.65625 
Q 14.5 64.65625 8.015625 75.875 
z
" id="DejaVuSans-41"/>
     </defs>
     <g transform="translate(28.516875 263.36175)rotate(-90)scale(0.12 -0.12)">
      <use xlink:href="#DejaVuSans-97"/>
      <use x="61.279297" xlink:href="#DejaVuSans-118"/>
      <use x="120.458984" xlink:href="#DejaVuSans-101"/>
      <use x="181.982422" xlink:href="#DejaVuSans-114"/>
      <use x="223.095703" xlink:href="#DejaVuSans-97"/>
      <use x="284.375" xlink:href="#DejaVuSans-103"/>
      <use x="347.851562" xlink:href="#DejaVuSans-101"/>
      <use x="409.375" xlink:href="#DejaVuSans-32"/>
      <use x="441.162109" xlink:href="#DejaVuSans-114"/>
      <use x="482.244141" xlink:href="#DejaVuSans-101"/>
      <use x="543.767578" xlink:href="#DejaVuSans-119"/>
      <use x="625.554688" xlink:href="#DejaVuSans-97"/>
      <use x="686.833984" xlink:href="#DejaVuSans-114"/>
      <use x="727.931641" xlink:href="#DejaVuSans-100"/>
      <use x="791.408203" xlink:href="#DejaVuSans-32"/>
      <use x="823.195312" xlink:href="#DejaVuSans-40"/>
      <use x="862.208984" xlink:href="#DejaVuSans-49"/>
      <use x="925.832031" xlink:href="#DejaVuSans-48"/>
      <use x="989.455078" xlink:href="#DejaVuSans-48"/>
      <use x="1053.078125" xlink:href="#DejaVuSans-32"/>
      <use x="1084.865234" xlink:href="#DejaVuSans-101"/>
      <use x="1146.388672" xlink:href="#DejaVuSans-112"/>
      <use x="1209.865234" xlink:href="#DejaVuSans-111"/>
      <use x="1271.046875" xlink:href="#DejaVuSans-99"/>
      <use x="1326.027344" xlink:href="#DejaVuSans-104"/>
      <use x="1389.40625" xlink:href="#DejaVuSans-115"/>
      <use x="1441.505859" xlink:href="#DejaVuSans-41"/>
     </g>
    </g>
   </g>
   <g id="line2d_25">
    <path clip-path="url(#p8aaa2d7906)" d="M 73.832727 291.501534 
L 74.097968 291.501534 
L 74.363209 294.690707 
L 74.628449 295.488 
L 74.89369 293.627649 
L 75.689412 294.690707 
L 75.954652 294.218237 
L 76.219893 294.159178 
L 76.750374 295.133647 
L 77.015615 294.854254 
L 77.280856 294.918505 
L 77.546096 294.832448 
L 78.076578 295.4411 
L 78.341818 295.340353 
L 78.872299 293.202426 
L 79.13754 293.020188 
L 79.402781 293.386045 
L 79.668021 293.44277 
L 80.198503 293.925305 
L 80.463743 293.382328 
L 80.728984 293.588277 
L 80.994225 293.551717 
L 81.259465 293.224421 
L 82.055187 293.66087 
L 82.320428 293.788719 
L 82.585668 293.721449 
L 82.850909 293.840261 
L 83.11615 293.657179 
L 83.38139 293.685112 
L 83.911872 294.036518 
L 84.177112 293.91999 
L 84.442353 294.042501 
L 84.707594 293.956691 
L 85.238075 292.975319 
L 85.768556 293.14234 
L 86.033797 293.220521 
L 86.299037 292.896797 
L 86.829519 292.926031 
L 87.890481 293.076434 
L 88.155722 292.912502 
L 88.686203 292.918944 
L 89.216684 292.600628 
L 90.277647 292.51397 
L 90.808128 292.630011 
L 91.073369 292.516271 
L 91.33861 292.199662 
L 91.60385 292.314461 
L 91.869091 292.225646 
L 92.134332 291.972317 
L 92.399572 291.980659 
L 92.930053 291.574346 
L 93.195294 291.156759 
L 93.460535 291.104659 
L 93.991016 291.280639 
L 94.256257 291.17444 
L 94.786738 290.704241 
L 95.58246 290.989217 
L 95.847701 290.792829 
L 100.356791 290.385324 
L 100.622032 290.470369 
L 101.682995 290.151451 
L 101.948235 290.162082 
L 102.213476 289.917579 
L 102.478717 289.960101 
L 102.743957 289.38605 
L 103.009198 289.194699 
L 103.539679 289.258483 
L 104.07016 288.982088 
L 104.600642 288.822629 
L 105.131123 288.418667 
L 105.661604 288.578126 
L 105.926845 288.429298 
L 106.192086 288.439929 
L 106.722567 288.131642 
L 106.987807 288.322992 
L 107.518289 288.035967 
L 107.783529 288.014706 
L 108.579251 287.387502 
L 110.435936 286.972909 
L 110.701176 286.707145 
L 110.966417 286.664623 
L 111.231658 286.505164 
L 111.762139 286.951648 
L 112.557861 286.558317 
L 112.823102 286.111833 
L 113.353583 286.154355 
L 113.884064 285.14445 
L 114.149305 284.889317 
L 114.414545 284.868055 
L 114.679786 284.963731 
L 115.210267 284.963731 
L 116.27123 284.974361 
L 116.536471 284.889317 
L 117.597433 283.83689 
L 117.862674 283.900673 
L 118.127914 283.83689 
L 118.393155 283.634909 
L 119.188877 283.84752 
L 119.719358 284.21959 
L 119.984599 283.858151 
L 120.24984 283.826259 
L 120.51508 283.645539 
L 121.310802 284.049501 
L 121.841283 283.698692 
L 122.106524 283.65617 
L 122.371765 283.921934 
L 122.902246 283.762476 
L 123.167487 283.496711 
L 123.432727 283.411667 
L 123.697968 282.816354 
L 124.49369 282.816354 
L 125.024171 282.603743 
L 125.289412 282.688787 
L 125.819893 282.401762 
L 126.350374 282.497437 
L 126.615615 282.646265 
L 126.880856 282.476176 
L 127.411337 281.827711 
L 127.941818 282.082845 
L 129.002781 281.615099 
L 129.268021 282.050953 
L 129.533262 282.210412 
L 129.798503 282.008431 
L 130.063743 282.040322 
L 130.328984 282.242303 
L 130.594225 282.135998 
L 131.124706 282.210412 
L 131.389947 282.327348 
L 131.655187 282.73131 
L 133.246631 282.784463 
L 133.511872 282.635635 
L 133.777112 282.784463 
L 134.042353 282.646265 
L 134.307594 282.646265 
L 134.572834 282.508068 
L 135.103316 282.539959 
L 135.633797 282.497437 
L 135.899037 282.656896 
L 136.429519 282.465545 
L 136.96 282.539959 
L 137.225241 282.848246 
L 137.490481 282.773832 
L 137.755722 282.890768 
L 138.286203 282.593112 
L 138.816684 282.773832 
L 139.081925 282.635635 
L 139.347166 283.29473 
L 139.612406 283.082119 
L 139.877647 282.539959 
L 140.408128 283.060858 
L 140.673369 282.890768 
L 141.469091 282.795093 
L 141.734332 282.625004 
L 141.999572 282.284826 
L 142.264813 282.423023 
L 142.795294 282.263564 
L 143.060535 282.167889 
L 143.325775 282.508068 
L 143.591016 282.656896 
L 144.121497 283.167163 
L 145.18246 283.773106 
L 145.447701 283.571125 
L 145.712941 283.135272 
L 145.978182 283.039596 
L 146.243422 283.167163 
L 146.508663 283.496711 
L 147.039144 283.401036 
L 148.100107 283.379775 
L 148.365348 283.082119 
L 148.630588 282.593112 
L 149.16107 282.582482 
L 149.42631 282.603743 
L 149.691551 282.826985 
L 149.956791 282.805724 
L 150.222032 283.209686 
L 151.017754 283.082119 
L 151.282995 283.050227 
L 151.548235 283.209686 
L 151.813476 282.91203 
L 152.078717 283.241577 
L 152.343957 283.11401 
L 152.609198 282.710049 
L 152.874439 282.837616 
L 153.139679 282.316717 
L 153.40492 282.444284 
L 153.67016 282.826985 
L 154.200642 283.071488 
L 154.465882 282.901399 
L 155.261604 283.305361 
L 155.526845 282.635635 
L 155.792086 282.646265 
L 156.322567 282.072214 
L 156.853048 280.466997 
L 157.118289 280.637086 
L 157.383529 280.573303 
L 157.64877 280.243755 
L 157.914011 280.254386 
L 158.179251 280.084297 
L 158.444492 279.435831 
L 158.709733 279.22322 
L 158.974973 279.180698 
L 159.505455 279.276373 
L 160.035936 279.287003 
L 160.301176 279.0425 
L 160.566417 279.03187 
L 160.831658 278.883042 
L 161.096898 279.085022 
L 161.362139 279.010608 
L 161.62738 279.053131 
L 161.89262 278.723583 
L 162.157861 278.766105 
L 162.423102 278.319621 
L 162.688342 278.47908 
L 162.953583 278.011334 
L 163.218824 278.043226 
L 164.279786 276.661251 
L 164.545027 276.810079 
L 164.810267 276.756926 
L 165.340749 276.841971 
L 165.605989 276.788818 
L 165.87123 275.874589 
L 166.136471 275.598194 
L 166.401711 276.0872 
L 166.666952 275.757652 
L 166.932193 275.077296 
L 167.197433 274.896576 
L 167.727914 274.258741 
L 167.993155 274.035499 
L 168.258396 274.194958 
L 168.523636 274.024869 
L 169.054118 273.418926 
L 169.319358 273.355142 
L 170.380321 272.494066 
L 170.645561 272.483435 
L 170.910802 272.313346 
L 171.706524 271.037677 
L 171.971765 271.10146 
L 172.237005 270.856957 
L 172.502246 270.378581 
L 173.032727 270.474257 
L 173.297968 270.495518 
L 173.828449 270.219123 
L 174.09369 269.315524 
L 174.35893 269.326154 
L 174.624171 269.134804 
L 175.154652 269.134804 
L 175.419893 268.773365 
L 175.685134 268.858409 
L 175.950374 268.741473 
L 176.215615 268.87967 
L 176.480856 268.68832 
L 177.011337 267.689046 
L 177.276578 267.380759 
L 177.541818 267.40202 
L 177.807059 267.263823 
L 178.072299 266.753555 
L 178.33754 266.881122 
L 178.602781 266.445269 
L 179.133262 266.434638 
L 179.398503 266.115721 
L 179.663743 266.275179 
L 179.928984 265.37158 
L 180.724706 264.776268 
L 180.989947 264.659332 
L 181.255187 264.382937 
L 181.520428 263.543122 
L 181.785668 263.394293 
L 182.050909 263.776994 
L 182.31615 263.808886 
L 182.846631 264.202217 
L 183.377112 265.127077 
L 184.172834 264.701854 
L 184.438075 264.659332 
L 184.703316 264.361676 
L 184.968556 264.99951 
L 185.233797 265.190861 
L 185.499037 265.105816 
L 186.029519 263.33051 
L 186.294759 263.341141 
L 187.090481 261.895382 
L 187.620963 262.097363 
L 187.886203 262.203669 
L 188.151444 261.937905 
L 188.416684 262.2143 
L 188.947166 262.309975 
L 189.212406 262.299344 
L 189.477647 262.490695 
L 190.53861 262.076102 
L 191.069091 260.906739 
L 191.334332 260.279535 
L 191.599572 260.056293 
L 191.864813 259.333414 
L 192.130053 259.08891 
L 192.395294 259.556656 
L 192.660535 259.694853 
L 192.925775 259.280261 
L 193.191016 259.662962 
L 193.456257 260.396471 
L 193.721497 260.300796 
L 194.251979 260.534669 
L 194.78246 258.918821 
L 195.047701 259.014496 
L 195.312941 259.26963 
L 195.843422 257.589999 
L 196.108663 257.951439 
L 196.904385 257.515585 
L 197.700107 257.664413 
L 197.965348 258.100267 
L 198.230588 256.728923 
L 198.495829 256.654509 
L 198.76107 256.888381 
L 199.02631 256.973426 
L 199.822032 254.570916 
L 200.087273 254.337043 
L 200.352513 253.465336 
L 200.617754 254.368935 
L 200.882995 253.624795 
L 201.413476 253.284616 
L 201.678717 253.3484 
L 201.943957 253.263355 
L 202.474439 252.349126 
L 202.739679 251.998317 
L 203.00492 252.030209 
L 203.27016 251.775075 
L 203.535401 251.923903 
L 203.800642 251.945164 
L 204.065882 251.817597 
L 204.331123 251.892011 
L 205.126845 251.073457 
L 205.392086 250.94589 
L 205.657326 250.94589 
L 205.922567 250.159227 
L 206.187807 250.042291 
L 206.453048 250.658864 
L 206.718289 249.829679 
L 206.983529 250.137966 
L 207.24877 248.777253 
L 208.044492 249.159953 
L 208.309733 248.904819 
L 209.105455 247.352755 
L 209.635936 246.629876 
L 209.901176 246.831857 
L 210.696898 245.417991 
L 210.962139 245.184118 
L 212.023102 242.739086 
L 212.288342 243.036742 
L 212.553583 242.930436 
L 212.818824 242.526474 
L 213.084064 242.600888 
L 213.879786 242.090621 
L 214.145027 241.282697 
L 214.410267 240.985041 
L 214.675508 241.101977 
L 215.736471 237.997849 
L 216.001711 237.838391 
L 216.266952 237.051728 
L 216.532193 237.126142 
L 216.797433 236.467046 
L 217.062674 236.222543 
L 217.327914 236.456416 
L 217.593155 236.201282 
L 217.858396 235.574078 
L 218.388877 235.095702 
L 218.919358 235.05318 
L 219.184599 234.755524 
L 219.980321 232.895173 
L 220.245561 232.916434 
L 220.776043 231.90653 
L 221.041283 232.299861 
L 221.306524 232.108511 
L 221.571765 232.204186 
L 221.837005 230.896625 
L 222.367487 231.672657 
L 222.632727 231.183651 
L 222.897968 231.215542 
L 223.163209 230.854103 
L 223.428449 230.832842 
L 223.69369 229.907982 
L 224.224171 229.769784 
L 224.489412 228.887446 
L 224.754652 230.078071 
L 225.019893 229.270147 
L 225.285134 229.365822 
L 225.550374 228.834293 
L 225.815615 229.546542 
L 226.080856 229.631587 
L 226.346096 229.482759 
L 226.611337 229.663478 
L 226.876578 230.460771 
L 227.141818 229.684739 
L 227.407059 229.620956 
L 227.672299 229.727262 
L 227.93754 230.003657 
L 228.202781 229.939873 
L 228.998503 229.089427 
L 229.528984 228.260242 
L 229.794225 228.717357 
L 230.324706 227.728714 
L 230.589947 226.793223 
L 230.855187 226.410522 
L 231.385668 224.784044 
L 231.650909 224.752153 
L 231.91615 224.592694 
L 232.18139 224.70963 
L 232.446631 223.795401 
L 232.711872 223.476484 
L 232.977112 222.84928 
L 233.242353 222.881171 
L 233.507594 221.38226 
L 233.772834 222.168923 
L 234.038075 221.105865 
L 234.303316 220.680642 
L 234.568556 220.733795 
L 234.833797 220.521184 
L 235.099037 220.701903 
L 235.364278 221.042082 
L 235.629519 220.627489 
L 236.16 220.181005 
L 236.955722 218.395069 
L 237.220963 218.958489 
L 237.486203 218.278132 
L 237.751444 218.894706 
L 238.016684 218.97975 
L 238.281925 219.181731 
L 238.812406 218.501374 
L 239.077647 218.692725 
L 239.342888 217.268228 
L 239.873369 217.459578 
L 240.13861 217.906062 
L 240.40385 217.257597 
L 240.669091 217.789126 
L 241.199572 215.28031 
L 241.464813 215.535444 
L 241.730053 215.981928 
L 241.995294 215.142113 
L 242.260535 215.546074 
L 242.791016 215.886253 
L 243.056257 215.65238 
L 243.321497 215.567336 
L 243.851979 216.332737 
L 244.117219 216.226431 
L 244.38246 216.619763 
L 244.647701 215.429138 
L 244.912941 215.588597 
L 245.443422 214.185361 
L 245.973904 214.195991 
L 246.239144 213.770768 
L 246.504385 213.090412 
L 246.769626 211.846634 
L 247.034866 211.910418 
L 247.300107 211.804112 
L 247.565348 210.751685 
L 247.830588 211.176908 
L 248.095829 210.698532 
L 248.36107 210.719793 
L 248.62631 210.230787 
L 248.891551 209.029532 
L 249.422032 208.763767 
L 249.687273 209.614213 
L 249.952513 208.859443 
L 250.217754 209.210252 
L 250.482995 208.731876 
L 251.013476 208.540525 
L 251.278717 207.50936 
L 251.543957 207.764493 
L 252.074439 206.03171 
L 252.339679 204.19262 
L 252.60492 204.075684 
L 253.665882 200.812097 
L 253.931123 201.503085 
L 254.461604 199.217511 
L 254.726845 198.430848 
L 255.257326 197.633555 
L 255.522567 198.196976 
L 255.787807 198.122562 
L 256.053048 197.367791 
L 256.318289 196.124014 
L 256.84877 194.95465 
L 257.114011 194.242402 
L 257.379251 192.892319 
L 257.644492 193.10493 
L 257.909733 192.881688 
L 258.174973 191.946197 
L 258.705455 189.479904 
L 258.970695 190.14963 
L 259.235936 189.522426 
L 259.501176 189.533057 
L 259.766417 188.586936 
L 260.031658 188.097929 
L 260.562139 186.141903 
L 260.82738 185.929292 
L 261.09262 184.611101 
L 261.357861 184.143355 
L 261.888342 181.804629 
L 262.418824 180.316348 
L 262.684064 180.008062 
L 262.949305 180.295087 
L 263.214545 179.763558 
L 264.010267 177.594921 
L 264.275508 176.946456 
L 264.540749 175.979074 
L 265.336471 175.086105 
L 265.601711 175.011691 
L 265.866952 175.660156 
L 266.397433 172.981251 
L 266.662674 172.0245 
L 266.927914 172.088283 
L 267.193155 170.950811 
L 267.458396 171.461079 
L 267.723636 170.7382 
L 267.988877 170.429913 
L 268.519358 169.388117 
L 269.04984 166.783626 
L 269.31508 166.719843 
L 269.580321 165.497326 
L 269.845561 165.678046 
L 270.110802 164.933906 
L 270.376043 163.179861 
L 270.641283 162.744007 
L 270.906524 161.744733 
L 271.171765 161.776625 
L 271.437005 160.724198 
L 271.702246 160.139516 
L 271.967487 160.330867 
L 272.497968 159.522943 
L 272.763209 159.703663 
L 273.028449 160.086364 
L 273.29369 161.12816 
L 273.55893 160.532848 
L 273.824171 159.257179 
L 274.089412 159.27844 
L 274.354652 157.885835 
L 274.885134 158.119707 
L 275.150374 157.492503 
L 275.415615 157.641331 
L 275.946096 154.951796 
L 276.211337 152.974509 
L 276.476578 152.751267 
L 277.272299 148.711648 
L 277.53754 148.328947 
L 277.802781 148.233272 
L 278.333262 146.830036 
L 278.598503 146.883189 
L 278.863743 147.616699 
L 279.128984 146.489858 
L 279.394225 147.127692 
L 279.659465 146.989495 
L 279.924706 146.670578 
L 280.189947 147.744266 
L 280.455187 147.531654 
L 280.720428 147.148954 
L 280.985668 147.233998 
L 281.250909 147.935616 
L 281.51615 147.021387 
L 281.78139 147.648591 
L 282.311872 146.107157 
L 282.577112 145.915807 
L 282.842353 146.319769 
L 283.107594 146.139049 
L 283.638075 147.180845 
L 283.903316 147.180845 
L 284.433797 147.776157 
L 284.699037 147.606068 
L 285.229519 149.243177 
L 285.76 147.988769 
L 286.025241 147.627329 
L 286.290481 148.509667 
L 286.555722 148.509667 
L 286.820963 148.892368 
L 287.086203 148.892368 
L 287.351444 147.691113 
L 287.616684 148.233272 
L 287.881925 148.222642 
L 288.147166 149.126241 
L 288.412406 149.381374 
L 288.677647 150.157406 
L 288.942888 149.732183 
L 289.208128 149.764075 
L 289.473369 149.051827 
L 289.73861 149.073088 
L 290.00385 149.370744 
L 290.269091 149.338852 
L 290.534332 150.008578 
L 291.064813 148.626604 
L 291.330053 148.403361 
L 291.595294 147.935616 
L 291.860535 147.903724 
L 292.125775 148.052552 
L 292.391016 148.913629 
L 292.921497 149.881011 
L 293.186738 150.625152 
L 293.451979 150.699566 
L 293.717219 150.242451 
L 293.98246 150.072362 
L 294.247701 150.072362 
L 294.512941 150.359387 
L 294.778182 150.380648 
L 295.308663 151.953974 
L 295.573904 152.304783 
L 295.839144 151.114158 
L 296.104385 151.114158 
L 296.634866 149.423897 
L 296.900107 150.263712 
L 297.165348 149.881011 
L 297.430588 149.912903 
L 297.695829 150.486954 
L 297.96107 150.486954 
L 298.22631 150.146776 
L 298.491551 149.466419 
L 299.022032 149.838489 
L 299.552513 148.095075 
L 299.817754 147.053278 
L 300.082995 146.691839 
L 300.348235 146.989495 
L 300.613476 146.819406 
L 300.878717 147.170215 
L 301.143957 146.946973 
L 301.409198 146.224094 
L 301.674439 146.224094 
L 301.939679 145.862654 
L 302.20492 146.383552 
L 302.735401 146.670578 
L 303.000642 146.054004 
L 303.796364 146.054004 
L 304.592086 144.661399 
L 304.857326 145.618151 
L 305.122567 145.915807 
L 305.387807 145.182297 
L 305.653048 145.129144 
L 306.44877 142.949876 
L 306.979251 140.366647 
L 307.244492 141.068265 
L 307.509733 140.526105 
L 307.774973 139.154761 
L 308.040214 139.154761 
L 308.305455 138.708277 
L 308.570695 139.048455 
L 308.835936 138.697646 
L 309.101176 138.825213 
L 309.366417 138.251162 
L 309.631658 138.750799 
L 309.896898 137.772786 
L 310.162139 137.336933 
L 310.42738 137.336933 
L 310.957861 135.572257 
L 311.223102 135.572257 
L 311.753583 133.254792 
L 312.018824 133.924518 
L 312.284064 133.924518 
L 312.549305 134.062715 
L 312.814545 133.180378 
L 313.079786 133.180378 
L 313.345027 134.721811 
L 313.875508 134.721811 
L 314.405989 133.573709 
L 314.67123 132.744524 
L 314.936471 132.872091 
L 315.201711 131.851556 
L 315.466952 131.851556 
L 315.997433 130.171925 
L 316.262674 130.161294 
L 316.527914 129.863638 
L 317.058396 128.141485 
L 317.323636 128.704906 
L 317.588877 128.704906 
L 317.854118 128.04581 
L 318.119358 128.162746 
L 318.64984 126.057892 
L 318.91508 124.505828 
L 319.445561 123.655382 
L 319.976043 121.284764 
L 320.241283 121.316656 
L 320.506524 121.95449 
L 320.771765 121.95449 
L 321.037005 120.689452 
L 321.302246 120.157923 
L 321.567487 120.987108 
L 322.097968 119.509458 
L 322.628449 119.509458 
L 322.89369 119.381891 
L 323.15893 120.211076 
L 323.424171 119.371261 
L 323.954652 119.339369 
L 324.219893 118.425139 
L 324.750374 118.425139 
L 325.015615 118.286942 
L 325.546096 116.671094 
L 326.607059 116.671094 
L 326.872299 116.320285 
L 327.13754 116.309655 
L 327.402781 115.873801 
L 327.668021 114.948941 
L 328.198503 116.809292 
L 328.463743 116.809292 
L 328.728984 116.288394 
L 328.994225 116.139566 
L 329.524706 117.69163 
L 330.055187 119.520089 
L 331.11615 119.626394 
L 331.38139 119.062974 
L 331.911872 119.328738 
L 332.442353 119.264955 
L 332.972834 119.264955 
L 333.238075 119.807114 
L 333.503316 119.817745 
L 333.768556 119.116127 
L 334.033797 119.371261 
L 334.564278 120.529993 
L 335.094759 118.62712 
L 335.36 118.712165 
L 335.625241 118.223158 
L 335.890481 118.276311 
L 336.155722 117.393974 
L 336.420963 117.393974 
L 336.951444 118.340095 
L 337.216684 118.340095 
L 337.481925 118.520815 
L 337.747166 119.36063 
L 338.277647 119.36063 
L 338.542888 118.690904 
L 338.808128 119.498827 
L 339.073369 118.701534 
L 339.60385 118.701534 
L 339.869091 116.7774 
L 340.399572 117.117579 
L 340.664813 117.117579 
L 340.930053 117.627846 
L 341.195294 117.553432 
L 341.460535 116.575419 
L 341.725775 117.096317 
L 341.991016 117.106948 
L 342.521497 118.031808 
L 343.58246 118.021177 
L 343.847701 117.457757 
L 344.112941 117.914872 
L 344.378182 118.138114 
L 344.643422 117.904241 
L 344.908663 117.904241 
L 345.173904 118.80784 
L 345.439144 119.201171 
L 345.704385 119.201171 
L 346.234866 118.99919 
L 346.765348 118.967299 
L 347.030588 117.989286 
L 347.56107 117.989286 
L 347.82631 118.403878 
L 348.091551 116.660464 
L 348.622032 116.639203 
L 348.887273 116.894337 
L 349.152513 117.489649 
L 349.417754 117.489649 
L 349.682995 116.660464 
L 350.213476 116.660464 
L 350.478717 116.830553 
L 350.743957 116.830553 
L 351.009198 117.564063 
L 351.274439 117.564063 
L 351.539679 118.191267 
L 352.07016 118.116853 
L 352.600642 118.116853 
L 352.865882 118.99919 
L 353.661604 119.052343 
L 354.192086 119.807114 
L 354.722567 117.946763 
L 355.518289 118.946038 
L 356.04877 117.255776 
L 356.314011 117.096317 
L 356.579251 116.086413 
L 357.109733 115.980107 
L 357.374973 116.756139 
L 357.640214 116.756139 
L 358.435936 115.746234 
L 359.496898 115.746234 
L 359.762139 115.204075 
L 360.29262 115.193444 
L 360.823102 114.257954 
L 361.088342 113.64138 
L 361.884064 113.556336 
L 362.149305 114.300476 
L 362.945027 114.247323 
L 363.475508 113.301202 
L 363.740749 113.588228 
L 364.005989 114.066604 
L 364.27123 113.226788 
L 365.066952 113.226788 
L 365.332193 112.418864 
L 365.597433 112.418864 
L 365.862674 112.610215 
L 366.393155 113.407508 
L 366.658396 113.471291 
L 366.923636 113.705164 
L 367.188877 113.705164 
L 367.454118 113.194896 
L 367.719358 113.364986 
L 367.984599 114.098495 
L 368.24984 113.960298 
L 368.51508 113.949667 
L 368.780321 114.162279 
L 369.045561 113.705164 
L 370.106524 113.705164 
L 370.371765 114.098495 
L 370.637005 113.64138 
L 371.167487 113.588228 
L 371.432727 114.491827 
L 371.697968 113.588228 
L 371.963209 114.141018 
L 374.085134 114.151648 
L 374.350374 113.609489 
L 375.411337 113.652011 
L 375.676578 113.26931 
L 376.207059 113.26931 
L 376.472299 113.471291 
L 376.73754 113.471291 
L 377.002781 113.301202 
L 377.268021 113.471291 
L 377.533262 112.88661 
L 377.798503 113.364986 
L 378.063743 112.631476 
L 378.328984 112.493278 
L 379.124706 112.493278 
L 379.389947 111.610941 
L 379.655187 111.759769 
L 380.185668 111.759769 
L 380.98139 111.004998 
L 381.246631 111.004998 
L 381.511872 111.579049 
L 381.777112 111.345176 
L 382.042353 110.898692 
L 382.572834 110.898692 
L 382.838075 110.239596 
L 383.633797 110.239596 
L 383.899037 109.463564 
L 388.408128 109.463564 
L 388.673369 108.687532 
L 389.999572 108.687532 
L 390.264813 108.400507 
L 390.530053 107.741411 
L 391.856257 107.741411 
L 392.121497 108.336723 
L 392.386738 108.145373 
L 392.917219 107.34808 
L 393.447701 106.710245 
L 393.978182 106.710245 
L 394.243422 106.540156 
L 394.508663 105.806647 
L 394.773904 105.423946 
L 395.039144 106.029889 
L 395.304385 105.349532 
L 395.834866 105.349532 
L 396.100107 105.912952 
L 396.630588 105.912952 
L 396.895829 105.519621 
L 397.16107 105.519621 
L 397.42631 105.349532 
L 397.691551 105.349532 
L 397.956791 104.445933 
L 398.222032 104.445933 
L 398.487273 103.499812 
L 398.487273 103.499812 
" style="fill:none;stroke:#348abd;stroke-linecap:square;stroke-width:2;"/>
   </g>
   <g id="line2d_26">
    <path clip-path="url(#p8aaa2d7906)" d="M 74.097968 281.934017 
L 74.363209 278.744844 
L 74.628449 270.594736 
L 74.89369 255.357579 
L 75.15893 255.995413 
L 75.424171 246.498766 
L 75.689412 251.560945 
L 75.954652 253.762992 
L 76.219893 258.074281 
L 76.485134 256.420636 
L 76.750374 255.840787 
L 77.280856 260.182224 
L 77.546096 261.735924 
L 77.811337 262.373758 
L 78.076578 255.490461 
L 78.341818 257.421161 
L 78.607059 257.956164 
L 78.872299 258.770553 
L 79.13754 258.440445 
L 79.402781 259.255456 
L 79.933262 261.782144 
L 80.198503 262.444629 
L 80.463743 262.798981 
L 80.728984 261.981245 
L 81.259465 263.634241 
L 81.524706 262.798981 
L 82.585668 264.860669 
L 82.850909 263.862039 
L 83.38139 264.570744 
L 83.646631 265.269872 
L 84.177112 265.90638 
L 84.442353 266.572835 
L 84.707594 266.843785 
L 85.238075 267.842324 
L 85.503316 267.824344 
L 85.768556 268.32688 
L 86.033797 268.576468 
L 86.299037 269.041617 
L 87.094759 268.624536 
L 87.625241 269.504421 
L 87.890481 269.698826 
L 88.155722 269.098581 
L 90.542888 271.505929 
L 90.808128 271.20378 
L 91.60385 272.001569 
L 91.869091 272.085101 
L 93.991016 273.87716 
L 94.521497 274.192777 
L 95.051979 274.625496 
L 95.58246 274.829681 
L 96.643422 275.43206 
L 96.908663 275.384605 
L 97.704385 275.721036 
L 98.234866 275.971651 
L 99.56107 276.651607 
L 100.887273 277.256564 
L 101.152513 277.596742 
L 101.417754 278.404666 
L 101.682995 278.681061 
L 101.948235 279.552768 
L 102.213476 279.552768 
L 102.478717 279.722857 
L 102.743957 279.722857 
L 103.274439 280.658348 
L 104.335401 281.041048 
L 104.600642 282.444284 
L 104.865882 282.295456 
L 105.396364 282.486807 
L 105.661604 282.848246 
L 105.926845 282.975813 
L 106.457326 282.975813 
L 106.722567 283.060858 
L 106.987807 283.273469 
L 107.253048 283.762476 
L 107.783529 283.826259 
L 108.04877 284.251482 
L 109.109733 284.59166 
L 109.374973 285.186973 
L 110.170695 285.463368 
L 110.435936 285.250756 
L 110.701176 285.335801 
L 110.966417 285.080667 
L 111.496898 285.059406 
L 111.762139 284.910578 
L 112.02738 284.974361 
L 112.29262 284.697966 
L 112.557861 284.655444 
L 112.823102 284.485355 
L 113.618824 285.101928 
L 114.414545 284.719227 
L 114.679786 284.931839 
L 114.945027 284.868055 
L 115.475508 284.910578 
L 116.27123 284.804272 
L 117.066952 284.570399 
L 117.332193 284.825533 
L 117.597433 284.76175 
L 117.862674 284.825533 
L 118.127914 284.59166 
L 118.658396 284.59166 
L 118.923636 284.570399 
L 119.719358 284.145176 
L 119.984599 284.166437 
L 120.51508 283.868781 
L 120.780321 283.911304 
L 121.576043 283.741214 
L 122.106524 283.890042 
L 123.432727 283.762476 
L 124.75893 283.741214 
L 125.024171 283.634909 
L 125.289412 283.65617 
L 125.819893 283.464819 
L 126.880856 283.273469 
L 127.146096 283.188424 
L 127.411337 282.231673 
L 127.676578 282.252934 
L 127.941818 281.763927 
L 128.472299 281.848972 
L 128.73754 281.891494 
L 129.798503 281.062309 
L 130.063743 281.083571 
L 130.328984 279.871685 
L 130.594225 279.829163 
L 130.859465 279.382679 
L 131.124706 279.382679 
L 131.389947 278.574755 
L 131.655187 278.702322 
L 131.920428 277.979443 
L 132.71615 277.277825 
L 132.98139 276.129723 
L 134.042353 274.747748 
L 134.572834 273.472079 
L 135.103316 272.302715 
L 135.899037 270.708129 
L 136.164278 270.431734 
L 136.429519 269.857683 
L 137.225241 265.73302 
L 137.755722 264.584918 
L 139.347166 261.034306 
L 139.877647 260.481516 
L 140.93861 258.440445 
L 141.20385 257.632522 
L 141.999572 257.015948 
L 142.264813 256.12298 
L 142.530053 256.101719 
L 142.795294 252.210928 
L 144.386738 246.406634 
L 145.447701 241.027563 
L 145.712941 240.198378 
L 148.365348 226.038452 
L 149.16107 221.424783 
L 149.42631 217.512731 
L 150.487273 211.368258 
L 151.017754 207.945213 
L 151.813476 203.012626 
L 152.343957 197.676078 
L 152.874439 193.062408 
L 153.935401 184.60047 
L 154.731123 173.757283 
L 155.261604 166.889932 
L 155.792086 160.086364 
L 156.057326 157.853943 
L 156.587807 151.603165 
L 156.853048 150.051101 
L 157.64877 141.589163 
L 158.179251 137.336933 
L 159.240214 127.386714 
L 159.505455 126.855185 
L 159.770695 124.558981 
L 160.035936 123.325835 
L 161.096898 114.566241 
L 162.157861 106.401959 
L 162.688342 102.298557 
L 162.688342 102.298557 
" style="fill:none;stroke:#a60628;stroke-linecap:square;stroke-width:2;"/>
   </g>
   <g id="line2d_27">
    <path clip-path="url(#p8aaa2d7906)" d="M 74.097968 277.681787 
L 74.363209 268.114269 
L 74.628449 270.594736 
L 74.89369 268.645798 
L 75.15893 255.995413 
L 75.424171 259.609809 
L 75.689412 262.798981 
L 75.954652 263.064746 
L 76.219893 264.452626 
L 76.485134 266.8386 
L 76.750374 267.051211 
L 77.015615 268.114269 
L 77.280856 268.686684 
L 77.546096 270.392249 
L 77.811337 270.594736 
L 78.076578 267.981387 
L 78.341818 267.551474 
L 78.607059 268.468621 
L 78.872299 268.729723 
L 79.13754 269.283632 
L 79.402781 269.683544 
L 79.668021 269.950459 
L 79.933262 269.177326 
L 80.198503 269.708855 
L 80.463743 270.452995 
L 80.728984 271.303441 
L 80.994225 271.933401 
L 81.259465 271.455307 
L 81.524706 271.816642 
L 81.789947 271.728664 
L 82.055187 271.372026 
L 82.320428 271.83497 
L 82.585668 272.20543 
L 82.850909 272.679163 
L 83.11615 272.639857 
L 83.38139 272.77991 
L 83.646631 272.912393 
L 83.911872 272.926003 
L 84.177112 270.976347 
L 84.442353 266.891753 
L 84.707594 264.095393 
L 84.972834 258.445508 
L 85.238075 257.162304 
L 85.503316 255.260937 
L 85.768556 250.514761 
L 86.033797 249.348993 
L 86.299037 247.599521 
L 86.564278 246.277296 
L 86.829519 245.44294 
L 87.094759 241.240175 
L 87.36 238.411191 
L 87.625241 236.754072 
L 87.890481 234.036255 
L 88.155722 233.623958 
L 88.420963 230.675316 
L 88.686203 228.629275 
L 88.951444 226.468524 
L 89.216684 224.712196 
L 89.481925 224.060444 
L 89.747166 221.977572 
L 90.012406 221.461728 
L 90.277647 220.688187 
L 90.542888 220.44542 
L 90.808128 219.512608 
L 91.073369 217.659923 
L 91.33861 215.863381 
L 91.60385 213.390606 
L 91.869091 212.272483 
L 92.134332 209.954238 
L 92.399572 209.160136 
L 92.664813 208.02906 
L 92.930053 207.04752 
L 93.195294 206.587995 
L 93.460535 205.135294 
L 93.725775 205.053697 
L 93.991016 204.862346 
L 94.256257 203.70955 
L 94.521497 203.076955 
L 94.786738 202.541113 
L 95.051979 202.231279 
L 95.317219 202.060337 
L 95.58246 202.023205 
L 95.847701 201.423419 
L 96.112941 201.344132 
L 96.378182 201.216684 
L 96.643422 199.658309 
L 96.908663 199.699797 
L 97.173904 199.764502 
L 97.439144 197.821083 
L 97.704385 197.361885 
L 97.969626 196.982871 
L 98.234866 196.773865 
L 98.500107 196.592216 
L 98.765348 195.91683 
L 99.030588 192.659565 
L 99.295829 192.52645 
L 99.56107 192.483754 
L 99.82631 192.376844 
L 100.091551 191.069443 
L 100.356791 190.553592 
L 100.622032 189.256662 
L 100.887273 187.36442 
L 101.152513 186.173795 
L 101.417754 184.770559 
L 101.682995 184.196508 
L 101.948235 182.19796 
L 102.213476 178.243386 
L 102.478717 175.394392 
L 102.743957 171.503601 
L 103.009198 167.485244 
L 103.274439 163.658237 
L 103.539679 159.724924 
L 103.80492 155.834133 
L 104.07016 151.773254 
L 104.335401 147.903724 
L 104.600642 144.480679 
L 104.865882 140.738717 
L 105.131123 136.762882 
L 105.396364 132.893352 
L 105.661604 128.960039 
L 105.926845 125.047988 
L 106.192086 121.157197 
L 106.457326 118.478292 
L 106.722567 114.523718 
L 106.987807 110.505361 
L 107.253048 106.444481 
L 107.518289 102.426124 
" style="fill:none;stroke:#7a68a6;stroke-linecap:square;stroke-width:2;"/>
   </g>
   <g id="line2d_28">
    <path clip-path="url(#p8aaa2d7906)" d="M 74.097968 271.303441 
L 74.363209 267.051211 
L 74.628449 274.846966 
L 74.89369 273.429556 
L 75.15893 275.980894 
L 75.424171 276.973082 
L 75.689412 274.340749 
L 75.954652 274.22685 
L 76.219893 275.083201 
L 76.485134 276.193506 
L 76.750374 274.782539 
L 77.015615 275.732848 
L 77.280856 274.574388 
L 77.546096 274.188883 
L 77.811337 273.99652 
L 78.076578 273.961085 
L 78.341818 274.805278 
L 78.607059 275.791906 
L 78.872299 273.317656 
L 79.13754 273.004333 
L 79.402781 273.632044 
L 79.668021 274.106048 
L 79.933262 273.984195 
L 80.198503 274.66979 
L 80.463743 275.300538 
L 80.728984 275.882766 
L 80.994225 276.343122 
L 81.259465 276.694662 
L 81.524706 275.995557 
L 81.789947 275.910024 
L 82.055187 274.938412 
L 82.320428 274.559055 
L 82.585668 271.883291 
L 82.850909 271.115843 
L 83.11615 270.574488 
L 83.38139 269.531679 
L 83.646631 268.660163 
L 83.911872 264.309642 
L 84.177112 259.528035 
L 84.442353 252.540476 
L 84.707594 243.612089 
L 84.972834 239.25985 
L 85.238075 231.648924 
L 85.503316 223.804099 
L 85.768556 218.481294 
L 86.033797 211.726 
L 86.299037 204.805801 
L 86.564278 199.369882 
L 86.829519 192.984306 
L 87.094759 186.854152 
L 87.36 180.964396 
L 87.625241 175.30117 
L 87.890481 169.85165 
L 88.155722 164.603964 
L 88.420963 159.547103 
L 88.686203 154.670845 
L 88.951444 150.89819 
L 89.216684 146.339197 
L 89.481925 141.934747 
L 89.747166 137.677111 
L 90.012406 133.55907 
L 90.277647 129.573869 
L 90.542888 126.221401 
L 90.808128 122.475388 
L 91.073369 118.844638 
L 91.33861 115.323911 
L 91.60385 113.526665 
L 91.869091 110.187694 
L 92.134332 106.945505 
L 92.399572 104.464157 
L 92.664813 101.39391 
L 92.930053 98.674712 
L 93.195294 95.767889 
L 93.460535 93.830298 
L 93.725775 91.065582 
L 93.991016 89.017052 
L 94.256257 87.960534 
L 94.521497 86.685785 
L 94.786738 84.393708 
L 95.051979 82.849919 
L 95.317219 81.606733 
L 95.58246 80.575365 
L 95.847701 79.312692 
L 96.112941 77.852284 
L 96.378182 76.52629 
L 96.643422 74.810856 
L 96.908663 73.696933 
L 97.173904 72.584166 
L 97.439144 70.49307 
L 97.704385 68.96816 
L 97.969626 67.687039 
L 98.234866 66.410659 
L 98.500107 64.818806 
L 98.765348 62.921549 
L 99.030588 62.228002 
L 99.295829 60.530141 
L 99.56107 58.735775 
L 99.82631 56.978028 
L 100.091551 55.255792 
L 100.356791 53.568 
" style="fill:none;stroke:#467821;stroke-linecap:square;stroke-width:2;"/>
   </g>
   <g id="patch_3">
    <path d="M 57.6 307.584 
L 57.6 41.472 
" style="fill:none;stroke:#bcbcbc;stroke-linecap:square;stroke-linejoin:miter;stroke-width:0.8;"/>
   </g>
   <g id="patch_4">
    <path d="M 414.72 307.584 
L 414.72 41.472 
" style="fill:none;stroke:#bcbcbc;stroke-linecap:square;stroke-linejoin:miter;stroke-width:0.8;"/>
   </g>
   <g id="patch_5">
    <path d="M 57.6 307.584 
L 414.72 307.584 
" style="fill:none;stroke:#bcbcbc;stroke-linecap:square;stroke-linejoin:miter;stroke-width:0.8;"/>
   </g>
   <g id="patch_6">
    <path d="M 57.6 41.472 
L 414.72 41.472 
" style="fill:none;stroke:#bcbcbc;stroke-linecap:square;stroke-linejoin:miter;stroke-width:0.8;"/>
   </g>
   <g id="text_15">
    <!-- CartPole-v0 -->
    <defs>
     <path d="M 64.40625 67.28125 
L 64.40625 56.890625 
Q 59.421875 61.53125 53.78125 63.8125 
Q 48.140625 66.109375 41.796875 66.109375 
Q 29.296875 66.109375 22.65625 58.46875 
Q 16.015625 50.828125 16.015625 36.375 
Q 16.015625 21.96875 22.65625 14.328125 
Q 29.296875 6.6875 41.796875 6.6875 
Q 48.140625 6.6875 53.78125 8.984375 
Q 59.421875 11.28125 64.40625 15.921875 
L 64.40625 5.609375 
Q 59.234375 2.09375 53.4375 0.328125 
Q 47.65625 -1.421875 41.21875 -1.421875 
Q 24.65625 -1.421875 15.125 8.703125 
Q 5.609375 18.84375 5.609375 36.375 
Q 5.609375 53.953125 15.125 64.078125 
Q 24.65625 74.21875 41.21875 74.21875 
Q 47.75 74.21875 53.53125 72.484375 
Q 59.328125 70.75 64.40625 67.28125 
z
" id="DejaVuSans-67"/>
     <path d="M 18.3125 70.21875 
L 18.3125 54.6875 
L 36.8125 54.6875 
L 36.8125 47.703125 
L 18.3125 47.703125 
L 18.3125 18.015625 
Q 18.3125 11.328125 20.140625 9.421875 
Q 21.96875 7.515625 27.59375 7.515625 
L 36.8125 7.515625 
L 36.8125 0 
L 27.59375 0 
Q 17.1875 0 13.234375 3.875 
Q 9.28125 7.765625 9.28125 18.015625 
L 9.28125 47.703125 
L 2.6875 47.703125 
L 2.6875 54.6875 
L 9.28125 54.6875 
L 9.28125 70.21875 
z
" id="DejaVuSans-116"/>
     <path d="M 19.671875 64.796875 
L 19.671875 37.40625 
L 32.078125 37.40625 
Q 38.96875 37.40625 42.71875 40.96875 
Q 46.484375 44.53125 46.484375 51.125 
Q 46.484375 57.671875 42.71875 61.234375 
Q 38.96875 64.796875 32.078125 64.796875 
z
M 9.8125 72.90625 
L 32.078125 72.90625 
Q 44.34375 72.90625 50.609375 67.359375 
Q 56.890625 61.8125 56.890625 51.125 
Q 56.890625 40.328125 50.609375 34.8125 
Q 44.34375 29.296875 32.078125 29.296875 
L 19.671875 29.296875 
L 19.671875 0 
L 9.8125 0 
z
" id="DejaVuSans-80"/>
     <path d="M 9.421875 75.984375 
L 18.40625 75.984375 
L 18.40625 0 
L 9.421875 0 
z
" id="DejaVuSans-108"/>
     <path d="M 4.890625 31.390625 
L 31.203125 31.390625 
L 31.203125 23.390625 
L 4.890625 23.390625 
z
" id="DejaVuSans-45"/>
    </defs>
    <g transform="translate(194.32575 35.472)scale(0.144 -0.144)">
     <use xlink:href="#DejaVuSans-67"/>
     <use x="69.824219" xlink:href="#DejaVuSans-97"/>
     <use x="131.103516" xlink:href="#DejaVuSans-114"/>
     <use x="172.216797" xlink:href="#DejaVuSans-116"/>
     <use x="211.425781" xlink:href="#DejaVuSans-80"/>
     <use x="271.681641" xlink:href="#DejaVuSans-111"/>
     <use x="332.863281" xlink:href="#DejaVuSans-108"/>
     <use x="360.646484" xlink:href="#DejaVuSans-101"/>
     <use x="422.169922" xlink:href="#DejaVuSans-45"/>
     <use x="458.222656" xlink:href="#DejaVuSans-118"/>
     <use x="517.402344" xlink:href="#DejaVuSans-48"/>
    </g>
   </g>
   <g id="legend_1">
    <g id="patch_7">
     <path d="M 248.259062 302.584 
L 407.72 302.584 
Q 409.72 302.584 409.72 300.584 
L 409.72 242.8715 
Q 409.72 240.8715 407.72 240.8715 
L 248.259062 240.8715 
Q 246.259062 240.8715 246.259062 242.8715 
L 246.259062 300.584 
Q 246.259062 302.584 248.259062 302.584 
z
" style="fill:#eeeeee;opacity:0.8;stroke:#cccccc;stroke-linejoin:miter;stroke-width:0.5;"/>
    </g>
    <g id="line2d_29">
     <path d="M 250.259062 248.969937 
L 270.259063 248.969937 
" style="fill:none;stroke:#348abd;stroke-linecap:square;stroke-width:2;"/>
    </g>
    <g id="line2d_30"/>
    <g id="text_16">
     <!-- policy gradient -->
     <defs>
      <path d="M 9.421875 54.6875 
L 18.40625 54.6875 
L 18.40625 0 
L 9.421875 0 
z
M 9.421875 75.984375 
L 18.40625 75.984375 
L 18.40625 64.59375 
L 9.421875 64.59375 
z
" id="DejaVuSans-105"/>
      <path d="M 32.171875 -5.078125 
Q 28.375 -14.84375 24.75 -17.8125 
Q 21.140625 -20.796875 15.09375 -20.796875 
L 7.90625 -20.796875 
L 7.90625 -13.28125 
L 13.1875 -13.28125 
Q 16.890625 -13.28125 18.9375 -11.515625 
Q 21 -9.765625 23.484375 -3.21875 
L 25.09375 0.875 
L 2.984375 54.6875 
L 12.5 54.6875 
L 29.59375 11.921875 
L 46.6875 54.6875 
L 56.203125 54.6875 
z
" id="DejaVuSans-121"/>
      <path d="M 54.890625 33.015625 
L 54.890625 0 
L 45.90625 0 
L 45.90625 32.71875 
Q 45.90625 40.484375 42.875 44.328125 
Q 39.84375 48.1875 33.796875 48.1875 
Q 26.515625 48.1875 22.3125 43.546875 
Q 18.109375 38.921875 18.109375 30.90625 
L 18.109375 0 
L 9.078125 0 
L 9.078125 54.6875 
L 18.109375 54.6875 
L 18.109375 46.1875 
Q 21.34375 51.125 25.703125 53.5625 
Q 30.078125 56 35.796875 56 
Q 45.21875 56 50.046875 50.171875 
Q 54.890625 44.34375 54.890625 33.015625 
z
" id="DejaVuSans-110"/>
     </defs>
     <g transform="translate(278.259063 252.469937)scale(0.1 -0.1)">
      <use xlink:href="#DejaVuSans-112"/>
      <use x="63.476562" xlink:href="#DejaVuSans-111"/>
      <use x="124.658203" xlink:href="#DejaVuSans-108"/>
      <use x="152.441406" xlink:href="#DejaVuSans-105"/>
      <use x="180.224609" xlink:href="#DejaVuSans-99"/>
      <use x="235.205078" xlink:href="#DejaVuSans-121"/>
      <use x="294.384766" xlink:href="#DejaVuSans-32"/>
      <use x="326.171875" xlink:href="#DejaVuSans-103"/>
      <use x="389.648438" xlink:href="#DejaVuSans-114"/>
      <use x="430.761719" xlink:href="#DejaVuSans-97"/>
      <use x="492.041016" xlink:href="#DejaVuSans-100"/>
      <use x="555.517578" xlink:href="#DejaVuSans-105"/>
      <use x="583.300781" xlink:href="#DejaVuSans-101"/>
      <use x="644.824219" xlink:href="#DejaVuSans-110"/>
      <use x="708.203125" xlink:href="#DejaVuSans-116"/>
     </g>
    </g>
    <g id="line2d_31">
     <path d="M 250.259062 263.648062 
L 270.259063 263.648062 
" style="fill:none;stroke:#a60628;stroke-linecap:square;stroke-width:2;"/>
    </g>
    <g id="line2d_32"/>
    <g id="text_17">
     <!-- double DQN -->
     <defs>
      <path d="M 8.5 21.578125 
L 8.5 54.6875 
L 17.484375 54.6875 
L 17.484375 21.921875 
Q 17.484375 14.15625 20.5 10.265625 
Q 23.53125 6.390625 29.59375 6.390625 
Q 36.859375 6.390625 41.078125 11.03125 
Q 45.3125 15.671875 45.3125 23.6875 
L 45.3125 54.6875 
L 54.296875 54.6875 
L 54.296875 0 
L 45.3125 0 
L 45.3125 8.40625 
Q 42.046875 3.421875 37.71875 1 
Q 33.40625 -1.421875 27.6875 -1.421875 
Q 18.265625 -1.421875 13.375 4.4375 
Q 8.5 10.296875 8.5 21.578125 
z
M 31.109375 56 
z
" id="DejaVuSans-117"/>
      <path d="M 48.6875 27.296875 
Q 48.6875 37.203125 44.609375 42.84375 
Q 40.53125 48.484375 33.40625 48.484375 
Q 26.265625 48.484375 22.1875 42.84375 
Q 18.109375 37.203125 18.109375 27.296875 
Q 18.109375 17.390625 22.1875 11.75 
Q 26.265625 6.109375 33.40625 6.109375 
Q 40.53125 6.109375 44.609375 11.75 
Q 48.6875 17.390625 48.6875 27.296875 
z
M 18.109375 46.390625 
Q 20.953125 51.265625 25.265625 53.625 
Q 29.59375 56 35.59375 56 
Q 45.5625 56 51.78125 48.09375 
Q 58.015625 40.1875 58.015625 27.296875 
Q 58.015625 14.40625 51.78125 6.484375 
Q 45.5625 -1.421875 35.59375 -1.421875 
Q 29.59375 -1.421875 25.265625 0.953125 
Q 20.953125 3.328125 18.109375 8.203125 
L 18.109375 0 
L 9.078125 0 
L 9.078125 75.984375 
L 18.109375 75.984375 
z
" id="DejaVuSans-98"/>
      <path d="M 19.671875 64.796875 
L 19.671875 8.109375 
L 31.59375 8.109375 
Q 46.6875 8.109375 53.6875 14.9375 
Q 60.6875 21.78125 60.6875 36.53125 
Q 60.6875 51.171875 53.6875 57.984375 
Q 46.6875 64.796875 31.59375 64.796875 
z
M 9.8125 72.90625 
L 30.078125 72.90625 
Q 51.265625 72.90625 61.171875 64.09375 
Q 71.09375 55.28125 71.09375 36.53125 
Q 71.09375 17.671875 61.125 8.828125 
Q 51.171875 0 30.078125 0 
L 9.8125 0 
z
" id="DejaVuSans-68"/>
      <path d="M 39.40625 66.21875 
Q 28.65625 66.21875 22.328125 58.203125 
Q 16.015625 50.203125 16.015625 36.375 
Q 16.015625 22.609375 22.328125 14.59375 
Q 28.65625 6.59375 39.40625 6.59375 
Q 50.140625 6.59375 56.421875 14.59375 
Q 62.703125 22.609375 62.703125 36.375 
Q 62.703125 50.203125 56.421875 58.203125 
Q 50.140625 66.21875 39.40625 66.21875 
z
M 53.21875 1.3125 
L 66.21875 -12.890625 
L 54.296875 -12.890625 
L 43.5 -1.21875 
Q 41.890625 -1.3125 41.03125 -1.359375 
Q 40.1875 -1.421875 39.40625 -1.421875 
Q 24.03125 -1.421875 14.8125 8.859375 
Q 5.609375 19.140625 5.609375 36.375 
Q 5.609375 53.65625 14.8125 63.9375 
Q 24.03125 74.21875 39.40625 74.21875 
Q 54.734375 74.21875 63.90625 63.9375 
Q 73.09375 53.65625 73.09375 36.375 
Q 73.09375 23.6875 67.984375 14.640625 
Q 62.890625 5.609375 53.21875 1.3125 
z
" id="DejaVuSans-81"/>
      <path d="M 9.8125 72.90625 
L 23.09375 72.90625 
L 55.421875 11.921875 
L 55.421875 72.90625 
L 64.984375 72.90625 
L 64.984375 0 
L 51.703125 0 
L 19.390625 60.984375 
L 19.390625 0 
L 9.8125 0 
z
" id="DejaVuSans-78"/>
     </defs>
     <g transform="translate(278.259063 267.148062)scale(0.1 -0.1)">
      <use xlink:href="#DejaVuSans-100"/>
      <use x="63.476562" xlink:href="#DejaVuSans-111"/>
      <use x="124.658203" xlink:href="#DejaVuSans-117"/>
      <use x="188.037109" xlink:href="#DejaVuSans-98"/>
      <use x="251.513672" xlink:href="#DejaVuSans-108"/>
      <use x="279.296875" xlink:href="#DejaVuSans-101"/>
      <use x="340.820312" xlink:href="#DejaVuSans-32"/>
      <use x="372.607422" xlink:href="#DejaVuSans-68"/>
      <use x="449.609375" xlink:href="#DejaVuSans-81"/>
      <use x="528.320312" xlink:href="#DejaVuSans-78"/>
     </g>
    </g>
    <g id="line2d_33">
     <path d="M 250.259062 278.326187 
L 270.259063 278.326187 
" style="fill:none;stroke:#7a68a6;stroke-linecap:square;stroke-width:2;"/>
    </g>
    <g id="line2d_34"/>
    <g id="text_18">
     <!-- double DQN - soft update -->
     <defs>
      <path d="M 37.109375 75.984375 
L 37.109375 68.5 
L 28.515625 68.5 
Q 23.6875 68.5 21.796875 66.546875 
Q 19.921875 64.59375 19.921875 59.515625 
L 19.921875 54.6875 
L 34.71875 54.6875 
L 34.71875 47.703125 
L 19.921875 47.703125 
L 19.921875 0 
L 10.890625 0 
L 10.890625 47.703125 
L 2.296875 47.703125 
L 2.296875 54.6875 
L 10.890625 54.6875 
L 10.890625 58.5 
Q 10.890625 67.625 15.140625 71.796875 
Q 19.390625 75.984375 28.609375 75.984375 
z
" id="DejaVuSans-102"/>
     </defs>
     <g transform="translate(278.259063 281.826187)scale(0.1 -0.1)">
      <use xlink:href="#DejaVuSans-100"/>
      <use x="63.476562" xlink:href="#DejaVuSans-111"/>
      <use x="124.658203" xlink:href="#DejaVuSans-117"/>
      <use x="188.037109" xlink:href="#DejaVuSans-98"/>
      <use x="251.513672" xlink:href="#DejaVuSans-108"/>
      <use x="279.296875" xlink:href="#DejaVuSans-101"/>
      <use x="340.820312" xlink:href="#DejaVuSans-32"/>
      <use x="372.607422" xlink:href="#DejaVuSans-68"/>
      <use x="449.609375" xlink:href="#DejaVuSans-81"/>
      <use x="528.320312" xlink:href="#DejaVuSans-78"/>
      <use x="603.125" xlink:href="#DejaVuSans-32"/>
      <use x="634.912109" xlink:href="#DejaVuSans-45"/>
      <use x="670.996094" xlink:href="#DejaVuSans-32"/>
      <use x="702.783203" xlink:href="#DejaVuSans-115"/>
      <use x="754.882812" xlink:href="#DejaVuSans-111"/>
      <use x="816.064453" xlink:href="#DejaVuSans-102"/>
      <use x="851.253906" xlink:href="#DejaVuSans-116"/>
      <use x="890.462891" xlink:href="#DejaVuSans-32"/>
      <use x="922.25" xlink:href="#DejaVuSans-117"/>
      <use x="985.628906" xlink:href="#DejaVuSans-112"/>
      <use x="1049.105469" xlink:href="#DejaVuSans-100"/>
      <use x="1112.582031" xlink:href="#DejaVuSans-97"/>
      <use x="1173.861328" xlink:href="#DejaVuSans-116"/>
      <use x="1213.070312" xlink:href="#DejaVuSans-101"/>
     </g>
    </g>
    <g id="line2d_35">
     <path d="M 250.259062 293.004312 
L 270.259063 293.004312 
" style="fill:none;stroke:#467821;stroke-linecap:square;stroke-width:2;"/>
    </g>
    <g id="line2d_36"/>
    <g id="text_19">
     <!-- double DQN - su - PER -->
     <defs>
      <path d="M 9.8125 72.90625 
L 55.90625 72.90625 
L 55.90625 64.59375 
L 19.671875 64.59375 
L 19.671875 43.015625 
L 54.390625 43.015625 
L 54.390625 34.71875 
L 19.671875 34.71875 
L 19.671875 8.296875 
L 56.78125 8.296875 
L 56.78125 0 
L 9.8125 0 
z
" id="DejaVuSans-69"/>
      <path d="M 44.390625 34.1875 
Q 47.5625 33.109375 50.5625 29.59375 
Q 53.5625 26.078125 56.59375 19.921875 
L 66.609375 0 
L 56 0 
L 46.6875 18.703125 
Q 43.0625 26.03125 39.671875 28.421875 
Q 36.28125 30.8125 30.421875 30.8125 
L 19.671875 30.8125 
L 19.671875 0 
L 9.8125 0 
L 9.8125 72.90625 
L 32.078125 72.90625 
Q 44.578125 72.90625 50.734375 67.671875 
Q 56.890625 62.453125 56.890625 51.90625 
Q 56.890625 45.015625 53.6875 40.46875 
Q 50.484375 35.9375 44.390625 34.1875 
z
M 19.671875 64.796875 
L 19.671875 38.921875 
L 32.078125 38.921875 
Q 39.203125 38.921875 42.84375 42.21875 
Q 46.484375 45.515625 46.484375 51.90625 
Q 46.484375 58.296875 42.84375 61.546875 
Q 39.203125 64.796875 32.078125 64.796875 
z
" id="DejaVuSans-82"/>
     </defs>
     <g transform="translate(278.259063 296.504312)scale(0.1 -0.1)">
      <use xlink:href="#DejaVuSans-100"/>
      <use x="63.476562" xlink:href="#DejaVuSans-111"/>
      <use x="124.658203" xlink:href="#DejaVuSans-117"/>
      <use x="188.037109" xlink:href="#DejaVuSans-98"/>
      <use x="251.513672" xlink:href="#DejaVuSans-108"/>
      <use x="279.296875" xlink:href="#DejaVuSans-101"/>
      <use x="340.820312" xlink:href="#DejaVuSans-32"/>
      <use x="372.607422" xlink:href="#DejaVuSans-68"/>
      <use x="449.609375" xlink:href="#DejaVuSans-81"/>
      <use x="528.320312" xlink:href="#DejaVuSans-78"/>
      <use x="603.125" xlink:href="#DejaVuSans-32"/>
      <use x="634.912109" xlink:href="#DejaVuSans-45"/>
      <use x="670.996094" xlink:href="#DejaVuSans-32"/>
      <use x="702.783203" xlink:href="#DejaVuSans-115"/>
      <use x="754.882812" xlink:href="#DejaVuSans-117"/>
      <use x="818.261719" xlink:href="#DejaVuSans-32"/>
      <use x="850.048828" xlink:href="#DejaVuSans-45"/>
      <use x="886.132812" xlink:href="#DejaVuSans-32"/>
      <use x="917.919922" xlink:href="#DejaVuSans-80"/>
      <use x="978.222656" xlink:href="#DejaVuSans-69"/>
      <use x="1041.40625" xlink:href="#DejaVuSans-82"/>
     </g>
    </g>
   </g>
  </g>
 </g>
 <defs>
  <clipPath id="p8aaa2d7906">
   <rect height="266.112" width="357.12" x="57.6" y="41.472"/>
  </clipPath>
 </defs>
</svg>
