<?xml version="1.0" encoding="utf-8" standalone="no"?>
<!DOCTYPE svg PUBLIC "-//W3C//DTD SVG 1.1//EN"
  "http://www.w3.org/Graphics/SVG/1.1/DTD/svg11.dtd">
<!-- Created with matplotlib (https://matplotlib.org/) -->
<svg height="345.6pt" version="1.1" viewBox="0 0 460.8 345.6" width="460.8pt" xmlns="http://www.w3.org/2000/svg" xmlns:xlink="http://www.w3.org/1999/xlink">
 <defs>
  <style type="text/css">
*{stroke-linecap:butt;stroke-linejoin:round;}
  </style>
 </defs>
 <g id="figure_1">
  <g id="patch_1">
   <path d="M 0 345.6 
L 460.8 345.6 
L 460.8 0 
L 0 0 
z
" style="fill:#ffffff;"/>
  </g>
  <g id="axes_1">
   <g id="patch_2">
    <path d="M 45.12 306.42 
L 403.08 306.42 
L 403.08 10.8 
L 45.12 10.8 
z
" style="fill:#eeeeee;"/>
   </g>
   <g id="matplotlib.axis_1">
    <g id="xtick_1">
     <g id="line2d_1">
      <path clip-path="url(#pc3169c5d33)" d="M 61.390909 306.42 
L 61.390909 10.8 
" style="fill:none;stroke:#b2b2b2;stroke-dasharray:1.85,0.8;stroke-dashoffset:0;stroke-width:0.5;"/>
     </g>
     <g id="line2d_2">
      <defs>
       <path d="M 0 0 
L 0 -3.5 
" id="me7be12010d" style="stroke:#000000;stroke-width:0.8;"/>
      </defs>
      <g>
       <use style="stroke:#000000;stroke-width:0.8;" x="61.390909" xlink:href="#me7be12010d" y="306.42"/>
      </g>
     </g>
     <g id="text_1">
      <!-- 0.0 -->
      <defs>
       <path d="M 31.84375 73.828125 
Q 45.015625 73.828125 52.09375 61.625 
Q 57.71875 51.953125 57.71875 36.625 
Q 57.71875 21.4375 52.09375 11.578125 
Q 45.125 -0.484375 31.5 -0.484375 
Q 17.921875 -0.484375 10.9375 11.578125 
Q 5.328125 21.4375 5.328125 36.71875 
Q 5.328125 58.015625 15.625 67.71875 
Q 22.171875 73.828125 31.84375 73.828125 
z
M 31.5 66.609375 
Q 23.6875 66.609375 19.1875 58.6875 
Q 14.59375 50.6875 14.59375 36.578125 
Q 14.59375 22.75 19.09375 14.796875 
Q 23.640625 6.984375 31.5 6.984375 
Q 40.921875 6.984375 45.453125 17.96875 
Q 48.4375 25.34375 48.4375 37.109375 
Q 48.4375 50.828125 43.84375 58.6875 
Q 39.203125 66.609375 31.5 66.609375 
z
" id="IPAPGothic-48"/>
       <path d="M 18.5 0.984375 
L 7.71875 0.984375 
L 7.71875 11.765625 
L 18.5 11.765625 
z
" id="IPAPGothic-46"/>
      </defs>
      <g transform="translate(53.771378 317.410625)scale(0.1 -0.1)">
       <use xlink:href="#IPAPGothic-48"/>
       <use x="62.988281" xlink:href="#IPAPGothic-46"/>
       <use x="89.404297" xlink:href="#IPAPGothic-48"/>
      </g>
     </g>
    </g>
    <g id="xtick_2">
     <g id="line2d_3">
      <path clip-path="url(#pc3169c5d33)" d="M 104.209091 306.42 
L 104.209091 10.8 
" style="fill:none;stroke:#b2b2b2;stroke-dasharray:1.85,0.8;stroke-dashoffset:0;stroke-width:0.5;"/>
     </g>
     <g id="line2d_4">
      <g>
       <use style="stroke:#000000;stroke-width:0.8;" x="104.209091" xlink:href="#me7be12010d" y="306.42"/>
      </g>
     </g>
     <g id="text_2">
      <!-- 2.5 -->
      <defs>
       <path d="M 57.171875 0.984375 
L 6.984375 0.984375 
L 6.984375 9.28125 
Q 12.890625 23.046875 29.59375 34.421875 
L 32.375 36.28125 
Q 40.921875 42.140625 43.609375 45.40625 
Q 46.6875 49.21875 46.6875 53.8125 
Q 46.6875 58.890625 43.0625 62.5 
Q 39.0625 66.5 32.5625 66.5 
Q 19.53125 66.5 15.484375 52 
L 7.765625 54.78125 
Q 13.328125 73.828125 33.0625 73.828125 
Q 43.84375 73.828125 50.25 67.4375 
Q 55.859375 61.671875 55.859375 53.515625 
Q 55.859375 47.46875 52.25 42.53125 
Q 48.921875 37.75 36.96875 30.28125 
L 34.859375 29 
Q 19.625 19.578125 15.28125 8.890625 
L 57.171875 8.890625 
z
" id="IPAPGothic-50"/>
       <path d="M 18.40625 40.671875 
Q 25.53125 46.296875 33.9375 46.296875 
Q 44 46.296875 50.640625 39.5 
Q 56.84375 33.015625 56.84375 23.390625 
Q 56.84375 14.65625 51.515625 8.015625 
Q 44.828125 -0.484375 31.734375 -0.484375 
Q 14.984375 -0.484375 7.328125 12.25 
L 14.65625 16.0625 
Q 20.453125 6.78125 31.453125 6.78125 
Q 38.53125 6.78125 43.265625 11.1875 
Q 48.140625 15.828125 48.140625 23.484375 
Q 48.140625 30.71875 43.84375 35.015625 
Q 39.359375 39.5 32.125 39.5 
Q 21.96875 39.5 16.75 31.6875 
L 9.234375 32.671875 
L 13.8125 72.40625 
L 53.21875 72.40625 
L 53.21875 64.890625 
L 20.953125 64.890625 
L 17.71875 40.671875 
z
" id="IPAPGothic-53"/>
      </defs>
      <g transform="translate(96.58956 317.410625)scale(0.1 -0.1)">
       <use xlink:href="#IPAPGothic-50"/>
       <use x="62.988281" xlink:href="#IPAPGothic-46"/>
       <use x="89.404297" xlink:href="#IPAPGothic-53"/>
      </g>
     </g>
    </g>
    <g id="xtick_3">
     <g id="line2d_5">
      <path clip-path="url(#pc3169c5d33)" d="M 147.027273 306.42 
L 147.027273 10.8 
" style="fill:none;stroke:#b2b2b2;stroke-dasharray:1.85,0.8;stroke-dashoffset:0;stroke-width:0.5;"/>
     </g>
     <g id="line2d_6">
      <g>
       <use style="stroke:#000000;stroke-width:0.8;" x="147.027273" xlink:href="#me7be12010d" y="306.42"/>
      </g>
     </g>
     <g id="text_3">
      <!-- 5.0 -->
      <g transform="translate(139.407741 317.410625)scale(0.1 -0.1)">
       <use xlink:href="#IPAPGothic-53"/>
       <use x="62.988281" xlink:href="#IPAPGothic-46"/>
       <use x="89.404297" xlink:href="#IPAPGothic-48"/>
      </g>
     </g>
    </g>
    <g id="xtick_4">
     <g id="line2d_7">
      <path clip-path="url(#pc3169c5d33)" d="M 189.845455 306.42 
L 189.845455 10.8 
" style="fill:none;stroke:#b2b2b2;stroke-dasharray:1.85,0.8;stroke-dashoffset:0;stroke-width:0.5;"/>
     </g>
     <g id="line2d_8">
      <g>
       <use style="stroke:#000000;stroke-width:0.8;" x="189.845455" xlink:href="#me7be12010d" y="306.42"/>
      </g>
     </g>
     <g id="text_4">
      <!-- 7.5 -->
      <defs>
       <path d="M 56.203125 66.609375 
Q 34.96875 32.90625 27.78125 0.984375 
L 17.671875 0.984375 
Q 24.75 28.71875 46.09375 64.5 
L 6.6875 64.5 
L 6.6875 72.40625 
L 56.203125 72.40625 
z
" id="IPAPGothic-55"/>
      </defs>
      <g transform="translate(182.225923 317.410625)scale(0.1 -0.1)">
       <use xlink:href="#IPAPGothic-55"/>
       <use x="62.988281" xlink:href="#IPAPGothic-46"/>
       <use x="89.404297" xlink:href="#IPAPGothic-53"/>
      </g>
     </g>
    </g>
    <g id="xtick_5">
     <g id="line2d_9">
      <path clip-path="url(#pc3169c5d33)" d="M 232.663636 306.42 
L 232.663636 10.8 
" style="fill:none;stroke:#b2b2b2;stroke-dasharray:1.85,0.8;stroke-dashoffset:0;stroke-width:0.5;"/>
     </g>
     <g id="line2d_10">
      <g>
       <use style="stroke:#000000;stroke-width:0.8;" x="232.663636" xlink:href="#me7be12010d" y="306.42"/>
      </g>
     </g>
     <g id="text_5">
      <!-- 10.0 -->
      <defs>
       <path d="M 38.484375 0.984375 
L 29.6875 0.984375 
L 29.6875 64.109375 
Q 21.4375 61.28125 12.3125 59.328125 
L 10.6875 66.109375 
Q 23.78125 69.390625 32.90625 73.875 
L 38.484375 73.875 
z
" id="IPAPGothic-49"/>
      </defs>
      <g transform="translate(221.894886 317.410625)scale(0.1 -0.1)">
       <use xlink:href="#IPAPGothic-49"/>
       <use x="62.988281" xlink:href="#IPAPGothic-48"/>
       <use x="125.976562" xlink:href="#IPAPGothic-46"/>
       <use x="152.392578" xlink:href="#IPAPGothic-48"/>
      </g>
     </g>
    </g>
    <g id="xtick_6">
     <g id="line2d_11">
      <path clip-path="url(#pc3169c5d33)" d="M 275.481818 306.42 
L 275.481818 10.8 
" style="fill:none;stroke:#b2b2b2;stroke-dasharray:1.85,0.8;stroke-dashoffset:0;stroke-width:0.5;"/>
     </g>
     <g id="line2d_12">
      <g>
       <use style="stroke:#000000;stroke-width:0.8;" x="275.481818" xlink:href="#me7be12010d" y="306.42"/>
      </g>
     </g>
     <g id="text_6">
      <!-- 12.5 -->
      <g transform="translate(264.713068 317.410625)scale(0.1 -0.1)">
       <use xlink:href="#IPAPGothic-49"/>
       <use x="62.988281" xlink:href="#IPAPGothic-50"/>
       <use x="125.976562" xlink:href="#IPAPGothic-46"/>
       <use x="152.392578" xlink:href="#IPAPGothic-53"/>
      </g>
     </g>
    </g>
    <g id="xtick_7">
     <g id="line2d_13">
      <path clip-path="url(#pc3169c5d33)" d="M 318.3 306.42 
L 318.3 10.8 
" style="fill:none;stroke:#b2b2b2;stroke-dasharray:1.85,0.8;stroke-dashoffset:0;stroke-width:0.5;"/>
     </g>
     <g id="line2d_14">
      <g>
       <use style="stroke:#000000;stroke-width:0.8;" x="318.3" xlink:href="#me7be12010d" y="306.42"/>
      </g>
     </g>
     <g id="text_7">
      <!-- 15.0 -->
      <g transform="translate(307.53125 317.410625)scale(0.1 -0.1)">
       <use xlink:href="#IPAPGothic-49"/>
       <use x="62.988281" xlink:href="#IPAPGothic-53"/>
       <use x="125.976562" xlink:href="#IPAPGothic-46"/>
       <use x="152.392578" xlink:href="#IPAPGothic-48"/>
      </g>
     </g>
    </g>
    <g id="xtick_8">
     <g id="line2d_15">
      <path clip-path="url(#pc3169c5d33)" d="M 361.118182 306.42 
L 361.118182 10.8 
" style="fill:none;stroke:#b2b2b2;stroke-dasharray:1.85,0.8;stroke-dashoffset:0;stroke-width:0.5;"/>
     </g>
     <g id="line2d_16">
      <g>
       <use style="stroke:#000000;stroke-width:0.8;" x="361.118182" xlink:href="#me7be12010d" y="306.42"/>
      </g>
     </g>
     <g id="text_8">
      <!-- 17.5 -->
      <g transform="translate(350.349432 317.410625)scale(0.1 -0.1)">
       <use xlink:href="#IPAPGothic-49"/>
       <use x="62.988281" xlink:href="#IPAPGothic-55"/>
       <use x="125.976562" xlink:href="#IPAPGothic-46"/>
       <use x="152.392578" xlink:href="#IPAPGothic-53"/>
      </g>
     </g>
    </g>
    <g id="text_9">
     <!-- epoch -->
     <defs>
      <path d="M 13.484375 24.90625 
Q 13.921875 16.265625 18.890625 11.28125 
Q 23.96875 6.203125 31.203125 6.203125 
Q 40.71875 6.203125 46.296875 15.09375 
L 51.90625 11.375 
Q 44.828125 -0.484375 30.171875 -0.484375 
Q 19.09375 -0.484375 11.96875 6.59375 
Q 4.78125 13.8125 4.78125 25.640625 
Q 4.78125 38.1875 12.3125 45.703125 
Q 19 52.390625 29 52.390625 
Q 38.421875 52.390625 44.78125 46.1875 
Q 51.90625 38.96875 51.90625 26.90625 
L 51.90625 24.90625 
z
M 43.0625 31.203125 
Q 42.328125 37.984375 38.28125 41.890625 
Q 34.28125 45.90625 28.8125 45.90625 
Q 22.46875 45.90625 17.96875 40.484375 
Q 14.890625 36.8125 13.96875 31.203125 
z
" id="IPAPGothic-101"/>
      <path d="M 16.796875 42 
Q 23.828125 52.203125 34.46875 52.203125 
Q 43.265625 52.203125 49.5625 45.90625 
Q 56.890625 38.578125 56.890625 25.6875 
Q 56.890625 13.140625 49.65625 5.8125 
Q 43.359375 -0.484375 34.375 -0.484375 
Q 24.515625 -0.484375 17.28125 7.765625 
L 17.28125 -19 
L 8.796875 -19 
L 8.796875 50.78125 
L 16.796875 50.78125 
z
M 17.28125 30.46875 
L 17.28125 20.171875 
Q 17.28125 14.015625 23.6875 9.375 
Q 27.984375 6.296875 32.90625 6.296875 
Q 38.578125 6.296875 42.578125 10.296875 
Q 47.90625 15.578125 47.90625 25.484375 
Q 47.90625 34.375 43.5 39.984375 
Q 39.109375 45.3125 32.8125 45.3125 
Q 25.875 45.3125 20.90625 38.8125 
Q 17.28125 34.125 17.28125 30.46875 
z
" id="IPAPGothic-112"/>
      <path d="M 29.984375 52.203125 
Q 40.53125 52.203125 47.75 45.125 
Q 55.171875 37.703125 55.171875 25.59375 
Q 55.171875 13.921875 47.90625 6.59375 
Q 40.765625 -0.484375 29.984375 -0.484375 
Q 19.1875 -0.484375 12.203125 6.5 
Q 4.890625 13.8125 4.890625 25.875 
Q 4.890625 37.703125 12.3125 45.125 
Q 19.390625 52.203125 29.984375 52.203125 
z
M 29.984375 45.609375 
Q 23.734375 45.609375 19.390625 41.109375 
Q 13.875 35.59375 13.875 25.78125 
Q 13.875 16.109375 19.28125 10.6875 
Q 23.6875 6.296875 29.984375 6.296875 
Q 36.421875 6.296875 40.765625 10.796875 
Q 46.1875 16.21875 46.1875 26.125 
Q 46.1875 35.453125 40.671875 41.109375 
Q 36.1875 45.609375 29.984375 45.609375 
z
" id="IPAPGothic-111"/>
      <path d="M 51.078125 12.25 
Q 44.28125 -0.484375 29.6875 -0.484375 
Q 19.1875 -0.484375 12.3125 6.390625 
Q 4.890625 13.921875 4.890625 25.984375 
Q 4.890625 37.9375 12.3125 45.515625 
Q 19.09375 52.296875 29.390625 52.296875 
Q 43.953125 52.296875 50.09375 39.703125 
L 43.171875 36.078125 
Q 38.8125 45.3125 29.6875 45.3125 
Q 23.6875 45.3125 19.28125 40.921875 
Q 13.765625 35.40625 13.765625 25.78125 
Q 13.765625 16.703125 19.09375 11.375 
Q 23.78125 6.6875 30.5625 6.6875 
Q 39.796875 6.6875 44.484375 15.875 
z
" id="IPAPGothic-99"/>
      <path d="M 52.296875 0.984375 
L 43.703125 0.984375 
L 43.703125 31.890625 
Q 43.703125 44.578125 33.296875 44.578125 
Q 22.609375 44.578125 17.671875 31.890625 
L 17.671875 0.984375 
L 9.078125 0.984375 
L 9.078125 74.90625 
L 17.671875 74.90625 
L 17.671875 42.28125 
Q 24.46875 51.765625 35.109375 51.765625 
Q 52.296875 51.765625 52.296875 32.375 
z
" id="IPAPGothic-104"/>
     </defs>
     <g transform="translate(206.430938 332.299375)scale(0.12 -0.12)">
      <use xlink:href="#IPAPGothic-101"/>
      <use x="56.884766" xlink:href="#IPAPGothic-112"/>
      <use x="118.994141" xlink:href="#IPAPGothic-111"/>
      <use x="179.394531" xlink:href="#IPAPGothic-99"/>
      <use x="233.789062" xlink:href="#IPAPGothic-104"/>
     </g>
    </g>
   </g>
   <g id="matplotlib.axis_2">
    <g id="ytick_1">
     <g id="line2d_17">
      <path clip-path="url(#pc3169c5d33)" d="M 45.12 269.088289 
L 403.08 269.088289 
" style="fill:none;stroke:#b2b2b2;stroke-dasharray:1.85,0.8;stroke-dashoffset:0;stroke-width:0.5;"/>
     </g>
     <g id="line2d_18">
      <defs>
       <path d="M 0 0 
L 3.5 0 
" id="md8592685ea" style="stroke:#000000;stroke-width:0.8;"/>
      </defs>
      <g>
       <use style="stroke:#000000;stroke-width:0.8;" x="45.12" xlink:href="#md8592685ea" y="269.088289"/>
      </g>
     </g>
     <g id="text_10">
      <!-- 0.2 -->
      <g style="fill:#0000ff;" transform="translate(26.380938 272.833602)scale(0.1 -0.1)">
       <use xlink:href="#IPAPGothic-48"/>
       <use x="62.988281" xlink:href="#IPAPGothic-46"/>
       <use x="89.404297" xlink:href="#IPAPGothic-50"/>
      </g>
     </g>
    </g>
    <g id="ytick_2">
     <g id="line2d_19">
      <path clip-path="url(#pc3169c5d33)" d="M 45.12 230.719542 
L 403.08 230.719542 
" style="fill:none;stroke:#b2b2b2;stroke-dasharray:1.85,0.8;stroke-dashoffset:0;stroke-width:0.5;"/>
     </g>
     <g id="line2d_20">
      <g>
       <use style="stroke:#000000;stroke-width:0.8;" x="45.12" xlink:href="#md8592685ea" y="230.719542"/>
      </g>
     </g>
     <g id="text_11">
      <!-- 0.3 -->
      <defs>
       <path d="M 37.203125 37.796875 
Q 54.78125 34.671875 54.78125 20.015625 
Q 54.78125 11.1875 48.875 5.609375 
Q 42.328125 -0.484375 30.375 -0.484375 
Q 12.453125 -0.484375 4.5 13.765625 
L 11.8125 17.671875 
Q 17.328125 6.890625 30.28125 6.890625 
Q 37.890625 6.890625 42.09375 10.796875 
Q 46.09375 14.5 46.09375 20.21875 
Q 46.09375 26.859375 40.09375 30.90625 
Q 34.625 34.625 25.6875 34.625 
L 21.296875 34.625 
L 21.296875 41.703125 
L 25.875 41.703125 
Q 34.859375 41.703125 39.59375 45.125 
Q 44.671875 48.734375 44.671875 54.828125 
Q 44.671875 61.46875 38.96875 64.65625 
Q 35.296875 66.84375 30.171875 66.84375 
Q 19.28125 66.84375 14.109375 55.90625 
L 6.78125 59.421875 
Q 13.96875 73.828125 30.28125 73.828125 
Q 40.578125 73.828125 46.96875 68.609375 
Q 53.375 63.578125 53.375 55.21875 
Q 53.375 47.3125 47.171875 42.28125 
Q 43.171875 39.0625 37.203125 38.1875 
z
" id="IPAPGothic-51"/>
      </defs>
      <g style="fill:#0000ff;" transform="translate(26.380938 234.464855)scale(0.1 -0.1)">
       <use xlink:href="#IPAPGothic-48"/>
       <use x="62.988281" xlink:href="#IPAPGothic-46"/>
       <use x="89.404297" xlink:href="#IPAPGothic-51"/>
      </g>
     </g>
    </g>
    <g id="ytick_3">
     <g id="line2d_21">
      <path clip-path="url(#pc3169c5d33)" d="M 45.12 192.350795 
L 403.08 192.350795 
" style="fill:none;stroke:#b2b2b2;stroke-dasharray:1.85,0.8;stroke-dashoffset:0;stroke-width:0.5;"/>
     </g>
     <g id="line2d_22">
      <g>
       <use style="stroke:#000000;stroke-width:0.8;" x="45.12" xlink:href="#md8592685ea" y="192.350795"/>
      </g>
     </g>
     <g id="text_12">
      <!-- 0.4 -->
      <defs>
       <path d="M 59.578125 18.109375 
L 47.75 18.109375 
L 47.75 0.984375 
L 39.75 0.984375 
L 39.75 18.109375 
L 3.078125 18.109375 
L 3.078125 26.125 
L 38.328125 73.09375 
L 47.75 73.09375 
L 47.75 25.53125 
L 59.578125 25.53125 
z
M 40.234375 64.203125 
L 39.9375 64.203125 
Q 35.59375 57.171875 31.25 51.3125 
L 11.859375 25.53125 
L 39.75 25.53125 
L 39.75 49.125 
Q 39.75 54.25 40.234375 64.203125 
z
" id="IPAPGothic-52"/>
      </defs>
      <g style="fill:#0000ff;" transform="translate(26.380938 196.096108)scale(0.1 -0.1)">
       <use xlink:href="#IPAPGothic-48"/>
       <use x="62.988281" xlink:href="#IPAPGothic-46"/>
       <use x="89.404297" xlink:href="#IPAPGothic-52"/>
      </g>
     </g>
    </g>
    <g id="ytick_4">
     <g id="line2d_23">
      <path clip-path="url(#pc3169c5d33)" d="M 45.12 153.982048 
L 403.08 153.982048 
" style="fill:none;stroke:#b2b2b2;stroke-dasharray:1.85,0.8;stroke-dashoffset:0;stroke-width:0.5;"/>
     </g>
     <g id="line2d_24">
      <g>
       <use style="stroke:#000000;stroke-width:0.8;" x="45.12" xlink:href="#md8592685ea" y="153.982048"/>
      </g>
     </g>
     <g id="text_13">
      <!-- 0.5 -->
      <g style="fill:#0000ff;" transform="translate(26.380938 157.727361)scale(0.1 -0.1)">
       <use xlink:href="#IPAPGothic-48"/>
       <use x="62.988281" xlink:href="#IPAPGothic-46"/>
       <use x="89.404297" xlink:href="#IPAPGothic-53"/>
      </g>
     </g>
    </g>
    <g id="ytick_5">
     <g id="line2d_25">
      <path clip-path="url(#pc3169c5d33)" d="M 45.12 115.613301 
L 403.08 115.613301 
" style="fill:none;stroke:#b2b2b2;stroke-dasharray:1.85,0.8;stroke-dashoffset:0;stroke-width:0.5;"/>
     </g>
     <g id="line2d_26">
      <g>
       <use style="stroke:#000000;stroke-width:0.8;" x="45.12" xlink:href="#md8592685ea" y="115.613301"/>
      </g>
     </g>
     <g id="text_14">
      <!-- 0.6 -->
      <defs>
       <path d="M 16.5 36.375 
Q 23.578125 46.578125 34.90625 46.578125 
Q 45.40625 46.578125 51.8125 39.265625 
Q 57.421875 32.90625 57.421875 23.78125 
Q 57.421875 13.8125 51.125 6.78125 
Q 44.578125 -0.484375 34.03125 -0.484375 
Q 21.484375 -0.484375 14.40625 9.078125 
Q 7.515625 18.40625 7.515625 34.8125 
Q 7.515625 53.515625 15.828125 64.203125 
Q 23.34375 73.828125 35.5 73.828125 
Q 49.859375 73.828125 56.390625 62.890625 
L 49.21875 58.984375 
Q 45.21875 66.609375 35.9375 66.609375 
Q 17.484375 66.609375 16.109375 36.375 
z
M 33.453125 39.796875 
Q 26.3125 39.796875 21.625 34.46875 
Q 17.4375 29.6875 17.4375 24.078125 
Q 17.4375 18.0625 21.140625 13.1875 
Q 26.125 6.6875 33.734375 6.6875 
Q 41.703125 6.6875 45.953125 13.1875 
Q 48.828125 17.625 48.828125 23.484375 
Q 48.828125 30.375 45.015625 34.8125 
Q 40.625 39.796875 33.453125 39.796875 
z
" id="IPAPGothic-54"/>
      </defs>
      <g style="fill:#0000ff;" transform="translate(26.380938 119.358613)scale(0.1 -0.1)">
       <use xlink:href="#IPAPGothic-48"/>
       <use x="62.988281" xlink:href="#IPAPGothic-46"/>
       <use x="89.404297" xlink:href="#IPAPGothic-54"/>
      </g>
     </g>
    </g>
    <g id="ytick_6">
     <g id="line2d_27">
      <path clip-path="url(#pc3169c5d33)" d="M 45.12 77.244554 
L 403.08 77.244554 
" style="fill:none;stroke:#b2b2b2;stroke-dasharray:1.85,0.8;stroke-dashoffset:0;stroke-width:0.5;"/>
     </g>
     <g id="line2d_28">
      <g>
       <use style="stroke:#000000;stroke-width:0.8;" x="45.12" xlink:href="#md8592685ea" y="77.244554"/>
      </g>
     </g>
     <g id="text_15">
      <!-- 0.7 -->
      <g style="fill:#0000ff;" transform="translate(26.380938 80.989866)scale(0.1 -0.1)">
       <use xlink:href="#IPAPGothic-48"/>
       <use x="62.988281" xlink:href="#IPAPGothic-46"/>
       <use x="89.404297" xlink:href="#IPAPGothic-55"/>
      </g>
     </g>
    </g>
    <g id="ytick_7">
     <g id="line2d_29">
      <path clip-path="url(#pc3169c5d33)" d="M 45.12 38.875807 
L 403.08 38.875807 
" style="fill:none;stroke:#b2b2b2;stroke-dasharray:1.85,0.8;stroke-dashoffset:0;stroke-width:0.5;"/>
     </g>
     <g id="line2d_30">
      <g>
       <use style="stroke:#000000;stroke-width:0.8;" x="45.12" xlink:href="#md8592685ea" y="38.875807"/>
      </g>
     </g>
     <g id="text_16">
      <!-- 0.8 -->
      <defs>
       <path d="M 39.703125 37.890625 
Q 57.8125 31.734375 57.8125 18.703125 
Q 57.8125 8.453125 48.4375 3.078125 
Q 41.609375 -0.875 31.5 -0.875 
Q 21.34375 -0.875 14.5 3.078125 
Q 5.421875 8.296875 5.421875 18.40625 
Q 5.421875 31.0625 22.015625 37.203125 
L 22.015625 37.5 
Q 7.515625 42.71875 7.515625 54.78125 
Q 7.515625 64.0625 15.328125 69.625 
Q 21.96875 74.3125 31.546875 74.3125 
Q 42.234375 74.3125 48.921875 68.796875 
Q 55.515625 63.578125 55.515625 55.71875 
Q 55.515625 42.28125 39.703125 38.1875 
z
M 31.640625 41.015625 
Q 46.828125 44.625 46.828125 55.125 
Q 46.828125 61.1875 41.796875 64.84375 
Q 37.703125 67.921875 31.5 67.921875 
Q 25.09375 67.921875 20.796875 64.5 
Q 16.40625 60.890625 16.40625 54.984375 
Q 16.40625 49.171875 21.140625 45.703125 
Q 23.34375 43.890625 26.90625 42.484375 
Q 30.609375 40.96875 31.5 40.96875 
Q 31.546875 40.96875 31.640625 41.015625 
z
M 30.90625 34.46875 
Q 14.40625 30.125 14.40625 19 
Q 14.40625 12.109375 20.515625 8.6875 
Q 25.09375 6.109375 31.390625 6.109375 
Q 40.234375 6.109375 45.015625 10.890625 
Q 48.53125 14.40625 48.53125 19.484375 
Q 48.53125 24.859375 43.609375 28.859375 
Q 40.765625 31.109375 36.71875 32.765625 
Q 32.375 34.46875 31.109375 34.46875 
Q 31 34.46875 30.90625 34.46875 
z
" id="IPAPGothic-56"/>
      </defs>
      <g style="fill:#0000ff;" transform="translate(26.380938 42.621119)scale(0.1 -0.1)">
       <use xlink:href="#IPAPGothic-48"/>
       <use x="62.988281" xlink:href="#IPAPGothic-46"/>
       <use x="89.404297" xlink:href="#IPAPGothic-56"/>
      </g>
     </g>
    </g>
    <g id="text_17">
     <!-- loss -->
     <defs>
      <path d="M 17.671875 0.984375 
L 9.078125 0.984375 
L 9.078125 74.90625 
L 17.671875 74.90625 
z
" id="IPAPGothic-108"/>
      <path d="M 34.90625 39.796875 
Q 30.28125 45.796875 23.1875 45.796875 
Q 13.921875 45.796875 13.921875 38.671875 
Q 13.921875 33.640625 23.921875 30.375 
L 27.203125 29.296875 
Q 41.40625 24.65625 41.40625 13.96875 
Q 41.40625 6.78125 35.5 2.6875 
Q 30.8125 -0.484375 23.390625 -0.484375 
Q 11.96875 -0.484375 4 7.859375 
L 9.421875 12.796875 
Q 15.578125 6.203125 23.6875 6.203125 
Q 33.296875 6.203125 33.296875 13.671875 
Q 33.296875 19.34375 22.703125 23.09375 
L 19.28125 24.265625 
Q 5.90625 28.953125 5.90625 37.984375 
Q 5.90625 43.703125 9.8125 47.609375 
Q 14.5 52.296875 22.703125 52.296875 
Q 33.6875 52.296875 40.71875 44.671875 
z
" id="IPAPGothic-115"/>
     </defs>
     <g style="fill:#0000ff;" transform="translate(20.100938 169.396875)rotate(-90)scale(0.12 -0.12)">
      <use xlink:href="#IPAPGothic-108"/>
      <use x="27.001953" xlink:href="#IPAPGothic-111"/>
      <use x="87.402344" xlink:href="#IPAPGothic-115"/>
      <use x="133.59375" xlink:href="#IPAPGothic-115"/>
     </g>
    </g>
   </g>
   <g id="line2d_31">
    <path clip-path="url(#pc3169c5d33)" d="M 61.390909 24.237273 
L 78.518182 187.968925 
L 95.645455 222.454857 
L 112.772727 239.577163 
L 129.9 250.595151 
L 147.027273 257.78475 
L 164.154545 262.938343 
L 181.281818 266.296657 
L 198.409091 268.494092 
L 215.536364 271.312984 
L 232.663636 272.208952 
L 249.790909 287.290617 
L 266.918182 290.023641 
L 284.045455 290.412305 
L 301.172727 290.965814 
L 318.3 290.466249 
L 335.427273 292.503889 
L 352.554545 292.366941 
L 369.681818 292.689881 
L 386.809091 292.982727 
" style="fill:none;stroke:#0000ff;stroke-linecap:square;stroke-width:2;"/>
   </g>
   <g id="line2d_32">
    <path clip-path="url(#pc3169c5d33)" d="M 61.390909 112.529887 
L 78.518182 167.882358 
L 95.645455 188.993498 
L 112.772727 197.21958 
L 129.9 200.185908 
L 147.027273 211.660637 
L 164.154545 217.8196 
L 181.281818 218.573109 
L 198.409091 217.275248 
L 215.536364 213.791912 
L 232.663636 216.002636 
L 249.790909 227.606711 
L 266.918182 233.208325 
L 284.045455 230.80876 
L 301.172727 232.945619 
L 318.3 228.78711 
L 335.427273 231.476343 
L 352.554545 233.948748 
L 369.681818 231.798973 
L 386.809091 231.708209 
" style="fill:none;stroke:#0000ff;stroke-dasharray:7.4,3.2;stroke-dashoffset:0;stroke-width:2;"/>
   </g>
   <g id="patch_3">
    <path d="M 45.12 306.42 
L 45.12 10.8 
" style="fill:none;stroke:#bcbcbc;stroke-linecap:square;stroke-linejoin:miter;stroke-width:0.8;"/>
   </g>
   <g id="patch_4">
    <path d="M 403.08 306.42 
L 403.08 10.8 
" style="fill:none;stroke:#bcbcbc;stroke-linecap:square;stroke-linejoin:miter;stroke-width:0.8;"/>
   </g>
   <g id="patch_5">
    <path d="M 45.12 306.42 
L 403.08 306.42 
" style="fill:none;stroke:#bcbcbc;stroke-linecap:square;stroke-linejoin:miter;stroke-width:0.8;"/>
   </g>
   <g id="patch_6">
    <path d="M 45.12 10.8 
L 403.08 10.8 
" style="fill:none;stroke:#bcbcbc;stroke-linecap:square;stroke-linejoin:miter;stroke-width:0.8;"/>
   </g>
   <g id="legend_1">
    <g id="patch_7">
     <path d="M 328.045625 144.938625 
L 396.08 144.938625 
Q 398.08 144.938625 398.08 142.938625 
L 398.08 115.157375 
Q 398.08 113.157375 396.08 113.157375 
L 328.045625 113.157375 
Q 326.045625 113.157375 326.045625 115.157375 
L 326.045625 142.938625 
Q 326.045625 144.938625 328.045625 144.938625 
z
" style="fill:#eeeeee;opacity:0.8;stroke:#cccccc;stroke-linejoin:miter;stroke-width:0.5;"/>
    </g>
    <g id="line2d_33">
     <path d="M 330.045625 121.148 
L 350.045625 121.148 
" style="fill:none;stroke:#0000ff;stroke-linecap:square;stroke-width:2;"/>
    </g>
    <g id="line2d_34"/>
    <g id="text_18">
     <!-- loss -->
     <g transform="translate(358.045625 124.648)scale(0.1 -0.1)">
      <use xlink:href="#IPAPGothic-108"/>
      <use x="27.001953" xlink:href="#IPAPGothic-111"/>
      <use x="87.402344" xlink:href="#IPAPGothic-115"/>
      <use x="133.59375" xlink:href="#IPAPGothic-115"/>
     </g>
    </g>
    <g id="line2d_35">
     <path d="M 330.045625 135.538625 
L 350.045625 135.538625 
" style="fill:none;stroke:#0000ff;stroke-dasharray:7.4,3.2;stroke-dashoffset:0;stroke-width:2;"/>
    </g>
    <g id="line2d_36"/>
    <g id="text_19">
     <!-- val_loss -->
     <defs>
      <path d="M 48.484375 50.78125 
L 27.296875 0.09375 
L 21.484375 0.09375 
L 0.390625 50.78125 
L 9.8125 50.78125 
L 20.90625 21.6875 
L 23.78125 13.1875 
L 24.515625 10.984375 
L 24.8125 10.984375 
Q 25.640625 13.8125 28.46875 21.6875 
L 39.3125 50.78125 
z
" id="IPAPGothic-118"/>
      <path d="M 49.3125 0.984375 
L 41.703125 0.984375 
Q 39.984375 4.734375 39.5 8.6875 
L 39.203125 8.6875 
Q 33.546875 -0.390625 22.3125 -0.390625 
Q 14.59375 -0.390625 9.71875 4.5 
Q 5.421875 8.796875 5.421875 14.984375 
Q 5.421875 30.421875 32.03125 31.203125 
L 38.71875 31.390625 
L 38.71875 33.984375 
Q 38.71875 39.203125 35.6875 42.1875 
Q 32.625 45.3125 27.734375 45.3125 
Q 19.34375 45.3125 15.140625 37.15625 
L 7.71875 40.578125 
Q 14.59375 52 27.9375 52 
Q 37.0625 52 42.046875 46.875 
Q 46.625 42.28125 46.625 33.890625 
L 46.625 15.578125 
Q 46.625 6.25 49.3125 0.984375 
z
M 38.921875 25.390625 
L 33.40625 25.296875 
Q 14.109375 24.859375 14.109375 14.890625 
Q 14.109375 11.375 16.40625 9.078125 
Q 19.234375 6.296875 23.828125 6.296875 
Q 30.21875 6.296875 34.90625 10.984375 
Q 38.921875 15.140625 38.921875 21 
z
" id="IPAPGothic-97"/>
      <path d="M 50 -11.71875 
L 0 -11.71875 
L 0 -6.734375 
L 50 -6.734375 
z
" id="IPAPGothic-95"/>
     </defs>
     <g transform="translate(358.045625 139.038625)scale(0.1 -0.1)">
      <use xlink:href="#IPAPGothic-118"/>
      <use x="48.583984" xlink:href="#IPAPGothic-97"/>
      <use x="103.564453" xlink:href="#IPAPGothic-108"/>
      <use x="130.566406" xlink:href="#IPAPGothic-95"/>
      <use x="180.566406" xlink:href="#IPAPGothic-108"/>
      <use x="207.568359" xlink:href="#IPAPGothic-111"/>
      <use x="267.96875" xlink:href="#IPAPGothic-115"/>
      <use x="314.160156" xlink:href="#IPAPGothic-115"/>
     </g>
    </g>
   </g>
  </g>
  <g id="axes_2">
   <g id="matplotlib.axis_3">
    <g id="ytick_8">
     <g id="line2d_37">
      <path clip-path="url(#pc3169c5d33)" d="M 45.12 302.566947 
L 403.08 302.566947 
" style="fill:none;stroke:#b2b2b2;stroke-dasharray:1.85,0.8;stroke-dashoffset:0;stroke-width:0.5;"/>
     </g>
     <g id="line2d_38">
      <defs>
       <path d="M 0 0 
L -3.5 0 
" id="mff78c4f467" style="stroke:#000000;stroke-width:0.8;"/>
      </defs>
      <g>
       <use style="stroke:#000000;stroke-width:0.8;" x="403.08" xlink:href="#mff78c4f467" y="302.566947"/>
      </g>
     </g>
     <g id="text_20">
      <!-- 0.775 -->
      <g style="fill:#ff0000;" transform="translate(406.58 306.312259)scale(0.1 -0.1)">
       <use xlink:href="#IPAPGothic-48"/>
       <use x="62.988281" xlink:href="#IPAPGothic-46"/>
       <use x="89.404297" xlink:href="#IPAPGothic-55"/>
       <use x="152.392578" xlink:href="#IPAPGothic-55"/>
       <use x="215.380859" xlink:href="#IPAPGothic-53"/>
      </g>
     </g>
    </g>
    <g id="ytick_9">
     <g id="line2d_39">
      <path clip-path="url(#pc3169c5d33)" d="M 45.12 265.378382 
L 403.08 265.378382 
" style="fill:none;stroke:#b2b2b2;stroke-dasharray:1.85,0.8;stroke-dashoffset:0;stroke-width:0.5;"/>
     </g>
     <g id="line2d_40">
      <g>
       <use style="stroke:#000000;stroke-width:0.8;" x="403.08" xlink:href="#mff78c4f467" y="265.378382"/>
      </g>
     </g>
     <g id="text_21">
      <!-- 0.800 -->
      <g style="fill:#ff0000;" transform="translate(406.58 269.123695)scale(0.1 -0.1)">
       <use xlink:href="#IPAPGothic-48"/>
       <use x="62.988281" xlink:href="#IPAPGothic-46"/>
       <use x="89.404297" xlink:href="#IPAPGothic-56"/>
       <use x="152.392578" xlink:href="#IPAPGothic-48"/>
       <use x="215.380859" xlink:href="#IPAPGothic-48"/>
      </g>
     </g>
    </g>
    <g id="ytick_10">
     <g id="line2d_41">
      <path clip-path="url(#pc3169c5d33)" d="M 45.12 228.189818 
L 403.08 228.189818 
" style="fill:none;stroke:#b2b2b2;stroke-dasharray:1.85,0.8;stroke-dashoffset:0;stroke-width:0.5;"/>
     </g>
     <g id="line2d_42">
      <g>
       <use style="stroke:#000000;stroke-width:0.8;" x="403.08" xlink:href="#mff78c4f467" y="228.189818"/>
      </g>
     </g>
     <g id="text_22">
      <!-- 0.825 -->
      <g style="fill:#ff0000;" transform="translate(406.58 231.93513)scale(0.1 -0.1)">
       <use xlink:href="#IPAPGothic-48"/>
       <use x="62.988281" xlink:href="#IPAPGothic-46"/>
       <use x="89.404297" xlink:href="#IPAPGothic-56"/>
       <use x="152.392578" xlink:href="#IPAPGothic-50"/>
       <use x="215.380859" xlink:href="#IPAPGothic-53"/>
      </g>
     </g>
    </g>
    <g id="ytick_11">
     <g id="line2d_43">
      <path clip-path="url(#pc3169c5d33)" d="M 45.12 191.001253 
L 403.08 191.001253 
" style="fill:none;stroke:#b2b2b2;stroke-dasharray:1.85,0.8;stroke-dashoffset:0;stroke-width:0.5;"/>
     </g>
     <g id="line2d_44">
      <g>
       <use style="stroke:#000000;stroke-width:0.8;" x="403.08" xlink:href="#mff78c4f467" y="191.001253"/>
      </g>
     </g>
     <g id="text_23">
      <!-- 0.850 -->
      <g style="fill:#ff0000;" transform="translate(406.58 194.746566)scale(0.1 -0.1)">
       <use xlink:href="#IPAPGothic-48"/>
       <use x="62.988281" xlink:href="#IPAPGothic-46"/>
       <use x="89.404297" xlink:href="#IPAPGothic-56"/>
       <use x="152.392578" xlink:href="#IPAPGothic-53"/>
       <use x="215.380859" xlink:href="#IPAPGothic-48"/>
      </g>
     </g>
    </g>
    <g id="ytick_12">
     <g id="line2d_45">
      <path clip-path="url(#pc3169c5d33)" d="M 45.12 153.812689 
L 403.08 153.812689 
" style="fill:none;stroke:#b2b2b2;stroke-dasharray:1.85,0.8;stroke-dashoffset:0;stroke-width:0.5;"/>
     </g>
     <g id="line2d_46">
      <g>
       <use style="stroke:#000000;stroke-width:0.8;" x="403.08" xlink:href="#mff78c4f467" y="153.812689"/>
      </g>
     </g>
     <g id="text_24">
      <!-- 0.875 -->
      <g style="fill:#ff0000;" transform="translate(406.58 157.558001)scale(0.1 -0.1)">
       <use xlink:href="#IPAPGothic-48"/>
       <use x="62.988281" xlink:href="#IPAPGothic-46"/>
       <use x="89.404297" xlink:href="#IPAPGothic-56"/>
       <use x="152.392578" xlink:href="#IPAPGothic-55"/>
       <use x="215.380859" xlink:href="#IPAPGothic-53"/>
      </g>
     </g>
    </g>
    <g id="ytick_13">
     <g id="line2d_47">
      <path clip-path="url(#pc3169c5d33)" d="M 45.12 116.624124 
L 403.08 116.624124 
" style="fill:none;stroke:#b2b2b2;stroke-dasharray:1.85,0.8;stroke-dashoffset:0;stroke-width:0.5;"/>
     </g>
     <g id="line2d_48">
      <g>
       <use style="stroke:#000000;stroke-width:0.8;" x="403.08" xlink:href="#mff78c4f467" y="116.624124"/>
      </g>
     </g>
     <g id="text_25">
      <!-- 0.900 -->
      <defs>
       <path d="M 46.625 36.8125 
Q 39.75 26.8125 28.328125 26.8125 
Q 19.578125 26.8125 13.234375 32.125 
Q 5.71875 38.421875 5.71875 49.421875 
Q 5.71875 59.578125 12.015625 66.65625 
Q 18.453125 73.828125 29.203125 73.828125 
Q 43.75 73.828125 50.640625 61.71875 
Q 55.609375 52.78125 55.609375 38.625 
Q 55.609375 19.53125 47.515625 9.1875 
Q 39.890625 -0.484375 27.640625 -0.484375 
Q 13.421875 -0.484375 6.109375 10.984375 
L 13.328125 14.890625 
Q 18.0625 6.6875 27.390625 6.6875 
Q 45.65625 6.6875 47.015625 36.8125 
z
M 29.5 66.84375 
Q 22.65625 66.84375 18.3125 61.71875 
Q 14.40625 57.078125 14.40625 50 
Q 14.40625 42.828125 18.109375 38.71875 
Q 22.40625 33.796875 29.78125 33.796875 
Q 37.984375 33.796875 42.625 40.1875 
Q 45.703125 44.484375 45.703125 49.515625 
Q 45.703125 55.515625 42.09375 60.359375 
Q 37.109375 66.84375 29.5 66.84375 
z
" id="IPAPGothic-57"/>
      </defs>
      <g style="fill:#ff0000;" transform="translate(406.58 120.369437)scale(0.1 -0.1)">
       <use xlink:href="#IPAPGothic-48"/>
       <use x="62.988281" xlink:href="#IPAPGothic-46"/>
       <use x="89.404297" xlink:href="#IPAPGothic-57"/>
       <use x="152.392578" xlink:href="#IPAPGothic-48"/>
       <use x="215.380859" xlink:href="#IPAPGothic-48"/>
      </g>
     </g>
    </g>
    <g id="ytick_14">
     <g id="line2d_49">
      <path clip-path="url(#pc3169c5d33)" d="M 45.12 79.43556 
L 403.08 79.43556 
" style="fill:none;stroke:#b2b2b2;stroke-dasharray:1.85,0.8;stroke-dashoffset:0;stroke-width:0.5;"/>
     </g>
     <g id="line2d_50">
      <g>
       <use style="stroke:#000000;stroke-width:0.8;" x="403.08" xlink:href="#mff78c4f467" y="79.43556"/>
      </g>
     </g>
     <g id="text_26">
      <!-- 0.925 -->
      <g style="fill:#ff0000;" transform="translate(406.58 83.180872)scale(0.1 -0.1)">
       <use xlink:href="#IPAPGothic-48"/>
       <use x="62.988281" xlink:href="#IPAPGothic-46"/>
       <use x="89.404297" xlink:href="#IPAPGothic-57"/>
       <use x="152.392578" xlink:href="#IPAPGothic-50"/>
       <use x="215.380859" xlink:href="#IPAPGothic-53"/>
      </g>
     </g>
    </g>
    <g id="ytick_15">
     <g id="line2d_51">
      <path clip-path="url(#pc3169c5d33)" d="M 45.12 42.246995 
L 403.08 42.246995 
" style="fill:none;stroke:#b2b2b2;stroke-dasharray:1.85,0.8;stroke-dashoffset:0;stroke-width:0.5;"/>
     </g>
     <g id="line2d_52">
      <g>
       <use style="stroke:#000000;stroke-width:0.8;" x="403.08" xlink:href="#mff78c4f467" y="42.246995"/>
      </g>
     </g>
     <g id="text_27">
      <!-- 0.950 -->
      <g style="fill:#ff0000;" transform="translate(406.58 45.992308)scale(0.1 -0.1)">
       <use xlink:href="#IPAPGothic-48"/>
       <use x="62.988281" xlink:href="#IPAPGothic-46"/>
       <use x="89.404297" xlink:href="#IPAPGothic-57"/>
       <use x="152.392578" xlink:href="#IPAPGothic-53"/>
       <use x="215.380859" xlink:href="#IPAPGothic-48"/>
      </g>
     </g>
    </g>
    <g id="text_28">
     <!-- accuracy -->
     <defs>
      <path d="M 51.3125 0.984375 
L 43.3125 0.984375 
L 43.3125 10.0625 
Q 35.9375 0 25.390625 0 
Q 16.75 0 11.921875 5.859375 
Q 8.109375 10.59375 8.109375 19.390625 
L 8.109375 50.78125 
L 16.703125 50.78125 
L 16.703125 19.671875 
Q 16.703125 7.28125 27.09375 7.28125 
Q 37.59375 7.28125 42.71875 20.171875 
L 42.71875 50.78125 
L 51.3125 50.78125 
z
" id="IPAPGothic-117"/>
      <path d="M 36.078125 51.765625 
L 34.578125 43.265625 
Q 32.90625 43.609375 31.59375 43.609375 
Q 25.828125 43.609375 22.078125 38.1875 
Q 17.390625 31.34375 17.390625 26.171875 
L 17.390625 0.984375 
L 8.796875 0.984375 
L 8.796875 50.78125 
L 16.890625 50.78125 
L 16.5 35.984375 
L 16.703125 35.984375 
Q 22.21875 52.203125 32.765625 52.203125 
Q 34.46875 52.203125 36.078125 51.765625 
z
" id="IPAPGothic-114"/>
      <path d="M 48.78125 50.78125 
L 24.609375 -7.625 
Q 19.96875 -18.796875 8.59375 -18.796875 
L 7.46875 -18.796875 
L 5.375 -10.984375 
L 6.984375 -10.984375 
Q 15.140625 -10.984375 17.96875 -3.71875 
L 21.1875 4.296875 
L 0.59375 50.78125 
L 10.296875 50.78125 
L 21.296875 22.796875 
Q 23.875 16.015625 25.09375 12.203125 
L 25.390625 12.203125 
Q 27.34375 18.265625 29.109375 22.796875 
L 39.5 50.78125 
z
" id="IPAPGothic-121"/>
     </defs>
     <g style="fill:#ff0000;" transform="translate(447.404688 183.796875)rotate(-90)scale(0.12 -0.12)">
      <use xlink:href="#IPAPGothic-97"/>
      <use x="54.980469" xlink:href="#IPAPGothic-99"/>
      <use x="109.375" xlink:href="#IPAPGothic-99"/>
      <use x="163.769531" xlink:href="#IPAPGothic-117"/>
      <use x="224.169922" xlink:href="#IPAPGothic-114"/>
      <use x="261.181641" xlink:href="#IPAPGothic-97"/>
      <use x="316.162109" xlink:href="#IPAPGothic-99"/>
      <use x="370.556641" xlink:href="#IPAPGothic-121"/>
     </g>
    </g>
   </g>
   <g id="line2d_53">
    <path clip-path="url(#pc3169c5d33)" d="M 61.390909 292.982727 
L 78.518182 134.443395 
L 95.645455 98.625605 
L 112.772727 81.500924 
L 129.9 70.641956 
L 147.027273 62.415708 
L 164.154545 57.222288 
L 181.281818 53.613302 
L 198.409091 50.97258 
L 215.536364 47.187546 
L 232.663636 47.027502 
L 249.790909 30.759055 
L 266.918182 28.078323 
L 284.045455 28.118334 
L 301.172727 26.93401 
L 318.3 28.534447 
L 335.427273 25.501618 
L 352.554545 25.861717 
L 369.681818 25.25355 
L 386.809091 24.237273 
" style="fill:none;stroke:#ff0000;stroke-linecap:square;stroke-width:2;"/>
   </g>
   <g id="line2d_54">
    <path clip-path="url(#pc3169c5d33)" d="M 61.390909 206.937142 
L 78.518182 146.697591 
L 95.645455 123.774918 
L 112.772727 113.934376 
L 129.9 104.479738 
L 147.027273 98.884136 
L 164.154545 87.770113 
L 181.281818 88.348968 
L 198.409091 88.619101 
L 215.536364 87.384209 
L 232.663636 82.17451 
L 249.790909 75.112475 
L 266.918182 72.642692 
L 284.045455 72.063836 
L 301.172727 72.063836 
L 318.3 72.44974 
L 335.427273 71.36921 
L 352.554545 70.944716 
L 369.681818 71.4078 
L 386.809091 71.137668 
" style="fill:none;stroke:#ff0000;stroke-dasharray:7.4,3.2;stroke-dashoffset:0;stroke-width:2;"/>
   </g>
   <g id="patch_8">
    <path d="M 45.12 306.42 
L 45.12 10.8 
" style="fill:none;stroke:#bcbcbc;stroke-linecap:square;stroke-linejoin:miter;stroke-width:0.8;"/>
   </g>
   <g id="patch_9">
    <path d="M 403.08 306.42 
L 403.08 10.8 
" style="fill:none;stroke:#bcbcbc;stroke-linecap:square;stroke-linejoin:miter;stroke-width:0.8;"/>
   </g>
   <g id="patch_10">
    <path d="M 45.12 306.42 
L 403.08 306.42 
" style="fill:none;stroke:#bcbcbc;stroke-linecap:square;stroke-linejoin:miter;stroke-width:0.8;"/>
   </g>
   <g id="patch_11">
    <path d="M 45.12 10.8 
L 403.08 10.8 
" style="fill:none;stroke:#bcbcbc;stroke-linecap:square;stroke-linejoin:miter;stroke-width:0.8;"/>
   </g>
   <g id="legend_2">
    <g id="patch_12">
     <path d="M 329.647188 204.062625 
L 396.08 204.062625 
Q 398.08 204.062625 398.08 202.062625 
L 398.08 174.281375 
Q 398.08 172.281375 396.08 172.281375 
L 329.647188 172.281375 
Q 327.647188 172.281375 327.647188 174.281375 
L 327.647188 202.062625 
Q 327.647188 204.062625 329.647188 204.062625 
z
" style="fill:#eeeeee;opacity:0.8;stroke:#cccccc;stroke-linejoin:miter;stroke-width:0.5;"/>
    </g>
    <g id="line2d_55">
     <path d="M 331.647188 180.272 
L 351.647188 180.272 
" style="fill:none;stroke:#ff0000;stroke-linecap:square;stroke-width:2;"/>
    </g>
    <g id="line2d_56"/>
    <g id="text_29">
     <!-- acc -->
     <g transform="translate(359.647188 183.772)scale(0.1 -0.1)">
      <use xlink:href="#IPAPGothic-97"/>
      <use x="54.980469" xlink:href="#IPAPGothic-99"/>
      <use x="109.375" xlink:href="#IPAPGothic-99"/>
     </g>
    </g>
    <g id="line2d_57">
     <path d="M 331.647188 194.662625 
L 351.647188 194.662625 
" style="fill:none;stroke:#ff0000;stroke-dasharray:7.4,3.2;stroke-dashoffset:0;stroke-width:2;"/>
    </g>
    <g id="line2d_58"/>
    <g id="text_30">
     <!-- val_acc -->
     <g transform="translate(359.647188 198.162625)scale(0.1 -0.1)">
      <use xlink:href="#IPAPGothic-118"/>
      <use x="48.583984" xlink:href="#IPAPGothic-97"/>
      <use x="103.564453" xlink:href="#IPAPGothic-108"/>
      <use x="130.566406" xlink:href="#IPAPGothic-95"/>
      <use x="180.566406" xlink:href="#IPAPGothic-97"/>
      <use x="235.546875" xlink:href="#IPAPGothic-99"/>
      <use x="289.941406" xlink:href="#IPAPGothic-99"/>
     </g>
    </g>
   </g>
  </g>
 </g>
 <defs>
  <clipPath id="pc3169c5d33">
   <rect height="295.62" width="357.96" x="45.12" y="10.8"/>
  </clipPath>
 </defs>
</svg>
