<?xml version="1.0" encoding="utf-8" standalone="no"?>
<!DOCTYPE svg PUBLIC "-//W3C//DTD SVG 1.1//EN"
  "http://www.w3.org/Graphics/SVG/1.1/DTD/svg11.dtd">
<!-- Created with matplotlib (https://matplotlib.org/) -->
<svg height="345.6pt" version="1.1" viewBox="0 0 460.8 345.6" width="460.8pt" xmlns="http://www.w3.org/2000/svg" xmlns:xlink="http://www.w3.org/1999/xlink">
 <defs>
  <style type="text/css">
*{stroke-linecap:butt;stroke-linejoin:round;}
  </style>
 </defs>
 <g id="figure_1">
  <g id="patch_1">
   <path d="M 0 345.6 
L 460.8 345.6 
L 460.8 0 
L 0 0 
z
" style="fill:#ffffff;"/>
  </g>
  <g id="axes_1">
   <g id="patch_2">
    <path d="M 57.6 307.584 
L 414.72 307.584 
L 414.72 41.472 
L 57.6 41.472 
z
" style="fill:#eeeeee;"/>
   </g>
   <g id="matplotlib.axis_1">
    <g id="xtick_1">
     <g id="line2d_1">
      <path clip-path="url(#p90c5250a54)" d="M 57.6 307.584 
L 57.6 41.472 
" style="fill:none;stroke:#b2b2b2;stroke-dasharray:1.85,0.8;stroke-dashoffset:0;stroke-width:0.5;"/>
     </g>
     <g id="line2d_2">
      <defs>
       <path d="M 0 0 
L 0 -3.5 
" id="mc038fa46e2" style="stroke:#000000;stroke-width:0.8;"/>
      </defs>
      <g>
       <use style="stroke:#000000;stroke-width:0.8;" x="57.6" xlink:href="#mc038fa46e2" y="307.584"/>
      </g>
     </g>
     <g id="text_1">
      <!-- 0 -->
      <defs>
       <path d="M 31.84375 73.828125 
Q 45.015625 73.828125 52.09375 61.625 
Q 57.71875 51.953125 57.71875 36.625 
Q 57.71875 21.4375 52.09375 11.578125 
Q 45.125 -0.484375 31.5 -0.484375 
Q 17.921875 -0.484375 10.9375 11.578125 
Q 5.328125 21.4375 5.328125 36.71875 
Q 5.328125 58.015625 15.625 67.71875 
Q 22.171875 73.828125 31.84375 73.828125 
z
M 31.5 66.609375 
Q 23.6875 66.609375 19.1875 58.6875 
Q 14.59375 50.6875 14.59375 36.578125 
Q 14.59375 22.75 19.09375 14.796875 
Q 23.640625 6.984375 31.5 6.984375 
Q 40.921875 6.984375 45.453125 17.96875 
Q 48.4375 25.34375 48.4375 37.109375 
Q 48.4375 50.828125 43.84375 58.6875 
Q 39.203125 66.609375 31.5 66.609375 
z
" id="IPAPGothic-48"/>
      </defs>
      <g transform="translate(54.450781 318.574625)scale(0.1 -0.1)">
       <use xlink:href="#IPAPGothic-48"/>
      </g>
     </g>
    </g>
    <g id="xtick_2">
     <g id="line2d_3">
      <path clip-path="url(#p90c5250a54)" d="M 129.095495 307.584 
L 129.095495 41.472 
" style="fill:none;stroke:#b2b2b2;stroke-dasharray:1.85,0.8;stroke-dashoffset:0;stroke-width:0.5;"/>
     </g>
     <g id="line2d_4">
      <g>
       <use style="stroke:#000000;stroke-width:0.8;" x="129.095495" xlink:href="#mc038fa46e2" y="307.584"/>
      </g>
     </g>
     <g id="text_2">
      <!-- 200 -->
      <defs>
       <path d="M 57.171875 0.984375 
L 6.984375 0.984375 
L 6.984375 9.28125 
Q 12.890625 23.046875 29.59375 34.421875 
L 32.375 36.28125 
Q 40.921875 42.140625 43.609375 45.40625 
Q 46.6875 49.21875 46.6875 53.8125 
Q 46.6875 58.890625 43.0625 62.5 
Q 39.0625 66.5 32.5625 66.5 
Q 19.53125 66.5 15.484375 52 
L 7.765625 54.78125 
Q 13.328125 73.828125 33.0625 73.828125 
Q 43.84375 73.828125 50.25 67.4375 
Q 55.859375 61.671875 55.859375 53.515625 
Q 55.859375 47.46875 52.25 42.53125 
Q 48.921875 37.75 36.96875 30.28125 
L 34.859375 29 
Q 19.625 19.578125 15.28125 8.890625 
L 57.171875 8.890625 
z
" id="IPAPGothic-50"/>
      </defs>
      <g transform="translate(119.647839 318.574625)scale(0.1 -0.1)">
       <use xlink:href="#IPAPGothic-50"/>
       <use x="62.988281" xlink:href="#IPAPGothic-48"/>
       <use x="125.976562" xlink:href="#IPAPGothic-48"/>
      </g>
     </g>
    </g>
    <g id="xtick_3">
     <g id="line2d_5">
      <path clip-path="url(#p90c5250a54)" d="M 200.590991 307.584 
L 200.590991 41.472 
" style="fill:none;stroke:#b2b2b2;stroke-dasharray:1.85,0.8;stroke-dashoffset:0;stroke-width:0.5;"/>
     </g>
     <g id="line2d_6">
      <g>
       <use style="stroke:#000000;stroke-width:0.8;" x="200.590991" xlink:href="#mc038fa46e2" y="307.584"/>
      </g>
     </g>
     <g id="text_3">
      <!-- 400 -->
      <defs>
       <path d="M 59.578125 18.109375 
L 47.75 18.109375 
L 47.75 0.984375 
L 39.75 0.984375 
L 39.75 18.109375 
L 3.078125 18.109375 
L 3.078125 26.125 
L 38.328125 73.09375 
L 47.75 73.09375 
L 47.75 25.53125 
L 59.578125 25.53125 
z
M 40.234375 64.203125 
L 39.9375 64.203125 
Q 35.59375 57.171875 31.25 51.3125 
L 11.859375 25.53125 
L 39.75 25.53125 
L 39.75 49.125 
Q 39.75 54.25 40.234375 64.203125 
z
" id="IPAPGothic-52"/>
      </defs>
      <g transform="translate(191.143335 318.574625)scale(0.1 -0.1)">
       <use xlink:href="#IPAPGothic-52"/>
       <use x="62.988281" xlink:href="#IPAPGothic-48"/>
       <use x="125.976562" xlink:href="#IPAPGothic-48"/>
      </g>
     </g>
    </g>
    <g id="xtick_4">
     <g id="line2d_7">
      <path clip-path="url(#p90c5250a54)" d="M 272.086486 307.584 
L 272.086486 41.472 
" style="fill:none;stroke:#b2b2b2;stroke-dasharray:1.85,0.8;stroke-dashoffset:0;stroke-width:0.5;"/>
     </g>
     <g id="line2d_8">
      <g>
       <use style="stroke:#000000;stroke-width:0.8;" x="272.086486" xlink:href="#mc038fa46e2" y="307.584"/>
      </g>
     </g>
     <g id="text_4">
      <!-- 600 -->
      <defs>
       <path d="M 16.5 36.375 
Q 23.578125 46.578125 34.90625 46.578125 
Q 45.40625 46.578125 51.8125 39.265625 
Q 57.421875 32.90625 57.421875 23.78125 
Q 57.421875 13.8125 51.125 6.78125 
Q 44.578125 -0.484375 34.03125 -0.484375 
Q 21.484375 -0.484375 14.40625 9.078125 
Q 7.515625 18.40625 7.515625 34.8125 
Q 7.515625 53.515625 15.828125 64.203125 
Q 23.34375 73.828125 35.5 73.828125 
Q 49.859375 73.828125 56.390625 62.890625 
L 49.21875 58.984375 
Q 45.21875 66.609375 35.9375 66.609375 
Q 17.484375 66.609375 16.109375 36.375 
z
M 33.453125 39.796875 
Q 26.3125 39.796875 21.625 34.46875 
Q 17.4375 29.6875 17.4375 24.078125 
Q 17.4375 18.0625 21.140625 13.1875 
Q 26.125 6.6875 33.734375 6.6875 
Q 41.703125 6.6875 45.953125 13.1875 
Q 48.828125 17.625 48.828125 23.484375 
Q 48.828125 30.375 45.015625 34.8125 
Q 40.625 39.796875 33.453125 39.796875 
z
" id="IPAPGothic-54"/>
      </defs>
      <g transform="translate(262.63883 318.574625)scale(0.1 -0.1)">
       <use xlink:href="#IPAPGothic-54"/>
       <use x="62.988281" xlink:href="#IPAPGothic-48"/>
       <use x="125.976562" xlink:href="#IPAPGothic-48"/>
      </g>
     </g>
    </g>
    <g id="xtick_5">
     <g id="line2d_9">
      <path clip-path="url(#p90c5250a54)" d="M 343.581982 307.584 
L 343.581982 41.472 
" style="fill:none;stroke:#b2b2b2;stroke-dasharray:1.85,0.8;stroke-dashoffset:0;stroke-width:0.5;"/>
     </g>
     <g id="line2d_10">
      <g>
       <use style="stroke:#000000;stroke-width:0.8;" x="343.581982" xlink:href="#mc038fa46e2" y="307.584"/>
      </g>
     </g>
     <g id="text_5">
      <!-- 800 -->
      <defs>
       <path d="M 39.703125 37.890625 
Q 57.8125 31.734375 57.8125 18.703125 
Q 57.8125 8.453125 48.4375 3.078125 
Q 41.609375 -0.875 31.5 -0.875 
Q 21.34375 -0.875 14.5 3.078125 
Q 5.421875 8.296875 5.421875 18.40625 
Q 5.421875 31.0625 22.015625 37.203125 
L 22.015625 37.5 
Q 7.515625 42.71875 7.515625 54.78125 
Q 7.515625 64.0625 15.328125 69.625 
Q 21.96875 74.3125 31.546875 74.3125 
Q 42.234375 74.3125 48.921875 68.796875 
Q 55.515625 63.578125 55.515625 55.71875 
Q 55.515625 42.28125 39.703125 38.1875 
z
M 31.640625 41.015625 
Q 46.828125 44.625 46.828125 55.125 
Q 46.828125 61.1875 41.796875 64.84375 
Q 37.703125 67.921875 31.5 67.921875 
Q 25.09375 67.921875 20.796875 64.5 
Q 16.40625 60.890625 16.40625 54.984375 
Q 16.40625 49.171875 21.140625 45.703125 
Q 23.34375 43.890625 26.90625 42.484375 
Q 30.609375 40.96875 31.5 40.96875 
Q 31.546875 40.96875 31.640625 41.015625 
z
M 30.90625 34.46875 
Q 14.40625 30.125 14.40625 19 
Q 14.40625 12.109375 20.515625 8.6875 
Q 25.09375 6.109375 31.390625 6.109375 
Q 40.234375 6.109375 45.015625 10.890625 
Q 48.53125 14.40625 48.53125 19.484375 
Q 48.53125 24.859375 43.609375 28.859375 
Q 40.765625 31.109375 36.71875 32.765625 
Q 32.375 34.46875 31.109375 34.46875 
Q 31 34.46875 30.90625 34.46875 
z
" id="IPAPGothic-56"/>
      </defs>
      <g transform="translate(334.134326 318.574625)scale(0.1 -0.1)">
       <use xlink:href="#IPAPGothic-56"/>
       <use x="62.988281" xlink:href="#IPAPGothic-48"/>
       <use x="125.976562" xlink:href="#IPAPGothic-48"/>
      </g>
     </g>
    </g>
    <g id="xtick_6">
     <g id="line2d_11">
      <path clip-path="url(#p90c5250a54)" d="M 415.077477 307.584 
L 415.077477 41.472 
" style="fill:none;stroke:#b2b2b2;stroke-dasharray:1.85,0.8;stroke-dashoffset:0;stroke-width:0.5;"/>
     </g>
     <g id="line2d_12">
      <g>
       <use style="stroke:#000000;stroke-width:0.8;" x="415.077477" xlink:href="#mc038fa46e2" y="307.584"/>
      </g>
     </g>
     <g id="text_6">
      <!-- 1000 -->
      <defs>
       <path d="M 38.484375 0.984375 
L 29.6875 0.984375 
L 29.6875 64.109375 
Q 21.4375 61.28125 12.3125 59.328125 
L 10.6875 66.109375 
Q 23.78125 69.390625 32.90625 73.875 
L 38.484375 73.875 
z
" id="IPAPGothic-49"/>
      </defs>
      <g transform="translate(402.480602 318.574625)scale(0.1 -0.1)">
       <use xlink:href="#IPAPGothic-49"/>
       <use x="62.988281" xlink:href="#IPAPGothic-48"/>
       <use x="125.976562" xlink:href="#IPAPGothic-48"/>
       <use x="188.964844" xlink:href="#IPAPGothic-48"/>
      </g>
     </g>
    </g>
    <g id="text_7">
     <!-- # of play -->
     <defs>
      <path d="M 58.59375 48.09375 
L 46.296875 48.09375 
L 43.40625 31.59375 
L 58.015625 31.59375 
L 58.015625 26.609375 
L 42.71875 26.609375 
L 37.796875 -1.421875 
L 32.078125 -0.296875 
L 36.71875 26.609375 
L 22.796875 26.609375 
L 17.390625 -1.421875 
L 11.578125 -0.296875 
L 16.796875 26.609375 
L 5.71875 26.609375 
L 5.71875 31.59375 
L 17.484375 31.59375 
L 20.703125 48.09375 
L 6.59375 48.09375 
L 6.59375 53.078125 
L 21.390625 53.078125 
L 25.203125 73.734375 
L 31.203125 72.703125 
L 27.484375 53.078125 
L 41.015625 53.078125 
L 44.625 73.734375 
L 50.484375 72.90625 
L 47.015625 53.078125 
L 58.59375 53.078125 
z
M 40.28125 48.09375 
L 26.703125 48.09375 
L 23.578125 31.59375 
L 37.40625 31.59375 
z
" id="IPAPGothic-35"/>
      <path id="IPAPGothic-32"/>
      <path d="M 29.984375 52.203125 
Q 40.53125 52.203125 47.75 45.125 
Q 55.171875 37.703125 55.171875 25.59375 
Q 55.171875 13.921875 47.90625 6.59375 
Q 40.765625 -0.484375 29.984375 -0.484375 
Q 19.1875 -0.484375 12.203125 6.5 
Q 4.890625 13.8125 4.890625 25.875 
Q 4.890625 37.703125 12.3125 45.125 
Q 19.390625 52.203125 29.984375 52.203125 
z
M 29.984375 45.609375 
Q 23.734375 45.609375 19.390625 41.109375 
Q 13.875 35.59375 13.875 25.78125 
Q 13.875 16.109375 19.28125 10.6875 
Q 23.6875 6.296875 29.984375 6.296875 
Q 36.421875 6.296875 40.765625 10.796875 
Q 46.1875 16.21875 46.1875 26.125 
Q 46.1875 35.453125 40.671875 41.109375 
Q 36.1875 45.609375 29.984375 45.609375 
z
" id="IPAPGothic-111"/>
      <path d="M 38.375 72.171875 
L 34.765625 66.265625 
Q 31.109375 69.09375 27.203125 69.09375 
Q 18.5 69.09375 18.5 57.375 
L 18.5 50.78125 
L 32.078125 50.78125 
L 32.078125 44.671875 
L 18.5 44.671875 
L 18.5 0.984375 
L 10.015625 0.984375 
L 10.015625 44.671875 
L 1.90625 44.671875 
L 1.90625 50.78125 
L 10.015625 50.78125 
L 10.015625 57.171875 
Q 10.015625 65.4375 13.921875 70.0625 
Q 18.75 75.6875 26.703125 75.6875 
Q 33.0625 75.6875 38.375 72.171875 
z
" id="IPAPGothic-102"/>
      <path d="M 16.796875 42 
Q 23.828125 52.203125 34.46875 52.203125 
Q 43.265625 52.203125 49.5625 45.90625 
Q 56.890625 38.578125 56.890625 25.6875 
Q 56.890625 13.140625 49.65625 5.8125 
Q 43.359375 -0.484375 34.375 -0.484375 
Q 24.515625 -0.484375 17.28125 7.765625 
L 17.28125 -19 
L 8.796875 -19 
L 8.796875 50.78125 
L 16.796875 50.78125 
z
M 17.28125 30.46875 
L 17.28125 20.171875 
Q 17.28125 14.015625 23.6875 9.375 
Q 27.984375 6.296875 32.90625 6.296875 
Q 38.578125 6.296875 42.578125 10.296875 
Q 47.90625 15.578125 47.90625 25.484375 
Q 47.90625 34.375 43.5 39.984375 
Q 39.109375 45.3125 32.8125 45.3125 
Q 25.875 45.3125 20.90625 38.8125 
Q 17.28125 34.125 17.28125 30.46875 
z
" id="IPAPGothic-112"/>
      <path d="M 17.671875 0.984375 
L 9.078125 0.984375 
L 9.078125 74.90625 
L 17.671875 74.90625 
z
" id="IPAPGothic-108"/>
      <path d="M 49.3125 0.984375 
L 41.703125 0.984375 
Q 39.984375 4.734375 39.5 8.6875 
L 39.203125 8.6875 
Q 33.546875 -0.390625 22.3125 -0.390625 
Q 14.59375 -0.390625 9.71875 4.5 
Q 5.421875 8.796875 5.421875 14.984375 
Q 5.421875 30.421875 32.03125 31.203125 
L 38.71875 31.390625 
L 38.71875 33.984375 
Q 38.71875 39.203125 35.6875 42.1875 
Q 32.625 45.3125 27.734375 45.3125 
Q 19.34375 45.3125 15.140625 37.15625 
L 7.71875 40.578125 
Q 14.59375 52 27.9375 52 
Q 37.0625 52 42.046875 46.875 
Q 46.625 42.28125 46.625 33.890625 
L 46.625 15.578125 
Q 46.625 6.25 49.3125 0.984375 
z
M 38.921875 25.390625 
L 33.40625 25.296875 
Q 14.109375 24.859375 14.109375 14.890625 
Q 14.109375 11.375 16.40625 9.078125 
Q 19.234375 6.296875 23.828125 6.296875 
Q 30.21875 6.296875 34.90625 10.984375 
Q 38.921875 15.140625 38.921875 21 
z
" id="IPAPGothic-97"/>
      <path d="M 48.78125 50.78125 
L 24.609375 -7.625 
Q 19.96875 -18.796875 8.59375 -18.796875 
L 7.46875 -18.796875 
L 5.375 -10.984375 
L 6.984375 -10.984375 
Q 15.140625 -10.984375 17.96875 -3.71875 
L 21.1875 4.296875 
L 0.59375 50.78125 
L 10.296875 50.78125 
L 21.296875 22.796875 
Q 23.875 16.015625 25.09375 12.203125 
L 25.390625 12.203125 
Q 27.34375 18.265625 29.109375 22.796875 
L 39.5 50.78125 
z
" id="IPAPGothic-121"/>
     </defs>
     <g transform="translate(212.08125 333.557125)scale(0.12 -0.12)">
      <use xlink:href="#IPAPGothic-35"/>
      <use x="62.988281" xlink:href="#IPAPGothic-32"/>
      <use x="89.990234" xlink:href="#IPAPGothic-111"/>
      <use x="150.390625" xlink:href="#IPAPGothic-102"/>
      <use x="181.005859" xlink:href="#IPAPGothic-32"/>
      <use x="208.007812" xlink:href="#IPAPGothic-112"/>
      <use x="270.117188" xlink:href="#IPAPGothic-108"/>
      <use x="297.119141" xlink:href="#IPAPGothic-97"/>
      <use x="352.099609" xlink:href="#IPAPGothic-121"/>
     </g>
    </g>
   </g>
   <g id="matplotlib.axis_2">
    <g id="ytick_1">
     <g id="line2d_13">
      <path clip-path="url(#p90c5250a54)" d="M 57.6 266.530564 
L 414.72 266.530564 
" style="fill:none;stroke:#b2b2b2;stroke-dasharray:1.85,0.8;stroke-dashoffset:0;stroke-width:0.5;"/>
     </g>
     <g id="line2d_14">
      <defs>
       <path d="M 0 0 
L 3.5 0 
" id="m21e8d0af99" style="stroke:#000000;stroke-width:0.8;"/>
      </defs>
      <g>
       <use style="stroke:#000000;stroke-width:0.8;" x="57.6" xlink:href="#m21e8d0af99" y="266.530564"/>
      </g>
     </g>
     <g id="text_8">
      <!-- 1500 -->
      <defs>
       <path d="M 18.40625 40.671875 
Q 25.53125 46.296875 33.9375 46.296875 
Q 44 46.296875 50.640625 39.5 
Q 56.84375 33.015625 56.84375 23.390625 
Q 56.84375 14.65625 51.515625 8.015625 
Q 44.828125 -0.484375 31.734375 -0.484375 
Q 14.984375 -0.484375 7.328125 12.25 
L 14.65625 16.0625 
Q 20.453125 6.78125 31.453125 6.78125 
Q 38.53125 6.78125 43.265625 11.1875 
Q 48.140625 15.828125 48.140625 23.484375 
Q 48.140625 30.71875 43.84375 35.015625 
Q 39.359375 39.5 32.125 39.5 
Q 21.96875 39.5 16.75 31.6875 
L 9.234375 32.671875 
L 13.8125 72.40625 
L 53.21875 72.40625 
L 53.21875 64.890625 
L 20.953125 64.890625 
L 17.71875 40.671875 
z
" id="IPAPGothic-53"/>
      </defs>
      <g transform="translate(28.90625 270.275876)scale(0.1 -0.1)">
       <use xlink:href="#IPAPGothic-49"/>
       <use x="62.988281" xlink:href="#IPAPGothic-53"/>
       <use x="125.976562" xlink:href="#IPAPGothic-48"/>
       <use x="188.964844" xlink:href="#IPAPGothic-48"/>
      </g>
     </g>
    </g>
    <g id="ytick_2">
     <g id="line2d_15">
      <path clip-path="url(#p90c5250a54)" d="M 57.6 209.527736 
L 414.72 209.527736 
" style="fill:none;stroke:#b2b2b2;stroke-dasharray:1.85,0.8;stroke-dashoffset:0;stroke-width:0.5;"/>
     </g>
     <g id="line2d_16">
      <g>
       <use style="stroke:#000000;stroke-width:0.8;" x="57.6" xlink:href="#m21e8d0af99" y="209.527736"/>
      </g>
     </g>
     <g id="text_9">
      <!-- 2000 -->
      <g transform="translate(28.90625 213.273049)scale(0.1 -0.1)">
       <use xlink:href="#IPAPGothic-50"/>
       <use x="62.988281" xlink:href="#IPAPGothic-48"/>
       <use x="125.976562" xlink:href="#IPAPGothic-48"/>
       <use x="188.964844" xlink:href="#IPAPGothic-48"/>
      </g>
     </g>
    </g>
    <g id="ytick_3">
     <g id="line2d_17">
      <path clip-path="url(#p90c5250a54)" d="M 57.6 152.524909 
L 414.72 152.524909 
" style="fill:none;stroke:#b2b2b2;stroke-dasharray:1.85,0.8;stroke-dashoffset:0;stroke-width:0.5;"/>
     </g>
     <g id="line2d_18">
      <g>
       <use style="stroke:#000000;stroke-width:0.8;" x="57.6" xlink:href="#m21e8d0af99" y="152.524909"/>
      </g>
     </g>
     <g id="text_10">
      <!-- 2500 -->
      <g transform="translate(28.90625 156.270221)scale(0.1 -0.1)">
       <use xlink:href="#IPAPGothic-50"/>
       <use x="62.988281" xlink:href="#IPAPGothic-53"/>
       <use x="125.976562" xlink:href="#IPAPGothic-48"/>
       <use x="188.964844" xlink:href="#IPAPGothic-48"/>
      </g>
     </g>
    </g>
    <g id="ytick_4">
     <g id="line2d_19">
      <path clip-path="url(#p90c5250a54)" d="M 57.6 95.522081 
L 414.72 95.522081 
" style="fill:none;stroke:#b2b2b2;stroke-dasharray:1.85,0.8;stroke-dashoffset:0;stroke-width:0.5;"/>
     </g>
     <g id="line2d_20">
      <g>
       <use style="stroke:#000000;stroke-width:0.8;" x="57.6" xlink:href="#m21e8d0af99" y="95.522081"/>
      </g>
     </g>
     <g id="text_11">
      <!-- 3000 -->
      <defs>
       <path d="M 37.203125 37.796875 
Q 54.78125 34.671875 54.78125 20.015625 
Q 54.78125 11.1875 48.875 5.609375 
Q 42.328125 -0.484375 30.375 -0.484375 
Q 12.453125 -0.484375 4.5 13.765625 
L 11.8125 17.671875 
Q 17.328125 6.890625 30.28125 6.890625 
Q 37.890625 6.890625 42.09375 10.796875 
Q 46.09375 14.5 46.09375 20.21875 
Q 46.09375 26.859375 40.09375 30.90625 
Q 34.625 34.625 25.6875 34.625 
L 21.296875 34.625 
L 21.296875 41.703125 
L 25.875 41.703125 
Q 34.859375 41.703125 39.59375 45.125 
Q 44.671875 48.734375 44.671875 54.828125 
Q 44.671875 61.46875 38.96875 64.65625 
Q 35.296875 66.84375 30.171875 66.84375 
Q 19.28125 66.84375 14.109375 55.90625 
L 6.78125 59.421875 
Q 13.96875 73.828125 30.28125 73.828125 
Q 40.578125 73.828125 46.96875 68.609375 
Q 53.375 63.578125 53.375 55.21875 
Q 53.375 47.3125 47.171875 42.28125 
Q 43.171875 39.0625 37.203125 38.1875 
z
" id="IPAPGothic-51"/>
      </defs>
      <g transform="translate(28.90625 99.267394)scale(0.1 -0.1)">
       <use xlink:href="#IPAPGothic-51"/>
       <use x="62.988281" xlink:href="#IPAPGothic-48"/>
       <use x="125.976562" xlink:href="#IPAPGothic-48"/>
       <use x="188.964844" xlink:href="#IPAPGothic-48"/>
      </g>
     </g>
    </g>
    <g id="text_12">
     <!-- rewards -->
     <defs>
      <path d="M 36.078125 51.765625 
L 34.578125 43.265625 
Q 32.90625 43.609375 31.59375 43.609375 
Q 25.828125 43.609375 22.078125 38.1875 
Q 17.390625 31.34375 17.390625 26.171875 
L 17.390625 0.984375 
L 8.796875 0.984375 
L 8.796875 50.78125 
L 16.890625 50.78125 
L 16.5 35.984375 
L 16.703125 35.984375 
Q 22.21875 52.203125 32.765625 52.203125 
Q 34.46875 52.203125 36.078125 51.765625 
z
" id="IPAPGothic-114"/>
      <path d="M 13.484375 24.90625 
Q 13.921875 16.265625 18.890625 11.28125 
Q 23.96875 6.203125 31.203125 6.203125 
Q 40.71875 6.203125 46.296875 15.09375 
L 51.90625 11.375 
Q 44.828125 -0.484375 30.171875 -0.484375 
Q 19.09375 -0.484375 11.96875 6.59375 
Q 4.78125 13.8125 4.78125 25.640625 
Q 4.78125 38.1875 12.3125 45.703125 
Q 19 52.390625 29 52.390625 
Q 38.421875 52.390625 44.78125 46.1875 
Q 51.90625 38.96875 51.90625 26.90625 
L 51.90625 24.90625 
z
M 43.0625 31.203125 
Q 42.328125 37.984375 38.28125 41.890625 
Q 34.28125 45.90625 28.8125 45.90625 
Q 22.46875 45.90625 17.96875 40.484375 
Q 14.890625 36.8125 13.96875 31.203125 
z
" id="IPAPGothic-101"/>
      <path d="M 74.5625 50.78125 
L 57.28125 0.09375 
L 51.265625 0.09375 
L 40.765625 29.984375 
Q 39.203125 34.421875 37.703125 40.96875 
L 37.40625 40.96875 
Q 36.28125 36.234375 34.1875 29.984375 
L 23.96875 0.09375 
L 17.96875 0.09375 
L 0.6875 50.78125 
L 9.671875 50.78125 
L 18.0625 23.296875 
Q 18.84375 20.796875 21.296875 11.765625 
L 21.578125 11.765625 
Q 23.046875 17.578125 24.90625 23.296875 
L 33.890625 50.78125 
L 41.5 50.78125 
L 50.875 23.296875 
Q 52.296875 19.4375 54.203125 11.765625 
L 54.5 11.765625 
Q 56.109375 18.5 57.5625 23.296875 
L 65.875 50.78125 
z
" id="IPAPGothic-119"/>
      <path d="M 52.984375 0.984375 
L 45.171875 0.984375 
L 45.171875 9.671875 
Q 38.140625 -0.484375 27.390625 -0.484375 
Q 18.453125 -0.484375 12.3125 5.8125 
Q 4.890625 13.1875 4.890625 25.984375 
Q 4.890625 38.53125 12.0625 45.90625 
Q 18.265625 52.203125 27.390625 52.203125 
Q 37.25 52.203125 44.484375 43.890625 
L 44.484375 74.90625 
L 52.984375 74.90625 
z
M 44.484375 20.359375 
L 44.484375 32.765625 
Q 44.484375 37.703125 38.375 42.28125 
Q 34.078125 45.40625 28.953125 45.40625 
Q 23.1875 45.40625 19.1875 41.40625 
Q 13.875 36.078125 13.875 26.21875 
Q 13.875 17.328125 18.265625 11.71875 
Q 22.515625 6.390625 28.859375 6.390625 
Q 36.28125 6.390625 41.5 13.671875 
Q 44.484375 17.71875 44.484375 20.359375 
z
" id="IPAPGothic-100"/>
      <path d="M 34.90625 39.796875 
Q 30.28125 45.796875 23.1875 45.796875 
Q 13.921875 45.796875 13.921875 38.671875 
Q 13.921875 33.640625 23.921875 30.375 
L 27.203125 29.296875 
Q 41.40625 24.65625 41.40625 13.96875 
Q 41.40625 6.78125 35.5 2.6875 
Q 30.8125 -0.484375 23.390625 -0.484375 
Q 11.96875 -0.484375 4 7.859375 
L 9.421875 12.796875 
Q 15.578125 6.203125 23.6875 6.203125 
Q 33.296875 6.203125 33.296875 13.671875 
Q 33.296875 19.34375 22.703125 23.09375 
L 19.28125 24.265625 
Q 5.90625 28.953125 5.90625 37.984375 
Q 5.90625 43.703125 9.8125 47.609375 
Q 14.5 52.296875 22.703125 52.296875 
Q 33.6875 52.296875 40.71875 44.671875 
z
" id="IPAPGothic-115"/>
     </defs>
     <g transform="translate(22.62625 196.710187)rotate(-90)scale(0.12 -0.12)">
      <use xlink:href="#IPAPGothic-114"/>
      <use x="37.011719" xlink:href="#IPAPGothic-101"/>
      <use x="93.896484" xlink:href="#IPAPGothic-119"/>
      <use x="169.091797" xlink:href="#IPAPGothic-97"/>
      <use x="224.072266" xlink:href="#IPAPGothic-114"/>
      <use x="261.083984" xlink:href="#IPAPGothic-100"/>
      <use x="323.486328" xlink:href="#IPAPGothic-115"/>
     </g>
    </g>
   </g>
   <g id="line2d_21">
    <path clip-path="url(#p90c5250a54)" d="M 57.6 291.383796 
L 58.314955 284.99948 
L 58.672432 287.279593 
L 59.02991 283.631412 
L 59.387387 290.471751 
L 59.744865 278.15914 
L 60.102342 284.315446 
L 60.45982 284.771468 
L 61.174775 295.488 
L 61.532252 281.807321 
L 61.88973 285.227491 
L 62.247207 284.087434 
L 62.604685 290.699762 
L 63.31964 285.455502 
L 63.677117 280.211242 
L 64.034595 280.895276 
L 64.392072 288.191638 
L 64.74955 286.82357 
L 65.107027 280.895276 
L 65.464505 282.035333 
L 65.821982 282.491355 
L 66.179459 283.403401 
L 66.536937 287.963627 
L 66.894414 289.559706 
L 67.251892 283.403401 
L 67.609369 284.087434 
L 67.966847 280.667265 
L 68.324324 281.351299 
L 68.681802 280.439254 
L 69.039279 284.087434 
L 69.396757 285.683514 
L 69.754234 282.491355 
L 70.469189 287.279593 
L 70.826667 279.527208 
L 71.184144 287.279593 
L 71.541622 276.563061 
L 71.899099 281.807321 
L 72.256577 282.947378 
L 72.614054 282.263344 
L 72.971532 287.963627 
L 73.329009 277.019084 
L 73.686486 286.367548 
L 74.043964 282.719367 
L 74.401441 290.24374 
L 74.758919 290.015729 
L 75.116396 280.667265 
L 75.473874 289.103683 
L 75.831351 282.263344 
L 76.188829 270.862779 
L 76.546306 284.99948 
L 77.261261 282.947378 
L 77.618739 277.019084 
L 77.976216 284.315446 
L 78.333694 284.771468 
L 78.691171 284.99948 
L 79.048649 272.230846 
L 79.406126 281.351299 
L 79.763604 276.33505 
L 80.121081 281.807321 
L 80.478559 285.455502 
L 80.836036 277.247095 
L 81.193514 280.895276 
L 81.550991 290.471751 
L 81.908468 279.75522 
L 82.265946 279.75522 
L 82.980901 287.051582 
L 83.338378 284.99948 
L 83.695856 290.24374 
L 84.053333 274.054937 
L 84.410811 279.527208 
L 85.483243 280.895276 
L 85.840721 280.439254 
L 86.198198 281.57931 
L 86.555676 289.787717 
L 86.913153 280.667265 
L 87.270631 284.087434 
L 87.628108 274.054937 
L 87.985586 285.227491 
L 88.343063 275.194993 
L 88.700541 285.227491 
L 89.058018 207.475634 
L 89.415495 206.7916 
L 89.772973 198.583193 
L 90.13045 199.267227 
L 90.487928 209.071713 
L 90.845405 196.30308 
L 91.202883 202.459385 
L 91.56036 235.521025 
L 91.917838 220.928302 
L 92.275315 211.123815 
L 92.632793 192.654899 
L 92.99027 219.560234 
L 93.347748 232.78489 
L 93.705225 199.039216 
L 94.062703 209.983759 
L 94.42018 186.954616 
L 94.777658 211.579838 
L 95.135135 226.628584 
L 95.492613 211.351827 
L 95.85009 233.240912 
L 96.207568 199.951261 
L 96.565045 206.335578 
L 96.922523 216.596087 
L 97.28 220.244268 
L 98.352432 198.355182 
L 98.70991 227.54063 
L 99.067387 193.566944 
L 99.424865 205.423533 
L 99.782342 190.602797 
L 100.13982 214.315974 
L 100.497297 230.048754 
L 100.854775 238.02915 
L 101.56973 207.019612 
L 101.927207 235.521025 
L 102.284685 208.159668 
L 102.642162 229.136709 
L 102.99964 237.801139 
L 103.357117 192.88291 
L 103.714595 206.563589 
L 104.072072 197.215125 
L 104.42955 203.371431 
L 104.787027 253.533919 
L 105.144505 207.019612 
L 105.859459 181.938368 
L 106.216937 219.560234 
L 106.574414 190.374786 
L 106.931892 212.491883 
L 107.289369 218.648189 
L 107.646847 206.7916 
L 108.004324 241.905342 
L 108.361802 197.443137 
L 108.719279 227.084607 
L 109.076757 196.075069 
L 109.791712 211.579838 
L 110.149189 222.524381 
L 110.506667 191.970865 
L 110.864144 239.169206 
L 111.221622 212.947906 
L 111.579099 233.240912 
L 112.294054 182.850413 
L 112.651532 175.782062 
L 113.009009 259.234202 
L 113.366486 213.63194 
L 113.723964 221.384324 
L 114.081441 215.228019 
L 114.438919 227.996652 
L 114.796396 199.039216 
L 115.153874 211.579838 
L 115.511351 213.175917 
L 115.868829 187.182628 
L 116.226306 173.957972 
L 116.583784 235.293014 
L 117.298739 215.45603 
L 117.656216 190.830809 
L 118.013694 204.055465 
L 118.371171 231.188811 
L 118.728649 197.215125 
L 119.086126 225.488528 
L 119.443604 225.716539 
L 119.801081 202.003363 
L 120.158559 206.7916 
L 120.516036 179.886266 
L 120.873514 224.12046 
L 121.230991 194.47899 
L 121.588468 208.843702 
L 121.945946 239.625229 
L 122.303423 211.351827 
L 123.018378 191.742854 
L 123.375856 262.198349 
L 123.733333 226.172562 
L 124.090811 221.384324 
L 124.448288 184.218481 
L 124.805766 236.661082 
L 125.163243 169.397746 
L 125.520721 217.964155 
L 126.235676 176.466096 
L 126.950631 221.384324 
L 127.308108 200.407284 
L 127.665586 243.27341 
L 128.023063 181.938368 
L 128.380541 176.694107 
L 128.738018 181.254334 
L 129.095495 206.7916 
L 129.452973 205.879555 
L 129.81045 206.7916 
L 130.167928 195.391035 
L 130.525405 250.569772 
L 130.882883 206.335578 
L 131.24036 222.068358 
L 131.955315 177.834164 
L 132.312793 230.504777 
L 132.67027 199.039216 
L 133.027748 179.658254 
L 133.385225 193.566944 
L 133.742703 224.12046 
L 134.10018 188.094673 
L 134.457658 180.798311 
L 134.815135 224.576483 
L 135.172613 194.022967 
L 135.53009 215.912053 
L 135.887568 225.032505 
L 136.245045 222.752392 
L 136.602523 200.863306 
L 136.96 219.104211 
L 137.317477 245.325512 
L 137.674955 195.619046 
L 138.032432 204.739499 
L 138.38991 170.081779 
L 138.747387 212.035861 
L 139.462342 183.534447 
L 139.81982 160.049282 
L 140.177297 190.602797 
L 140.534775 208.38768 
L 140.892252 196.531091 
L 141.24973 222.752392 
L 141.607207 197.899159 
L 141.964685 132.231902 
L 142.322162 197.443137 
L 142.67964 180.5703 
L 143.037117 143.632467 
L 143.394595 192.426888 
L 143.752072 189.23473 
L 144.10955 195.619046 
L 144.467027 215.000008 
L 144.824505 221.156313 
L 145.181982 196.30308 
L 145.539459 188.778707 
L 145.896937 221.384324 
L 146.254414 208.38768 
L 146.611892 222.068358 
L 146.969369 173.273938 
L 147.684324 220.928302 
L 148.041802 219.332222 
L 148.399279 160.049282 
L 148.756757 184.674503 
L 149.114234 190.146775 
L 149.471712 209.983759 
L 149.829189 176.238085 
L 150.186667 178.062175 
L 150.544144 200.179272 
L 150.901622 193.566944 
L 151.259099 192.426888 
L 151.616577 211.807849 
L 151.974054 202.459385 
L 152.689009 170.537802 
L 153.046486 198.127171 
L 153.403964 182.166379 
L 153.761441 222.752392 
L 154.118919 181.938368 
L 154.476396 205.879555 
L 154.833874 214.087962 
L 155.191351 190.374786 
L 155.906306 201.319329 
L 156.263784 149.33275 
L 156.621261 152.75292 
L 156.978739 212.719894 
L 157.336216 198.127171 
L 157.693694 161.645361 
L 158.051171 206.107566 
L 158.408649 231.188811 
L 159.123604 163.013429 
L 159.481081 168.4857 
L 159.838559 207.703646 
L 160.196036 175.554051 
L 160.910991 209.755747 
L 161.268468 141.124343 
L 161.625946 197.671148 
L 161.983423 197.899159 
L 162.340901 199.951261 
L 162.698378 206.7916 
L 163.055856 186.726605 
L 163.413333 240.309263 
L 163.770811 203.827453 
L 164.128288 199.72325 
L 164.485766 219.788245 
L 164.843243 220.472279 
L 165.558198 175.32604 
L 166.273153 216.824098 
L 166.630631 198.811205 
L 166.988108 167.801666 
L 167.703063 226.628584 
L 168.060541 168.257689 
L 168.418018 191.286831 
L 168.775495 186.270582 
L 169.132973 160.049282 
L 169.49045 205.879555 
L 169.847928 191.05882 
L 170.205405 233.240912 
L 170.562883 128.127698 
L 170.92036 186.042571 
L 171.277838 219.332222 
L 171.635315 202.003363 
L 171.992793 206.107566 
L 172.35027 225.032505 
L 173.065225 156.17309 
L 173.78018 197.899159 
L 174.137658 175.098028 
L 174.495135 212.491883 
L 174.852613 174.642006 
L 175.21009 230.960799 
L 175.567568 227.084607 
L 175.925045 189.23473 
L 176.282523 206.335578 
L 176.64 215.45603 
L 176.997477 163.469451 
L 177.354955 192.426888 
L 177.712432 206.7916 
L 178.06991 193.338933 
L 178.427387 186.270582 
L 178.784865 159.365248 
L 179.142342 194.47899 
L 179.857297 223.892449 
L 180.214775 188.550696 
L 180.572252 200.179272 
L 180.92973 193.338933 
L 181.287207 208.38768 
L 181.644685 157.99718 
L 182.002162 147.964682 
L 182.35964 209.983759 
L 182.717117 191.970865 
L 183.074595 210.21177 
L 183.432072 172.361893 
L 183.78955 185.81456 
L 184.147027 136.336106 
L 184.504505 208.843702 
L 184.861982 182.622402 
L 185.219459 178.518198 
L 185.576937 171.677859 
L 186.291892 187.410639 
L 186.649369 162.329395 
L 187.006847 199.72325 
L 187.364324 188.778707 
L 187.721802 163.697463 
L 188.436757 203.827453 
L 188.794234 148.876728 
L 189.151712 191.742854 
L 189.509189 184.902515 
L 189.866667 185.586549 
L 190.224144 142.492411 
L 190.581622 155.033033 
L 190.939099 195.619046 
L 191.296577 178.518198 
L 191.654054 206.335578 
L 192.011532 168.941723 
L 192.369009 198.583193 
L 193.083964 167.345644 
L 193.441441 165.293542 
L 193.798919 169.625757 
L 194.156396 188.094673 
L 194.513874 157.769169 
L 194.871351 164.837519 
L 195.586306 187.63865 
L 195.943784 161.645361 
L 196.301261 225.260516 
L 196.658739 132.231902 
L 197.016216 181.710356 
L 197.373694 178.062175 
L 197.731171 191.970865 
L 198.088649 199.72325 
L 198.803604 168.029678 
L 199.161081 183.078424 
L 199.518559 222.524381 
L 199.876036 175.32604 
L 200.590991 152.75292 
L 200.948468 155.717067 
L 201.305946 190.374786 
L 201.663423 172.361893 
L 202.020901 144.08849 
L 202.378378 188.094673 
L 202.735856 199.267227 
L 203.093333 188.778707 
L 203.450811 161.41735 
L 203.808288 185.358537 
L 204.165766 185.130526 
L 204.523243 181.938368 
L 204.880721 148.648716 
L 205.595676 182.850413 
L 205.953153 159.137237 
L 206.310631 158.681214 
L 206.668108 140.896332 
L 207.025586 203.371431 
L 207.383063 196.759103 
L 207.740541 182.622402 
L 208.098018 143.860479 
L 208.455495 180.114277 
L 208.812973 170.537802 
L 209.17045 239.625229 
L 209.527928 175.782062 
L 209.885405 197.443137 
L 210.242883 166.66161 
L 210.60036 179.202232 
L 210.957838 139.984287 
L 211.315315 157.313146 
L 211.672793 188.322684 
L 212.03027 156.857123 
L 212.387748 213.63194 
L 212.745225 155.261044 
L 213.102703 237.801139 
L 213.46018 173.501949 
L 213.817658 168.029678 
L 214.175135 197.215125 
L 214.89009 166.66161 
L 215.247568 155.717067 
L 215.605045 180.342288 
L 215.962523 178.518198 
L 216.32 185.130526 
L 216.677477 176.010074 
L 217.034955 189.23473 
L 217.392432 121.971393 
L 217.74991 184.902515 
L 218.107387 208.159668 
L 218.464865 152.524909 
L 218.822342 174.642006 
L 219.17982 161.645361 
L 219.537297 194.47899 
L 219.894775 197.443137 
L 220.252252 143.404456 
L 220.60973 132.915936 
L 220.967207 179.202232 
L 221.324685 172.361893 
L 221.682162 143.176445 
L 222.03964 162.557406 
L 222.397117 223.436426 
L 222.754595 178.974221 
L 223.112072 166.433598 
L 223.46955 203.599442 
L 224.184505 152.524909 
L 224.541982 163.013429 
L 224.899459 188.094673 
L 225.256937 187.182628 
L 225.614414 152.296897 
L 225.971892 210.439781 
L 226.329369 180.342288 
L 226.686847 179.202232 
L 227.044324 116.499122 
L 227.401802 189.006718 
L 227.759279 193.338933 
L 228.116757 182.39439 
L 228.474234 191.970865 
L 228.831712 178.290187 
L 229.189189 178.518198 
L 229.546667 228.908697 
L 229.904144 180.342288 
L 230.261622 187.63865 
L 230.619099 181.710356 
L 230.976577 153.436954 
L 231.334054 160.277293 
L 231.691532 149.104739 
L 232.049009 176.922119 
L 232.406486 158.453203 
L 232.763964 183.534447 
L 233.121441 141.352354 
L 233.478919 178.518198 
L 233.836396 186.954616 
L 234.193874 161.873372 
L 234.551351 196.987114 
L 234.908829 173.957972 
L 235.266306 186.954616 
L 235.623784 191.742854 
L 235.981261 152.980931 
L 236.338739 155.489056 
L 236.696216 165.977576 
L 237.053694 136.792128 
L 237.411171 144.316501 
L 237.768649 194.935012 
L 238.126126 155.945078 
L 238.483604 178.290187 
L 238.841081 160.961327 
L 239.198559 200.179272 
L 239.556036 174.413994 
L 239.913514 112.622929 
L 240.628468 194.935012 
L 240.985946 191.742854 
L 241.343423 137.932185 
L 241.700901 193.566944 
L 242.058378 170.081779 
L 242.415856 123.567472 
L 242.773333 166.205587 
L 243.130811 160.277293 
L 243.488288 150.472807 
L 243.845766 189.690752 
L 244.203243 102.134409 
L 244.560721 164.837519 
L 244.918198 192.654899 
L 245.275676 157.085135 
L 245.633153 160.733316 
L 245.990631 142.948434 
L 246.348108 187.63865 
L 246.705586 138.616219 
L 247.063063 148.420705 
L 247.420541 170.993825 
L 247.778018 101.678386 
L 248.492973 165.977576 
L 248.85045 154.805022 
L 249.207928 162.785418 
L 249.565405 165.293542 
L 249.922883 194.707001 
L 250.28036 145.228547 
L 250.637838 181.710356 
L 250.995315 122.427416 
L 251.352793 135.196049 
L 251.71027 196.531091 
L 252.067748 167.573655 
L 252.425225 198.811205 
L 252.782703 131.547868 
L 253.14018 169.397746 
L 253.497658 144.08849 
L 253.855135 135.196049 
L 254.212613 157.769169 
L 254.57009 135.196049 
L 254.927568 92.785945 
L 255.285045 154.120988 
L 255.642523 165.521553 
L 256 170.765813 
L 256.357477 158.681214 
L 256.714955 181.482345 
L 257.072432 162.329395 
L 257.787387 183.078424 
L 258.144865 173.72996 
L 258.502342 174.185983 
L 258.85982 146.824626 
L 259.217297 164.381497 
L 259.574775 164.381497 
L 259.932252 124.023495 
L 260.28973 122.655427 
L 260.647207 192.426888 
L 261.004685 182.850413 
L 261.362162 136.336106 
L 261.71964 128.811732 
L 262.077117 168.029678 
L 262.434595 168.257689 
L 262.792072 197.671148 
L 263.14955 183.078424 
L 263.507027 184.218481 
L 263.864505 132.687925 
L 264.221982 155.717067 
L 264.579459 187.63865 
L 264.936937 187.182628 
L 265.294414 159.593259 
L 265.651892 144.316501 
L 266.009369 164.381497 
L 266.366847 171.449847 
L 266.724324 147.736671 
L 267.081802 165.293542 
L 267.439279 132.231902 
L 267.796757 145.912581 
L 268.154234 181.710356 
L 268.511712 185.358537 
L 268.869189 157.313146 
L 269.584144 176.466096 
L 269.941622 151.612863 
L 270.299099 190.602797 
L 270.656577 149.788773 
L 271.014054 174.642006 
L 271.371532 124.251506 
L 271.729009 142.948434 
L 272.086486 186.042571 
L 272.443964 188.094673 
L 273.158919 141.352354 
L 273.516396 178.290187 
L 273.873874 159.365248 
L 274.231351 171.449847 
L 274.588829 162.101384 
L 274.946306 175.32604 
L 275.303784 177.378141 
L 276.018739 153.892976 
L 276.376216 180.114277 
L 276.733694 164.609508 
L 277.091171 178.290187 
L 277.448649 158.225191 
L 277.806126 209.299725 
L 278.521081 142.492411 
L 278.878559 194.250978 
L 279.236036 106.238613 
L 279.593514 144.316501 
L 279.950991 121.287359 
L 280.308468 205.195521 
L 280.665946 152.068886 
L 281.023423 146.140592 
L 281.380901 116.955144 
L 281.738378 163.013429 
L 282.095856 172.817915 
L 282.453333 126.531619 
L 282.810811 166.889621 
L 283.168288 145.684569 
L 283.525766 143.632467 
L 283.883243 184.902515 
L 284.240721 202.459385 
L 284.598198 168.713712 
L 284.955676 157.541157 
L 285.313153 177.606153 
L 285.670631 145.000535 
L 286.028108 140.66832 
L 286.385586 176.238085 
L 286.743063 141.124343 
L 287.458018 169.169734 
L 287.815495 193.338933 
L 288.172973 188.550696 
L 288.53045 170.993825 
L 288.887928 139.984287 
L 289.245405 158.909225 
L 289.602883 160.277293 
L 289.96036 181.254334 
L 290.317838 161.41735 
L 290.675315 74.317029 
L 291.032793 173.273938 
L 291.39027 134.055992 
L 291.747748 144.772524 
L 292.105225 130.407811 
L 292.462703 151.384852 
L 292.82018 101.450375 
L 293.177658 169.853768 
L 293.535135 126.987642 
L 293.892613 149.560762 
L 294.25009 152.296897 
L 294.607568 163.469451 
L 294.965045 144.316501 
L 295.322523 144.772524 
L 296.037477 170.081779 
L 296.394955 173.957972 
L 296.752432 153.664965 
L 297.10991 164.609508 
L 297.467387 159.365248 
L 297.824865 160.505304 
L 298.182342 159.365248 
L 298.53982 131.775879 
L 298.897297 165.749565 
L 299.254775 87.313674 
L 299.612252 135.42406 
L 299.96973 140.212298 
L 300.327207 122.883438 
L 300.684685 197.899159 
L 301.042162 168.713712 
L 301.39964 155.033033 
L 301.757117 135.42406 
L 302.114595 153.208943 
L 302.472072 108.062703 
L 302.82955 170.081779 
L 303.187027 187.866662 
L 303.544505 138.84423 
L 303.901982 155.033033 
L 304.259459 157.769169 
L 304.616937 119.007246 
L 304.974414 141.352354 
L 305.331892 150.472807 
L 305.689369 127.443664 
L 306.046847 145.912581 
L 306.404324 108.974748 
L 306.761802 103.502477 
L 307.119279 144.772524 
L 307.476757 152.75292 
L 307.834234 138.160196 
L 308.191712 163.925474 
L 308.549189 161.873372 
L 308.906667 132.459913 
L 309.264144 158.681214 
L 309.621622 83.437482 
L 309.979099 143.860479 
L 310.336577 151.156841 
L 310.694054 94.838047 
L 311.051532 156.857123 
L 311.766486 142.2644 
L 312.123964 149.104739 
L 312.481441 114.44702 
L 312.838919 133.827981 
L 313.196396 122.655427 
L 313.553874 145.912581 
L 313.911351 83.893504 
L 314.268829 156.17309 
L 314.626306 90.961855 
L 314.983784 140.896332 
L 315.341261 150.472807 
L 315.698739 179.202232 
L 316.056216 132.459913 
L 316.413694 144.316501 
L 316.771171 136.336106 
L 317.128649 180.798311 
L 317.486126 147.280648 
L 317.843604 177.378141 
L 318.558559 121.059348 
L 318.916036 173.957972 
L 319.273514 113.990997 
L 319.630991 99.626285 
L 319.988468 172.361893 
L 320.345946 149.33275 
L 320.703423 151.384852 
L 321.060901 165.977576 
L 321.418378 116.727133 
L 321.775856 165.521553 
L 322.133333 161.41735 
L 322.490811 131.319857 
L 322.848288 183.078424 
L 323.205766 157.085135 
L 323.563243 150.016784 
L 323.920721 180.5703 
L 324.278198 116.499122 
L 324.993153 152.296897 
L 325.350631 141.352354 
L 325.708108 103.730488 
L 326.065586 151.612863 
L 326.423063 84.805549 
L 326.780541 173.501949 
L 327.138018 85.717595 
L 327.495495 121.743382 
L 327.852973 106.694635 
L 328.21045 116.499122 
L 328.567928 120.831336 
L 328.925405 112.622929 
L 329.282883 93.241968 
L 329.64036 159.365248 
L 329.997838 176.010074 
L 330.355315 124.023495 
L 330.712793 145.912581 
L 331.07027 123.795484 
L 331.427748 173.273938 
L 331.785225 100.082307 
L 332.50018 134.055992 
L 332.857658 142.2644 
L 333.215135 119.919291 
L 333.572613 125.619574 
L 333.93009 103.502477 
L 334.287568 119.919291 
L 334.645045 130.863834 
L 335.002523 150.700818 
L 335.36 145.456558 
L 335.717477 121.287359 
L 336.074955 170.537802 
L 336.432432 128.35571 
L 336.78991 158.453203 
L 337.147387 115.815088 
L 337.504865 160.505304 
L 337.862342 148.648716 
L 338.21982 180.798311 
L 338.577297 169.853768 
L 338.934775 70.668848 
L 339.64973 147.052637 
L 340.364685 113.078952 
L 340.722162 137.932185 
L 341.07964 89.137764 
L 341.437117 103.730488 
L 341.794595 149.104739 
L 342.152072 163.469451 
L 342.50955 138.160196 
L 343.224505 160.505304 
L 343.581982 108.974748 
L 343.939459 108.062703 
L 344.296937 122.199404 
L 344.654414 67.47669 
L 345.011892 133.143947 
L 345.369369 122.199404 
L 345.726847 106.694635 
L 346.084324 124.479517 
L 346.441802 149.560762 
L 346.799279 134.284004 
L 347.156757 103.730488 
L 347.514234 94.382025 
L 347.871712 132.003891 
L 348.229189 111.482873 
L 348.586667 138.388207 
L 348.944144 94.610036 
L 349.301622 106.010601 
L 349.659099 188.094673 
L 350.016577 103.274466 
L 350.374054 153.208943 
L 350.731532 167.345644 
L 351.089009 116.499122 
L 351.446486 127.215653 
L 351.803964 130.407811 
L 352.161441 128.583721 
L 352.518919 135.880083 
L 352.876396 169.625757 
L 353.233874 178.974221 
L 353.591351 87.313674 
L 353.948829 105.098556 
L 354.306306 143.176445 
L 354.663784 97.11816 
L 355.021261 157.769169 
L 355.378739 118.323212 
L 355.736216 131.775879 
L 356.093694 123.567472 
L 356.451171 142.2644 
L 357.166126 129.267755 
L 357.523604 133.59997 
L 357.881081 124.707529 
L 358.238559 139.984287 
L 358.596036 165.749565 
L 358.953514 85.489583 
L 359.310991 141.124343 
L 359.668468 89.365776 
L 360.025946 95.978104 
L 360.383423 91.8739 
L 360.740901 84.121516 
L 361.455856 160.961327 
L 361.813333 174.185983 
L 362.170811 153.208943 
L 362.528288 99.398273 
L 362.885766 136.336106 
L 363.243243 120.831336 
L 363.600721 146.368603 
L 363.958198 155.033033 
L 364.315676 157.085135 
L 364.673153 137.704173 
L 365.030631 140.66832 
L 365.388108 138.616219 
L 365.745586 143.860479 
L 366.103063 134.284004 
L 366.460541 160.277293 
L 366.818018 116.727133 
L 367.175495 147.964682 
L 367.89045 97.802194 
L 368.247928 172.817915 
L 368.605405 150.244795 
L 368.962883 151.612863 
L 369.32036 138.616219 
L 369.677838 121.51537 
L 370.035315 137.248151 
L 370.392793 164.837519 
L 370.75027 162.329395 
L 371.107748 164.153485 
L 371.465225 109.658782 
L 371.822703 125.391563 
L 372.18018 125.619574 
L 372.537658 79.561289 
L 373.252613 176.694107 
L 373.61009 158.909225 
L 373.967568 176.922119 
L 374.325045 138.388207 
L 374.682523 133.143947 
L 375.04 113.990997 
L 375.397477 81.613391 
L 375.754955 72.72095 
L 376.112432 148.192694 
L 376.46991 146.824626 
L 376.827387 150.928829 
L 377.184865 98.030205 
L 377.542342 117.411167 
L 377.89982 163.697463 
L 378.257297 80.017312 
L 378.614775 127.671676 
L 378.972252 129.951789 
L 379.32973 175.554051 
L 379.687207 134.284004 
L 380.044685 147.052637 
L 380.402162 164.381497 
L 380.75964 166.889621 
L 381.117117 170.993825 
L 381.474595 107.834692 
L 381.832072 81.841402 
L 382.18955 114.675031 
L 382.547027 160.049282 
L 382.904505 109.886794 
L 383.261982 183.078424 
L 383.619459 122.883438 
L 383.976937 124.93554 
L 384.334414 146.596615 
L 385.049369 113.990997 
L 385.406847 161.189338 
L 385.764324 121.971393 
L 386.121802 145.912581 
L 386.836757 170.081779 
L 387.194234 84.349527 
L 387.909189 147.50866 
L 388.266667 78.877255 
L 388.624144 166.889621 
L 388.981622 135.652072 
L 389.339099 179.886266 
L 389.696577 153.892976 
L 390.411532 85.717595 
L 391.126486 147.50866 
L 391.483964 105.554579 
L 391.841441 148.192694 
L 392.198919 154.805022 
L 392.556396 100.53833 
L 392.913874 157.085135 
L 393.271351 85.489583 
L 393.628829 112.166907 
L 393.986306 82.525436 
L 394.343784 126.987642 
L 394.701261 119.919291 
L 395.058739 86.857651 
L 395.773694 143.860479 
L 396.131171 144.316501 
L 396.488649 109.886794 
L 396.846126 127.215653 
L 397.203604 79.333278 
L 397.561081 112.394918 
L 397.918559 67.248679 
L 398.276036 122.655427 
L 398.633514 119.007246 
L 398.990991 103.046454 
L 399.348468 153.436954 
L 400.063423 110.114805 
L 400.420901 117.867189 
L 400.778378 135.652072 
L 401.135856 116.043099 
L 401.493333 134.512015 
L 401.850811 124.707529 
L 402.208288 150.244795 
L 402.565766 139.072241 
L 403.280721 87.541685 
L 403.638198 111.02685 
L 403.995676 87.541685 
L 404.353153 122.427416 
L 404.710631 143.404456 
L 405.068108 91.417877 
L 405.425586 142.492411 
L 405.783063 107.60668 
L 406.140541 111.482873 
L 406.498018 142.036388 
L 406.855495 127.899687 
L 407.212973 76.369131 
L 407.57045 123.11145 
L 407.927928 84.121516 
L 408.285405 60.864362 
L 408.642883 146.368603 
L 409.00036 82.753448 
L 409.357838 82.525436 
L 409.715315 143.404456 
L 410.072793 73.176973 
L 410.43027 102.36242 
L 410.787748 111.254861 
L 411.145225 159.365248 
L 411.502703 167.117632 
L 411.86018 160.277293 
L 412.217658 93.926002 
L 412.575135 53.568 
L 412.932613 62.460441 
L 413.29009 86.401629 
L 413.647568 140.212298 
L 414.005045 166.433598 
L 414.362523 124.251506 
L 414.72 113.306963 
L 414.72 113.306963 
" style="fill:none;stroke:#348abd;stroke-linecap:square;stroke-width:2;"/>
   </g>
   <g id="patch_3">
    <path d="M 57.6 307.584 
L 57.6 41.472 
" style="fill:none;stroke:#bcbcbc;stroke-linecap:square;stroke-linejoin:miter;stroke-width:0.8;"/>
   </g>
   <g id="patch_4">
    <path d="M 414.72 307.584 
L 414.72 41.472 
" style="fill:none;stroke:#bcbcbc;stroke-linecap:square;stroke-linejoin:miter;stroke-width:0.8;"/>
   </g>
   <g id="patch_5">
    <path d="M 57.6 307.584 
L 414.72 307.584 
" style="fill:none;stroke:#bcbcbc;stroke-linecap:square;stroke-linejoin:miter;stroke-width:0.8;"/>
   </g>
   <g id="patch_6">
    <path d="M 57.6 41.472 
L 414.72 41.472 
" style="fill:none;stroke:#bcbcbc;stroke-linecap:square;stroke-linejoin:miter;stroke-width:0.8;"/>
   </g>
   <g id="legend_1">
    <g id="patch_7">
     <path d="M 64.6 63.862625 
L 133.570312 63.862625 
Q 135.570312 63.862625 135.570312 61.862625 
L 135.570312 48.472 
Q 135.570312 46.472 133.570312 46.472 
L 64.6 46.472 
Q 62.6 46.472 62.6 48.472 
L 62.6 61.862625 
Q 62.6 63.862625 64.6 63.862625 
z
" style="fill:#eeeeee;opacity:0.8;stroke:#cccccc;stroke-linejoin:miter;stroke-width:0.5;"/>
    </g>
    <g id="line2d_22">
     <path d="M 66.6 54.462625 
L 86.6 54.462625 
" style="fill:none;stroke:#348abd;stroke-linecap:square;stroke-width:2;"/>
    </g>
    <g id="line2d_23"/>
    <g id="text_13">
     <!-- rewards -->
     <g transform="translate(94.6 57.962625)scale(0.1 -0.1)">
      <use xlink:href="#IPAPGothic-114"/>
      <use x="37.011719" xlink:href="#IPAPGothic-101"/>
      <use x="93.896484" xlink:href="#IPAPGothic-119"/>
      <use x="169.091797" xlink:href="#IPAPGothic-97"/>
      <use x="224.072266" xlink:href="#IPAPGothic-114"/>
      <use x="261.083984" xlink:href="#IPAPGothic-100"/>
      <use x="323.486328" xlink:href="#IPAPGothic-115"/>
     </g>
    </g>
   </g>
  </g>
 </g>
 <defs>
  <clipPath id="p90c5250a54">
   <rect height="266.112" width="357.12" x="57.6" y="41.472"/>
  </clipPath>
 </defs>
</svg>
