<?xml version="1.0" encoding="utf-8" standalone="no"?>
<!DOCTYPE svg PUBLIC "-//W3C//DTD SVG 1.1//EN"
  "http://www.w3.org/Graphics/SVG/1.1/DTD/svg11.dtd">
<!-- Created with matplotlib (https://matplotlib.org/) -->
<svg height="576pt" version="1.1" viewBox="0 0 576 576" width="576pt" xmlns="http://www.w3.org/2000/svg" xmlns:xlink="http://www.w3.org/1999/xlink">
 <defs>
  <style type="text/css">
*{stroke-linecap:butt;stroke-linejoin:round;}
  </style>
 </defs>
 <g id="figure_1">
  <g id="patch_1">
   <path d="M 0 576 
L 576 576 
L 576 0 
L 0 0 
z
" style="fill:#ffffff;"/>
  </g>
  <g id="axes_1">
   <g id="patch_2">
    <path d="M 46.24 503.124138 
L 562.68 503.124138 
L 562.68 72.875862 
L 46.24 72.875862 
z
" style="fill:#ffffff;"/>
   </g>
   <g id="PatchCollection_1">
    <path clip-path="url(#p5bb84efb0c)" d="M 104.066183 270.607841 
L 123.078046 273.050762 
L 127.800236 276.895151 
L 128.482473 279.239233 
L 130.355254 279.285375 
L 130.531323 286.626301 
L 132.646533 285.963103 
L 133.262494 286.975305 
L 140.114943 287.219886 
L 140.605687 283.609141 
L 136.295412 283.262298 
L 136.331921 281.718153 
L 132.37122 278.331774 
L 146.48436 283.142556 
L 149.784349 286.599423 
L 151.775985 286.914839 
L 151.796504 288.230946 
L 161.747071 289.614872 
L 168.086136 292.523642 
L 200.191261 283.764111 
L 200.590782 285.187195 
L 214.624597 284.063706 
L 214.758586 290.411483 
L 216.578273 294.21087 
L 230.290079 311.676691 
L 229.913916 321.67557 
L 232.641412 327.992252 
L 223.711745 346.326313 
L 221.566133 345.957177 
L 219.497072 343.452293 
L 213.687925 340.208806 
L 203.349892 337.322377 
L 199.831017 337.574323 
L 200.870318 339.611528 
L 200.26094 343.139918 
L 202.431072 344.074111 
L 206.43953 354.951162 
L 204.164666 355.283632 
L 204.29101 357.317534 
L 202.122297 358.72633 
L 201.404904 363.591009 
L 202.840425 366.398351 
L 201.624627 367.054586 
L 208.830086 370.815517 
L 215.546701 368.596713 
L 220.627443 368.907261 
L 224.585031 375.568539 
L 225.064353 386.155921 
L 218.51254 390.201721 
L 210.624468 380.559885 
L 209.389979 381.765076 
L 206.958369 379.967369 
L 204.557158 380.731639 
L 203.67204 379.814666 
L 201.411777 381.466619 
L 197.467014 379.404141 
L 194.501482 380.770096 
L 192.307872 384.021231 
L 189.711476 382.894417 
L 188.614312 384.73057 
L 192.19654 387.275336 
L 195.496052 387.911798 
L 193.987294 388.053894 
L 191.467024 392.3645 
L 185.262767 389.150683 
L 183.064438 385.912314 
L 171.19643 379.090269 
L 167.557809 375.353139 
L 160.893603 371.883706 
L 160.76177 370.365784 
L 152.308964 366.97032 
L 143.298472 361.243603 
L 139.317082 361.803529 
L 134.848281 358.47435 
L 131.525327 357.738276 
L 125.826059 358.843152 
L 118.557982 355.039003 
L 109.679683 356.210127 
L 105.902628 355.075998 
L 105.031838 347.979654 
L 105.875936 347.029357 
L 108.871494 347.995036 
L 111.018936 344.005961 
L 108.733111 343.092279 
L 109.477983 340.579047 
L 107.267564 338.433441 
L 107.446266 335.786141 
L 102.517535 333.143604 
L 98.256762 325.132521 
L 101.694708 322.496195 
L 102.478429 318.509688 
L 105.019493 319.863148 
L 108.310952 318.849118 
L 108.177681 311.665669 
L 109.657163 311.447371 
L 109.364957 307.943185 
L 105.50333 304.081906 
L 105.61579 298.724679 
L 101.057665 295.055333 
L 105.755353 292.637282 
L 103.616375 286.412883 
L 95.689555 282.615729 
L 102.038435 282.135272 
L 100.980138 277.939644 
L 103.324579 274.375731 
L 99.422324 271.210619 
L 107.969208 271.694735 
L 99.660737 270.447443 
L 104.066183 270.607841 
" style="fill:#1f77b4;"/>
    <path clip-path="url(#p5bb84efb0c)" d="M 360.566889 252.221308 
L 367.830212 254.52218 
L 368.145109 259.368913 
L 372.887836 265.997971 
L 372.406975 269.312126 
L 367.535269 275.855098 
L 365.54124 281.150067 
L 368.02916 292.832765 
L 368.722956 305.205027 
L 346.510586 318.673886 
L 342.22049 314.425241 
L 346.536474 311.502372 
L 345.041433 310.047542 
L 340.733279 312.965837 
L 339.348406 312.066515 
L 339.253078 306.589652 
L 340.377514 305.829693 
L 342.424791 307.838525 
L 343.751373 306.944428 
L 339.216024 302.750418 
L 335.740015 305.326741 
L 328.389009 301.585373 
L 327.24937 300.282044 
L 327.163379 288.843275 
L 322.217769 287.215457 
L 334.567033 283.777556 
L 343.318339 276.002265 
L 344.080838 267.962987 
L 342.465914 264.794942 
L 343.4631 261.64887 
L 356.375984 256.800678 
L 359.489474 254.50383 
L 358.805065 252.471757 
L 360.566889 252.221308 
" style="fill:#1f77b4;"/>
    <path clip-path="url(#p5bb84efb0c)" d="M 160.934145 200.89485 
L 162.996981 201.024118 
L 165.014368 204.951683 
L 166.803276 204.986103 
L 169.002683 210.42389 
L 170.508516 210.81463 
L 171.300614 212.770906 
L 176.22059 214.174938 
L 181.261083 213.936176 
L 181.311661 212.280921 
L 185.317229 212.09525 
L 197.377192 213.487203 
L 197.383776 212.425238 
L 201.288664 211.621787 
L 204.450562 206.332306 
L 208.653539 206.150708 
L 212.978108 203.322129 
L 217.228688 203.957498 
L 221.565295 207.095149 
L 218.130906 214.73857 
L 218.553835 219.19676 
L 215.905765 220.826337 
L 215.696266 222.93421 
L 218.234099 221.411526 
L 223.057397 223.442506 
L 223.275633 228.162536 
L 226.682441 230.196071 
L 224.693901 232.6903 
L 227.911388 234.195037 
L 236.059915 232.460695 
L 238.806459 233.667701 
L 239.446205 232.609002 
L 243.136105 232.985466 
L 235.280179 238.423991 
L 233.994002 244.613934 
L 235.285975 248.772931 
L 229.503109 258.099052 
L 224.685232 260.990246 
L 212.7768 271.938628 
L 208.210177 273.974005 
L 204.137205 278.361479 
L 203.308478 278.721457 
L 202.145397 276.672173 
L 204.233882 277.053756 
L 204.46679 275.204788 
L 199.802051 273.377057 
L 197.410725 273.999231 
L 198.499458 272.673942 
L 196.915619 271.397705 
L 197.252163 269.60184 
L 198.629496 268.06381 
L 197.431636 267.668309 
L 196.847548 265.09315 
L 201.047224 264.105118 
L 206.323957 260.162958 
L 208.118764 255.737726 
L 206.667136 255.797052 
L 204.000052 253.290008 
L 199.415491 253.873367 
L 198.692626 252.122907 
L 201.221328 248.54031 
L 199.306433 245.659045 
L 199.075032 241.372965 
L 195.501592 240.898362 
L 195.531653 235.383671 
L 186.063365 235.682863 
L 175.2555 232.374564 
L 173.70131 230.648999 
L 173.866523 228.085192 
L 167.511744 225.791648 
L 161.21151 225.198026 
L 160.108891 223.132994 
L 160.795899 221.543692 
L 157.002001 219.841571 
L 150.847622 208.563901 
L 154.770501 202.77238 
L 154.592515 201.258854 
L 160.934145 200.89485 
" style="fill:#1f77b4;"/>
    <path clip-path="url(#p5bb84efb0c)" d="M 264.924912 126.346186 
L 277.94718 127.006781 
L 279.930932 127.931448 
L 282.859069 132.48266 
L 295.263955 128.827197 
L 300.951135 131.81616 
L 301.074846 143.720779 
L 297.704939 151.837733 
L 299.02841 154.966964 
L 311.788822 159.19518 
L 322.219497 157.671391 
L 326.992284 155.021158 
L 328.759974 156.171785 
L 329.893336 159.220075 
L 328.249393 161.586141 
L 314.262104 169.873707 
L 316.615711 173.106196 
L 327.025833 175.222132 
L 326.529223 177.445009 
L 317.69598 176.7375 
L 316.234776 181.46412 
L 322.728331 182.6931 
L 323.622615 184.8171 
L 326.810059 184.773513 
L 326.017567 187.605748 
L 331.692657 190.613038 
L 334.775369 189.351826 
L 334.894756 191.051381 
L 340.49001 192.878388 
L 341.582009 195.782765 
L 344.376157 197.576443 
L 334.670192 201.485324 
L 334.219358 203.121897 
L 331.451953 202.966986 
L 331.839027 204.263723 
L 329.627513 205.909451 
L 321.543517 201.287206 
L 316.636725 199.897079 
L 312.010477 195.008232 
L 311.474693 196.335362 
L 308.664422 196.183398 
L 309.16652 193.766439 
L 305.848337 192.019993 
L 296.188882 193.902668 
L 292.512215 190.43872 
L 293.633899 188.098298 
L 287.403275 188.59195 
L 282.896311 193.716258 
L 284.029348 194.818546 
L 282.939896 195.138938 
L 276.991973 192.452848 
L 276.334306 188.158358 
L 279.879943 185.153633 
L 280.539199 177.36737 
L 270.665254 166.286382 
L 259.052549 159.647442 
L 253.657013 140.169358 
L 254.600389 137.368977 
L 253.446473 136.69736 
L 248.554675 139.26886 
L 243.991009 138.616282 
L 239.112789 136.26011 
L 236.632136 132.802434 
L 238.266144 128.133678 
L 246.469594 117.150757 
L 257.541469 124.396503 
L 264.924912 126.346186 
" style="fill:#1f77b4;"/>
    <path clip-path="url(#p5bb84efb0c)" d="M 346.67161 242.659273 
L 347.720384 243.532301 
L 347.073302 245.063048 
L 356.595776 247.103175 
L 356.047168 250.073837 
L 359.584716 250.36721 
L 358.684551 253.817926 
L 359.489474 254.50383 
L 353.055201 258.3922 
L 343.4631 261.64887 
L 342.465914 264.794942 
L 344.080838 267.962987 
L 343.318339 276.002265 
L 334.567033 283.777556 
L 322.217769 287.215457 
L 315.888605 285.994898 
L 313.203583 287.543214 
L 302.105718 281.783154 
L 299.091881 275.392503 
L 295.214078 275.385912 
L 291.743951 271.301584 
L 290.161617 266.60063 
L 291.709241 261.853879 
L 300.435991 256.186841 
L 309.247792 244.496852 
L 315.292753 243.420943 
L 331.424151 245.448289 
L 335.723037 247.528702 
L 340.631334 247.934467 
L 338.148818 245.190121 
L 338.639168 244.051584 
L 342.754992 243.101275 
L 343.076197 240.484736 
L 346.900122 240.822386 
L 346.67161 242.659273 
" style="fill:#1f77b4;"/>
    <path clip-path="url(#p5bb84efb0c)" d="M 338.498991 230.012132 
L 337.200825 229.630027 
L 337.637383 227.196963 
L 335.655101 224.765349 
L 341.150753 226.688667 
L 334.005756 218.703546 
L 336.257998 211.189774 
L 333.947278 206.417381 
L 337.68986 211.243969 
L 342.593028 210.460293 
L 351.7826 214.666169 
L 356.297909 215.094262 
L 357.995645 215.085471 
L 361.952892 210.810746 
L 368.550136 209.646579 
L 370.849948 206.383686 
L 372.802512 207.833541 
L 375.10819 207.685588 
L 375.938693 209.345594 
L 384.329617 208.976102 
L 395.256132 210.448974 
L 393.742895 220.048693 
L 392.093978 223.334474 
L 378.518759 237.279196 
L 367.830212 254.52218 
L 359.429815 252.060138 
L 359.584716 250.36721 
L 356.047168 250.073837 
L 356.595776 247.103175 
L 347.073302 245.063048 
L 346.900122 240.822386 
L 343.076197 240.484736 
L 343.108789 237.746612 
L 346.020852 238.022003 
L 345.814346 236.538134 
L 338.439672 236.059872 
L 338.501589 233.737764 
L 340.556371 233.763026 
L 338.752809 232.780863 
L 339.782585 232.550888 
L 339.768668 230.446306 
L 338.498991 230.012132 
" style="fill:#1f77b4;"/>
    <path clip-path="url(#p5bb84efb0c)" d="M 345.937699 350.534279 
L 347.633587 352.60297 
L 343.718936 354.673786 
L 339.804403 350.268853 
L 339.727612 345.338768 
L 341.222415 344.52281 
L 345.937699 350.534279 
" style="fill:#1f77b4;"/>
    <path clip-path="url(#p5bb84efb0c)" d="M 323.126296 356.029076 
L 324.899029 356.977926 
L 327.059449 356.066869 
L 329.863668 358.121212 
L 330.038968 359.78332 
L 332.275943 360.061229 
L 334.296236 367.88177 
L 347.044764 384.967967 
L 338.67082 389.175542 
L 336.851132 386.64872 
L 333.087278 386.480603 
L 333.094887 399.136307 
L 324.396727 399.241738 
L 324.454264 393.540319 
L 315.834487 394.057903 
L 316.766541 390.772408 
L 314.340025 389.895759 
L 315.308245 378.435492 
L 318.828762 373.222878 
L 320.506201 356.108212 
L 323.126296 356.029076 
" style="fill:#1f77b4;"/>
    <path clip-path="url(#p5bb84efb0c)" d="M 329.090465 346.415521 
L 328.750619 354.558069 
L 320.656228 354.337325 
L 321.150512 347.669845 
L 326.478935 347.611553 
L 326.325128 342.552781 
L 328.936144 342.460415 
L 329.090465 346.415521 
" style="fill:#1f77b4;"/>
    <path clip-path="url(#p5bb84efb0c)" d="M 276.22737 324.443171 
L 272.753174 326.908731 
L 272.598272 328.933846 
L 274.61383 331.301003 
L 274.113236 333.172311 
L 276.926792 333.789366 
L 279.893094 331.941527 
L 284.884475 333.187727 
L 286.010929 334.193692 
L 285.830758 336.912409 
L 288.663 336.336733 
L 288.622338 337.642258 
L 291.295647 339.282119 
L 291.780459 344.656188 
L 295.366722 344.947697 
L 297.277941 348.785898 
L 300.057091 348.463997 
L 300.425115 347.032137 
L 307.739393 346.238602 
L 309.189928 348.53179 
L 311.282791 348.903847 
L 319.001754 346.789597 
L 317.471554 370.786667 
L 313.515181 375.790128 
L 311.966909 392.334571 
L 301.53854 395.372728 
L 297.992153 395.127744 
L 297.904639 396.027149 
L 290.302565 396.022706 
L 288.753883 394.095376 
L 290.886346 389.713757 
L 288.711082 388.980569 
L 287.841696 386.779307 
L 278.411131 386.901628 
L 275.899699 390.120898 
L 273.729926 384.339652 
L 269.96973 382.655798 
L 269.706454 379.414876 
L 252.01685 377.510563 
L 248.248225 374.652697 
L 244.535634 369.496524 
L 245.093765 361.6685 
L 253.748016 352.836387 
L 254.131068 351.105334 
L 255.865415 350.530395 
L 245.519003 346.659592 
L 252.54104 345.23469 
L 255.904263 346.799895 
L 269.90147 341.080527 
L 269.645515 334.371633 
L 268.049604 329.868037 
L 270.836467 326.141159 
L 276.22737 324.443171 
" style="fill:#1f77b4;"/>
    <path clip-path="url(#p5bb84efb0c)" d="M 376.072544 241.395531 
L 381.649383 233.627569 
L 392.093978 223.334474 
L 396.849889 205.136796 
L 401.092432 199.800449 
L 401.555717 196.381908 
L 404.305954 192.875156 
L 409.288922 190.286089 
L 415.154771 199.441967 
L 438.018051 222.081575 
L 433.920181 224.977495 
L 429.240071 223.981778 
L 426.159138 226.765676 
L 427.488474 229.824595 
L 434.656588 233.894979 
L 427.995582 240.565784 
L 429.115042 243.563168 
L 422.893567 243.5738 
L 407.082968 236.983151 
L 408.40779 256.723846 
L 397.563673 258.206979 
L 398.101594 262.625619 
L 394.807896 262.77686 
L 394.923983 264.688085 
L 389.041942 264.974059 
L 388.784172 262.698092 
L 383.083417 262.962116 
L 381.349055 261.09594 
L 378.130849 262.650477 
L 377.684067 261.051626 
L 373.956838 260.707753 
L 373.848429 259.649422 
L 369.789376 261.655498 
L 368.794396 260.476687 
L 367.830212 254.52218 
L 376.072544 241.395531 
" style="fill:#1f77b4;"/>
    <path clip-path="url(#p5bb84efb0c)" d="M 404.416038 467.361259 
L 385.675487 483.567398 
L 382.242022 480.995053 
L 384.801688 478.71297 
L 383.242199 476.516506 
L 388.106159 471.426143 
L 390.985511 470.000139 
L 391.817639 470.650258 
L 408.549369 455.332561 
L 412.88088 453.407166 
L 416.757178 456.40448 
L 404.416038 467.361259 
" style="fill:#1f77b4;"/>
    <path clip-path="url(#p5bb84efb0c)" d="M 232.072182 363.799816 
L 238.690253 364.769534 
L 242.479756 367.155363 
L 248.248225 374.652697 
L 252.01685 377.510563 
L 269.706454 379.414876 
L 269.96973 382.655798 
L 273.729926 384.339652 
L 275.899699 390.120898 
L 278.411131 386.901628 
L 287.841696 386.779307 
L 288.711082 388.980569 
L 290.886346 389.713757 
L 288.753883 394.095376 
L 290.302565 396.022706 
L 297.904639 396.027149 
L 297.992153 395.127744 
L 301.53854 395.372728 
L 311.966909 392.334571 
L 319.291497 407.108422 
L 318.757082 409.459678 
L 316.358044 410.768398 
L 317.27023 412.039492 
L 319.614004 411.513736 
L 321.922093 413.011774 
L 324.905031 420.149485 
L 316.24218 423.372616 
L 323.055832 430.06923 
L 327.853532 426.349429 
L 334.631755 431.497907 
L 344.207406 420.277257 
L 357.035924 418.572453 
L 364.601952 418.940495 
L 364.419522 420.0999 
L 383.436103 446.688426 
L 387.658641 450.524536 
L 394.438829 460.294072 
L 375.718064 468.846066 
L 366.121857 465.972486 
L 364.7053 464.005749 
L 361.899867 464.564796 
L 358.657604 460.016342 
L 351.457904 465.764926 
L 325.561996 452.539661 
L 312.277889 453.427309 
L 302.809637 451.677206 
L 300.009265 452.893013 
L 295.818719 457.291841 
L 290.628851 454.63282 
L 285.629055 453.76161 
L 271.638089 461.550771 
L 258.179983 463.423884 
L 251.587184 461.410078 
L 247.897334 456.560779 
L 247.887843 452.325972 
L 255.268023 446.067558 
L 255.53429 441.853261 
L 248.361062 437.418136 
L 236.922256 435.684483 
L 222.647224 428.168811 
L 218.955527 423.032045 
L 209.356979 398.37104 
L 202.887551 392.813829 
L 191.467024 392.3645 
L 193.987294 388.053894 
L 195.496052 387.911798 
L 192.19654 387.275336 
L 188.614312 384.73057 
L 189.711476 382.894417 
L 192.307872 384.021231 
L 194.501482 380.770096 
L 197.467014 379.404141 
L 201.411777 381.466619 
L 203.67204 379.814666 
L 204.557158 380.731639 
L 206.958369 379.967369 
L 209.389979 381.765076 
L 210.624468 380.559885 
L 218.51254 390.201721 
L 225.125517 386.091834 
L 224.784612 373.572727 
L 226.997954 371.674671 
L 230.5143 372.337143 
L 229.521201 362.114906 
L 232.072182 363.799816 
" style="fill:#1f77b4;"/>
    <path clip-path="url(#p5bb84efb0c)" d="M 341.635015 405.506408 
L 340.010243 403.742258 
L 332.975586 409.490877 
L 324.226299 409.598435 
L 321.897675 407.929166 
L 315.834487 394.057903 
L 324.454264 393.540319 
L 324.396727 399.241738 
L 333.094887 399.136307 
L 333.087278 386.480603 
L 336.851132 386.64872 
L 338.67082 389.175542 
L 347.044764 384.967967 
L 349.489268 389.043565 
L 351.830375 392.17821 
L 346.971993 396.128498 
L 350.128381 398.91068 
L 350.812107 398.316073 
L 350.236773 398.989366 
L 354.143559 397.192373 
L 353.17322 396.299926 
L 357.948555 399.759443 
L 361.382208 397.764675 
L 358.491964 399.896954 
L 366.007636 405.662464 
L 362.847208 409.366953 
L 338.504 409.505784 
L 338.32051 407.661354 
L 341.635015 405.506408 
" style="fill:#1f77b4;"/>
    <path clip-path="url(#p5bb84efb0c)" d="M 335.285197 412.332567 
L 347.905789 412.96467 
L 337.106678 425.652646 
L 327.705728 420.978354 
L 325.941203 416.946024 
L 326.557164 413.043961 
L 335.285197 412.332567 
" style="fill:#1f77b4;"/>
    <path clip-path="url(#p5bb84efb0c)" d="M 309.988217 200.270254 
L 315.464104 204.201072 
L 317.385256 202.128378 
L 321.305122 201.189791 
L 329.627513 205.909451 
L 330.945479 205.081462 
L 336.257998 211.189774 
L 334.005756 218.703546 
L 341.150753 226.688667 
L 335.655101 224.765349 
L 337.637383 227.196963 
L 337.200825 229.630027 
L 339.768668 230.446306 
L 339.782585 232.550888 
L 338.752809 232.780863 
L 340.494113 233.06541 
L 338.501589 233.737764 
L 338.439672 236.059872 
L 344.523483 235.686344 
L 346.059718 237.201343 
L 346.020852 238.022003 
L 343.108789 237.746612 
L 342.754992 243.101275 
L 338.639168 244.051584 
L 338.148818 245.190121 
L 340.631334 247.934467 
L 335.723037 247.528702 
L 331.424151 245.448289 
L 311.082475 243.702188 
L 307.374311 236.926284 
L 297.875296 235.434718 
L 297.299964 236.698496 
L 293.385209 237.792351 
L 292.591657 235.324132 
L 286.758348 234.437174 
L 284.444635 235.264439 
L 279.991241 232.550117 
L 280.130035 230.862272 
L 273.650381 228.263679 
L 274.758197 224.129944 
L 283.205171 221.16148 
L 280.601491 214.385255 
L 285.52882 211.876736 
L 289.055015 213.637827 
L 289.998356 212.889663 
L 292.753328 215.762185 
L 295.628048 213.817264 
L 298.120806 214.190795 
L 297.385134 213.029194 
L 299.90243 212.081079 
L 298.028232 208.841263 
L 302.137455 205.555292 
L 304.473448 207.514858 
L 305.301849 207.027808 
L 307.992 204.178731 
L 306.56932 202.996987 
L 309.988217 200.270254 
" style="fill:#1f77b4;"/>
    <path clip-path="url(#p5bb84efb0c)" d="M 298.17207 257.976115 
L 291.602679 262.073602 
L 290.161617 266.60063 
L 292.13653 271.935482 
L 291.095776 272.55693 
L 289.585907 270.201863 
L 288.220323 270.17293 
L 285.184034 275.180796 
L 281.200815 275.085947 
L 280.572047 276.210563 
L 280.376483 275.141615 
L 277.828067 275.05958 
L 276.301306 276.002194 
L 276.285164 281.160174 
L 272.439234 282.564207 
L 270.199559 280.395536 
L 267.608617 281.001605 
L 267.622929 277.48237 
L 270.107309 272.770026 
L 265.648427 269.467583 
L 260.375388 268.023274 
L 258.229828 263.296654 
L 254.182486 263.660659 
L 253.381991 261.818284 
L 244.056858 265.141191 
L 234.35852 271.805737 
L 230.745924 266.332092 
L 232.126197 263.500594 
L 229.764504 263.944067 
L 228.486447 262.415528 
L 230.584149 259.085243 
L 229.173884 257.277287 
L 235.285975 248.772931 
L 233.994002 244.613934 
L 235.280179 238.423991 
L 243.136105 232.985466 
L 239.446205 232.609002 
L 238.806459 233.667701 
L 236.059915 232.460695 
L 227.911388 234.195037 
L 224.756159 232.759151 
L 226.682441 230.196071 
L 223.275633 228.162536 
L 223.057397 223.442506 
L 218.234099 221.411526 
L 215.591535 222.560679 
L 217.162259 219.19676 
L 218.553835 219.19676 
L 218.130906 214.73857 
L 220.308084 208.622597 
L 226.022347 211.886227 
L 227.831364 216.368551 
L 229.715875 216.175562 
L 230.054966 217.859 
L 244.975695 218.876 
L 249.255584 217.966701 
L 250.368154 216.498223 
L 256.673484 217.200233 
L 256.089395 218.250512 
L 257.683117 219.224991 
L 257.216175 221.494368 
L 258.438932 222.688202 
L 256.625812 226.609863 
L 258.357198 229.822221 
L 264.347989 229.796222 
L 266.579285 228.080941 
L 269.61 230.170143 
L 271.54466 229.329339 
L 275.197199 230.999236 
L 279.738192 231.058194 
L 281.272922 233.810606 
L 284.870522 235.398469 
L 286.758348 234.437174 
L 292.591657 235.324132 
L 293.385209 237.792351 
L 297.299964 236.698496 
L 297.875296 235.434718 
L 307.374311 236.926284 
L 311.082475 243.702188 
L 308.208098 245.392954 
L 298.17207 257.976115 
" style="fill:#1f77b4;"/>
    <path clip-path="url(#p5bb84efb0c)" d="M 150.86739 208.197723 
L 157.002001 219.841571 
L 160.795899 221.543692 
L 160.108891 223.132994 
L 161.21151 225.198026 
L 167.511744 225.791648 
L 173.866523 228.085192 
L 173.70131 230.648999 
L 175.2555 232.374564 
L 186.063365 235.682863 
L 195.531653 235.383671 
L 195.501592 240.898362 
L 199.075032 241.372965 
L 199.306433 245.659045 
L 201.221328 248.54031 
L 198.692626 252.122907 
L 199.415491 253.873367 
L 204.000052 253.290008 
L 206.667136 255.797052 
L 208.118764 255.737726 
L 206.323957 260.162958 
L 201.047224 264.105118 
L 196.847548 265.09315 
L 197.431636 267.668309 
L 198.629496 268.06381 
L 197.252163 269.60184 
L 196.915619 271.397705 
L 198.499458 272.673942 
L 197.410725 273.999231 
L 199.802051 273.377057 
L 204.46679 275.204788 
L 204.233882 277.053756 
L 202.145397 276.672173 
L 203.308478 278.721457 
L 199.97889 280.827143 
L 200.191261 283.764111 
L 168.086136 292.523642 
L 161.747071 289.614872 
L 151.796504 288.230946 
L 151.775985 286.914839 
L 149.784349 286.599423 
L 146.48436 283.142556 
L 132.37122 278.331774 
L 136.331921 281.718153 
L 136.295412 283.262298 
L 140.605687 283.609141 
L 140.114943 287.219886 
L 133.262494 286.975305 
L 132.646533 285.963103 
L 130.531323 286.626301 
L 130.355254 279.285375 
L 128.482473 279.239233 
L 126.202154 275.502103 
L 123.078046 273.050762 
L 109.665097 270.079767 
L 110.354311 268.4648 
L 106.33633 264.677135 
L 110.937716 262.045952 
L 101.26335 255.498952 
L 103.333521 253.318203 
L 105.928089 254.369574 
L 112.807708 240.374695 
L 101.177444 231.83554 
L 101.393133 230.05249 
L 98.991597 226.036669 
L 99.28459 223.477627 
L 101.389542 221.491326 
L 104.871808 220.803223 
L 110.019921 223.717862 
L 113.047385 218.310098 
L 118.508617 216.012528 
L 121.343819 213.252432 
L 131.369469 209.69258 
L 139.070802 207.613626 
L 150.86739 208.197723 
" style="fill:#1f77b4;"/>
    <path clip-path="url(#p5bb84efb0c)" d="M 246.469594 117.150757 
L 238.266144 128.133678 
L 236.72625 133.112244 
L 239.112789 136.26011 
L 244.880522 138.831612 
L 248.554675 139.26886 
L 254.236383 136.911228 
L 253.657013 140.169358 
L 259.052549 159.647442 
L 270.665254 166.286382 
L 280.539199 177.36737 
L 278.834795 186.486263 
L 277.785611 185.975768 
L 276.334306 188.158358 
L 264.357906 187.169602 
L 255.637671 200.248246 
L 253.420293 199.572222 
L 251.918529 194.927268 
L 249.583562 195.168596 
L 249.114482 191.651594 
L 243.404614 191.870581 
L 243.374946 190.778924 
L 240.824325 190.015023 
L 236.91393 193.061126 
L 224.872981 196.500487 
L 223.051874 193.979535 
L 225.350986 189.773695 
L 218.810185 187.694374 
L 213.875485 188.839501 
L 217.68385 179.134719 
L 215.469805 175.674442 
L 215.717795 169.848134 
L 212.753392 167.081816 
L 208.710599 158.46394 
L 192.367052 156.544281 
L 181.942823 157.080704 
L 175.417001 154.035337 
L 172.623178 156.364036 
L 164.69364 156.841538 
L 164.56107 155.421387 
L 162.908032 155.437873 
L 158.60111 152.174979 
L 157.477185 152.968182 
L 157.530004 146.184616 
L 151.950481 144.697089 
L 151.110044 141.003168 
L 155.342362 137.94755 
L 157.095054 134.508141 
L 158.781437 135.003624 
L 160.556837 133.719738 
L 161.350082 130.267883 
L 168.763979 127.307114 
L 170.731607 125.13368 
L 172.638517 118.417861 
L 181.887491 119.036758 
L 189.125216 115.408018 
L 194.944657 115.044382 
L 207.593822 115.106628 
L 222.10956 117.25809 
L 237.18042 114.580361 
L 246.469594 117.150757 
" style="fill:#1f77b4;"/>
    <path clip-path="url(#p5bb84efb0c)" d="M 501.337196 180.89632 
L 504.888663 184.151516 
L 512.377936 187.674052 
L 515.177914 193.025056 
L 515.445582 198.158152 
L 510.669084 208.941457 
L 511.61752 215.518506 
L 520.578904 222.643413 
L 524.987259 229.264775 
L 535.649303 236.991394 
L 539.205455 249.815181 
L 532.540138 259.49767 
L 523.709084 268.127672 
L 519.272498 269.799032 
L 503.790782 271.739891 
L 496.390427 275.797092 
L 495.202414 283.439075 
L 497.624092 289.831187 
L 497.652477 305.328652 
L 492.058538 320.369462 
L 476.653136 328.431082 
L 458.891782 327.735876 
L 447.714338 323.173312 
L 448.863551 304.853397 
L 442.48485 304.601998 
L 444.256745 282.015182 
L 446.02303 275.04775 
L 442.447763 272.2082 
L 445.18119 263.236153 
L 445.336861 254.175125 
L 441.146401 248.755282 
L 428.64593 243.180494 
L 428.452607 239.849487 
L 434.656588 233.894979 
L 427.488474 229.824595 
L 426.159138 226.765676 
L 429.240071 223.981778 
L 433.920181 224.977495 
L 438.018051 222.081575 
L 450.147848 233.231818 
L 456.624235 228.479554 
L 461.048047 229.52874 
L 462.27997 228.636295 
L 464.496971 230.622226 
L 467.936012 230.131555 
L 471.298516 231.56268 
L 472.840634 228.315903 
L 469.808825 223.111389 
L 473.069915 216.162259 
L 475.457224 214.965871 
L 474.910873 209.283453 
L 477.605453 207.931049 
L 477.587875 202.131823 
L 479.928708 200.057632 
L 478.595713 198.269452 
L 483.352718 198.714017 
L 484.718714 193.59996 
L 488.580719 194.433079 
L 487.639207 192.789904 
L 490.736966 190.198414 
L 490.353553 189.028725 
L 494.524195 187.42283 
L 494.367619 186.18985 
L 491.640073 184.938863 
L 491.853213 183.8168 
L 488.496556 183.628207 
L 488.903788 181.977715 
L 501.337196 180.89632 
" style="fill:#1f77b4;"/>
    <path clip-path="url(#p5bb84efb0c)" d="M 465.471919 330.408215 
L 466.712998 330.814748 
L 465.751602 331.870301 
L 462.324855 330.967059 
L 459.112463 333.771526 
L 462.398878 330.704235 
L 465.471919 330.408215 
" style="fill:#1f77b4;"/>
    <path clip-path="url(#p5bb84efb0c)" d="M 465.6108 330.394836 
L 466.551889 330.304183 
L 471.323413 332.826977 
L 471.129773 333.236036 
L 466.408309 330.480509 
L 465.6108 330.394836 
" style="fill:#1f77b4;"/>
    <path clip-path="url(#p5bb84efb0c)" d="M 455.749702 328.534054 
L 460.109051 329.954609 
L 459.473435 331.198193 
L 458.437032 330.136421 
L 451.606778 328.565291 
L 448.254242 328.761475 
L 447.775911 332.223687 
L 448.057995 327.682074 
L 449.289797 326.344801 
L 455.749702 328.534054 
" style="fill:#1f77b4;"/>
    <path clip-path="url(#p5bb84efb0c)" d="M 426.924768 243.722474 
L 429.115042 243.563168 
L 440.20306 248.152135 
L 445.336861 254.175125 
L 445.18119 263.236153 
L 442.447763 272.2082 
L 446.02303 275.04775 
L 444.256745 282.015182 
L 442.48485 304.601998 
L 439.077597 304.464463 
L 435.512399 334.692537 
L 411.006869 337.217123 
L 411.187813 339.411103 
L 409.64036 340.162155 
L 411.052164 339.372135 
L 410.454484 335.288759 
L 426.839256 333.726382 
L 427.900562 321.277906 
L 411.015949 322.763059 
L 409.357952 324.490086 
L 393.15407 326.031262 
L 392.615449 322.230628 
L 394.026263 321.789351 
L 394.586479 319.522755 
L 392.622818 319.319363 
L 390.402108 320.200643 
L 391.659506 330.726277 
L 384.249114 331.440533 
L 384.402477 336.117686 
L 382.884452 338.420186 
L 385.334445 344.802049 
L 380.935582 350.681304 
L 371.923994 339.994903 
L 365.699151 343.423908 
L 354.317764 330.108118 
L 357.678319 328.243474 
L 359.550553 329.688268 
L 375.111627 320.182947 
L 377.550592 322.453284 
L 379.930924 320.389415 
L 379.403552 316.273555 
L 374.515363 312.367537 
L 373.267967 313.052196 
L 375.965794 315.639361 
L 375.453334 317.126593 
L 356.289497 327.491545 
L 354.490979 327.486271 
L 350.917026 323.960956 
L 372.448868 309.588723 
L 370.507949 307.679921 
L 371.655999 306.503663 
L 370.461438 306.978705 
L 370.175799 305.091507 
L 368.722956 305.205027 
L 367.87024 291.651377 
L 365.523253 284.083007 
L 366.436652 277.886068 
L 372.735091 268.139538 
L 372.379548 264.537178 
L 369.789376 261.655498 
L 373.848429 259.649422 
L 373.956838 260.707753 
L 377.684067 261.051626 
L 378.130849 262.650477 
L 381.349055 261.09594 
L 383.083417 262.962116 
L 388.784172 262.698092 
L 389.041942 264.974059 
L 394.923983 264.688085 
L 394.807896 262.77686 
L 398.101594 262.625619 
L 397.563673 258.206979 
L 408.40779 256.723846 
L 407.082968 236.983151 
L 422.893567 243.5738 
L 426.924768 243.722474 
" style="fill:#1f77b4;"/>
    <path clip-path="url(#p5bb84efb0c)" d="M 435.329952 338.294363 
L 433.44228 360.643935 
L 429.276869 362.907787 
L 425.272601 357.981657 
L 419.41744 363.508024 
L 425.219526 357.927952 
L 422.824453 355.003715 
L 425.864094 353.351241 
L 424.251357 351.369336 
L 418.588715 353.273826 
L 416.524529 338.902189 
L 431.238118 337.486693 
L 431.373322 338.446994 
L 433.184185 338.410115 
L 435.406641 337.001793 
L 435.329952 338.294363 
" style="fill:#1f77b4;"/>
    <path clip-path="url(#p5bb84efb0c)" d="M 426.090554 322.636866 
L 426.235537 323.720614 
L 426.080515 322.661689 
L 424.738305 322.765185 
L 426.090554 322.636866 
" style="fill:#1f77b4;"/>
    <path clip-path="url(#p5bb84efb0c)" d="M 425.967799 325.138638 
L 425.090582 325.198723 
L 426.215565 323.988451 
L 425.967799 325.138638 
" style="fill:#1f77b4;"/>
    <path clip-path="url(#p5bb84efb0c)" d="M 415.150085 327.070483 
L 425.888031 326.166612 
L 425.643737 329.006247 
L 415.565645 329.983648 
L 416.136635 334.209881 
L 410.337628 334.470105 
L 408.941384 327.895135 
L 412.586383 323.578447 
L 416.890038 322.909098 
L 415.150085 327.070483 
" style="fill:#1f77b4;"/>
    <path clip-path="url(#p5bb84efb0c)" d="M 425.483485 329.971855 
L 425.623081 331.162316 
L 425.478115 329.997306 
L 423.735956 330.164261 
L 425.483485 329.971855 
" style="fill:#1f77b4;"/>
    <path clip-path="url(#p5bb84efb0c)" d="M 425.298779 332.689571 
L 424.152011 332.774647 
L 425.597484 331.46323 
L 425.298779 332.689571 
" style="fill:#1f77b4;"/>
    <path clip-path="url(#p5bb84efb0c)" d="M 417.247376 333.294917 
L 417.047128 332.28034 
L 418.593554 333.332744 
L 417.247376 333.294917 
" style="fill:#1f77b4;"/>
    <path clip-path="url(#p5bb84efb0c)" d="M 416.994617 325.776156 
L 418.307282 325.869248 
L 416.961735 325.779969 
L 417.453556 324.704501 
L 416.994617 325.776156 
" style="fill:#1f77b4;"/>
    <path clip-path="url(#p5bb84efb0c)" d="M 417.031089 331.984082 
L 416.859534 330.976287 
L 418.242834 330.665705 
L 417.031089 331.984082 
" style="fill:#1f77b4;"/>
    <path clip-path="url(#p5bb84efb0c)" d="M 409.893239 341.369351 
L 411.396831 341.759211 
L 392.007405 343.606944 
L 397.058736 343.104941 
L 396.867842 341.772834 
L 397.091636 343.101615 
L 409.893239 341.369351 
" style="fill:#1f77b4;"/>
    <path clip-path="url(#p5bb84efb0c)" d="M 406.769643 327.224835 
L 395.484645 328.328536 
L 395.166858 329.902897 
L 395.465425 328.300495 
L 406.769643 327.224835 
" style="fill:#1f77b4;"/>
    <path clip-path="url(#p5bb84efb0c)" d="M 404.416038 336.450692 
L 403.305997 336.537701 
L 405.920006 336.30381 
L 404.416038 336.450692 
" style="fill:#1f77b4;"/>
    <path clip-path="url(#p5bb84efb0c)" d="M 404.416038 333.463843 
L 402.891344 333.580855 
L 405.497744 333.359551 
L 404.416038 333.463843 
" style="fill:#1f77b4;"/>
    <path clip-path="url(#p5bb84efb0c)" d="M 379.31604 356.461681 
L 375.070024 361.037204 
L 363.048447 346.239706 
L 369.099632 342.957987 
L 379.31604 356.461681 
" style="fill:#1f77b4;"/>
    <path clip-path="url(#p5bb84efb0c)" d="M 360.475734 351.692293 
L 372.725036 366.745774 
L 364.949081 376.947703 
L 352.740988 361.186391 
L 349.616263 358.10727 
L 346.910877 359.160135 
L 349.561341 358.043833 
L 346.8353 358.448493 
L 348.95263 357.292974 
L 346.700251 354.940495 
L 348.499196 353.96434 
L 344.67281 348.869868 
L 359.209699 340.471643 
L 362.599186 344.636497 
L 357.384575 347.888297 
L 360.475734 351.692293 
" style="fill:#1f77b4;"/>
    <path clip-path="url(#p5bb84efb0c)" d="M 230.153081 260.069973 
L 228.486447 262.415528 
L 229.764504 263.944067 
L 232.126197 263.500594 
L 230.745924 266.332092 
L 234.35852 271.805737 
L 244.056858 265.141191 
L 253.381991 261.818284 
L 254.182486 263.660659 
L 258.229828 263.296654 
L 260.375388 268.023274 
L 265.648427 269.467583 
L 270.107309 272.770026 
L 267.622929 277.48237 
L 267.608617 281.001605 
L 270.199559 280.395536 
L 273.028828 283.698349 
L 270.296922 283.142449 
L 268.717084 286.680353 
L 269.999892 287.628465 
L 261.899722 294.911895 
L 268.792815 300.592116 
L 267.586867 302.316945 
L 269.6779 303.769686 
L 280.658243 305.447672 
L 279.030426 308.689651 
L 281.669997 317.805979 
L 280.261903 320.843293 
L 278.712485 320.827545 
L 276.237664 324.003654 
L 273.40759 324.459906 
L 270.695844 323.18222 
L 264.234091 324.718088 
L 260.538343 323.088831 
L 245.192496 312.558185 
L 233.502146 297.888708 
L 224.160974 295.307694 
L 217.25538 294.978429 
L 214.758586 290.411483 
L 214.624597 284.063706 
L 200.323096 284.925356 
L 200.585326 279.678359 
L 204.983865 277.882113 
L 208.210177 273.974005 
L 212.7768 271.938628 
L 224.685232 260.990246 
L 229.025942 258.125789 
L 230.595128 258.846851 
L 230.153081 260.069973 
" style="fill:#1f77b4;"/>
    <path clip-path="url(#p5bb84efb0c)" d="M 351.581104 331.764359 
L 359.209699 340.471643 
L 344.67281 348.869868 
L 341.222415 344.52281 
L 352.447994 337.516054 
L 349.188615 333.457073 
L 346.398485 336.431024 
L 344.024925 335.771674 
L 344.623803 333.591805 
L 347.023338 334.011394 
L 351.581104 331.764359 
" style="fill:#1f77b4;"/>
    <path clip-path="url(#p5bb84efb0c)" d="M 338.794377 342.800927 
L 339.739547 343.332657 
L 337.606434 343.243627 
L 340.425375 340.400965 
L 338.794377 342.800927 
" style="fill:#1f77b4;"/>
    <path clip-path="url(#p5bb84efb0c)" d="M 338.498991 335.895563 
L 337.02527 335.588389 
L 337.6947 334.052013 
L 339.768325 334.501448 
L 338.498991 335.895563 
" style="fill:#1f77b4;"/>
    <path clip-path="url(#p5bb84efb0c)" d="M 290.872393 272.236869 
L 292.13653 271.935482 
L 295.214078 275.385912 
L 299.091881 275.392503 
L 302.105718 281.783154 
L 307.569873 285.205354 
L 313.451862 287.606196 
L 316.475993 285.994898 
L 327.163379 288.843275 
L 327.24937 300.282044 
L 335.740015 305.326741 
L 333.01158 310.984003 
L 331.011651 310.989098 
L 328.496664 319.506602 
L 330.176771 320.077527 
L 330.271363 330.887662 
L 327.536839 332.244448 
L 329.186151 330.853016 
L 328.111848 330.225486 
L 327.143749 331.412397 
L 328.062056 330.198431 
L 325.423032 328.766011 
L 324.677168 330.677202 
L 325.359645 328.731734 
L 322.861056 328.122768 
L 321.483124 330.812849 
L 322.607014 331.227651 
L 321.453645 330.870963 
L 319.988423 333.992355 
L 319.060454 344.964324 
L 312.272641 348.737962 
L 309.189928 348.53179 
L 307.739393 346.238602 
L 300.425115 347.032137 
L 300.057091 348.463997 
L 297.277941 348.785898 
L 295.366722 344.947697 
L 291.780459 344.656188 
L 291.295647 339.282119 
L 288.622338 337.642258 
L 288.663 336.336733 
L 285.830758 336.912409 
L 286.010929 334.193692 
L 284.884475 333.187727 
L 279.893094 331.941527 
L 276.926792 333.789366 
L 274.113236 333.172311 
L 274.61383 331.301003 
L 272.598272 328.933846 
L 272.814697 326.769936 
L 276.619247 324.752543 
L 275.92492 324.204693 
L 278.712485 320.827545 
L 280.261903 320.843293 
L 281.669997 317.805979 
L 279.030426 308.689651 
L 280.658243 305.447672 
L 269.6779 303.769686 
L 267.586867 302.316945 
L 268.792815 300.592116 
L 261.899722 294.911895 
L 269.999892 287.628465 
L 268.717084 286.680353 
L 270.296922 283.142449 
L 272.441423 283.967135 
L 272.439234 282.564207 
L 276.285164 281.160174 
L 276.301306 276.002194 
L 278.50261 274.809465 
L 280.572047 276.210563 
L 281.200815 275.085947 
L 285.87323 274.845357 
L 288.124738 270.196732 
L 289.585907 270.201863 
L 290.872393 272.236869 
" style="fill:#1f77b4;"/>
    <path clip-path="url(#p5bb84efb0c)" d="M 327.082892 334.816864 
L 328.655053 335.083276 
L 328.936144 342.460415 
L 326.325128 342.552781 
L 326.478935 347.611553 
L 321.150512 347.669845 
L 322.051122 338.06541 
L 323.455727 335.063988 
L 327.082892 334.816864 
" style="fill:#1f77b4;"/>
    <path clip-path="url(#p5bb84efb0c)" d="M 224.942077 373.502046 
L 225.476013 378.520899 
L 224.612868 378.495257 
L 223.250941 371.889644 
L 220.288334 368.706575 
L 215.343102 368.6315 
L 208.830086 370.815517 
L 201.624627 367.054586 
L 202.840425 366.398351 
L 201.404904 363.591009 
L 202.122297 358.72633 
L 204.29101 357.317534 
L 204.164666 355.283632 
L 206.43953 354.951162 
L 202.431072 344.074111 
L 200.26094 343.139918 
L 200.870318 339.611528 
L 199.831017 337.574323 
L 203.349892 337.322377 
L 213.687925 340.208806 
L 219.497072 343.452293 
L 221.566133 345.957177 
L 223.711745 346.326313 
L 232.641412 327.992252 
L 229.913916 321.67557 
L 229.789109 310.460883 
L 217.654918 295.158971 
L 223.793256 295.243607 
L 233.502146 297.888708 
L 245.192496 312.558185 
L 261.978634 323.993723 
L 264.234091 324.718088 
L 270.695844 323.18222 
L 273.866446 324.450417 
L 270.836467 326.141159 
L 268.049604 329.868037 
L 269.645515 334.371633 
L 269.90147 341.080527 
L 255.904263 346.799895 
L 252.54104 345.23469 
L 245.519003 346.659592 
L 255.865415 350.530395 
L 254.131068 351.105334 
L 253.748016 352.836387 
L 245.093765 361.6685 
L 244.535634 369.496524 
L 239.145089 364.965824 
L 232.321195 363.97011 
L 229.870193 361.958534 
L 230.5143 372.337143 
L 226.997954 371.674671 
L 224.942077 373.502046 
" style="fill:#1f77b4;"/>
    <path clip-path="url(#p5bb84efb0c)" d="M 157.519711 151.920824 
L 157.477185 152.968182 
L 158.60111 152.174979 
L 162.908032 155.437873 
L 164.56107 155.421387 
L 164.69364 156.841538 
L 172.623178 156.364036 
L 175.417001 154.035337 
L 181.942823 157.080704 
L 192.367052 156.544281 
L 208.710599 158.46394 
L 212.753392 167.081816 
L 215.717795 169.848134 
L 215.469805 175.674442 
L 217.68385 179.134719 
L 213.875485 188.839501 
L 218.810185 187.694374 
L 225.350986 189.773695 
L 223.051874 193.979535 
L 225.965374 197.702743 
L 223.049976 200.944401 
L 221.740714 206.942817 
L 217.228688 203.957498 
L 212.978108 203.322129 
L 208.653539 206.150708 
L 204.450562 206.332306 
L 201.288664 211.621787 
L 197.383776 212.425238 
L 197.377192 213.487203 
L 185.317229 212.09525 
L 181.311661 212.280921 
L 181.261083 213.936176 
L 176.22059 214.174938 
L 171.300614 212.770906 
L 170.508516 210.81463 
L 169.002683 210.42389 
L 166.803276 204.986103 
L 165.014368 204.951683 
L 162.996981 201.024118 
L 155.285371 201.090772 
L 151.134735 207.797826 
L 139.070802 207.613626 
L 121.343819 213.252432 
L 118.508617 216.012528 
L 113.047385 218.310098 
L 110.019921 223.717862 
L 106.236642 221.049681 
L 101.389542 221.491326 
L 98.893824 224.886054 
L 101.177444 231.83554 
L 93.160871 228.042019 
L 85.98253 222.502091 
L 73.476981 218.988711 
L 74.06148 211.516652 
L 78.465541 202.51059 
L 75.705455 199.604016 
L 76.920928 197.337195 
L 76.804877 191.168464 
L 74.961062 185.009282 
L 77.683805 184.802004 
L 76.318953 181.543137 
L 78.271194 181.636158 
L 76.285661 174.944841 
L 73.73398 172.631152 
L 71.023722 166.598281 
L 69.714545 166.336443 
L 70.767747 164.698445 
L 73.44068 165.966215 
L 77.075282 164.717485 
L 76.902427 163.814421 
L 80.643249 164.032683 
L 79.27804 161.074468 
L 85.277637 160.228902 
L 84.942547 157.640927 
L 88.307973 157.794734 
L 89.989636 154.133773 
L 93.30782 153.818106 
L 93.269381 152.896361 
L 95.365168 153.664669 
L 94.865344 152.031755 
L 97.384469 151.493801 
L 97.662091 148.886074 
L 101.219781 148.290267 
L 103.958665 144.012607 
L 110.092986 145.779554 
L 111.054674 143.781897 
L 115.085137 144.226844 
L 114.739393 146.80274 
L 124.554843 148.641458 
L 116.719077 152.432743 
L 115.334819 153.969348 
L 116.411788 156.389597 
L 122.546143 153.988386 
L 124.43026 155.294649 
L 127.155976 154.004135 
L 128.194489 156.078693 
L 130.309701 156.789136 
L 133.636349 153.849996 
L 134.213496 156.078326 
L 135.232636 154.695564 
L 139.110062 154.104506 
L 141.49443 154.797005 
L 140.946916 157.317197 
L 142.148437 159.675198 
L 149.086945 159.380033 
L 150.525476 153.603906 
L 152.527182 151.280705 
L 150.691764 149.546718 
L 151.356869 142.302469 
L 151.983807 144.796332 
L 157.530004 146.184616 
L 157.519711 151.920824 
" style="fill:#1f77b4;"/>
    <path clip-path="url(#p5bb84efb0c)" d="M 343.361547 176.815128 
L 359.840109 176.164794 
L 367.672882 178.320281 
L 370.884505 182.07975 
L 367.530754 185.545145 
L 367.521607 188.336739 
L 372.454734 193.784421 
L 385.137909 196.69356 
L 394.450217 193.671994 
L 398.543675 193.547475 
L 401.231996 195.283658 
L 401.43739 199.180461 
L 396.849889 205.136796 
L 395.256132 210.448974 
L 384.329617 208.976102 
L 375.938693 209.345594 
L 375.10819 207.685588 
L 372.802512 207.833541 
L 370.849948 206.383686 
L 368.550136 209.646579 
L 361.952892 210.810746 
L 357.995645 215.085471 
L 351.7826 214.666169 
L 342.593028 210.460293 
L 337.68986 211.243969 
L 334.966794 206.829724 
L 330.945479 205.081462 
L 331.451953 202.966986 
L 334.219358 203.121897 
L 334.670192 201.485324 
L 344.376157 197.576443 
L 341.582009 195.782765 
L 340.49001 192.878388 
L 336.944784 192.445164 
L 334.894756 191.051381 
L 334.775369 189.351826 
L 330.12602 190.255613 
L 326.017567 187.605748 
L 326.810059 184.773513 
L 323.622615 184.8171 
L 323.339164 183.039169 
L 317.695571 182.210812 
L 316.048739 180.056786 
L 317.69598 176.7375 
L 326.529223 177.445009 
L 327.025833 175.222132 
L 343.361547 176.815128 
" style="fill:#1f77b4;"/>
    <path clip-path="url(#p5bb84efb0c)" d="M 482.986302 122.569649 
L 483.108937 125.442897 
L 479.023157 128.368521 
L 476.301475 133.326184 
L 477.045594 135.809783 
L 480.716035 139.731479 
L 484.284721 140.535347 
L 498.125182 136.769642 
L 506.075136 138.452 
L 506.804584 139.905833 
L 505.59973 144.293342 
L 490.220111 151.487791 
L 487.106587 157.875521 
L 491.173267 165.03264 
L 492.140752 170.254375 
L 501.071015 180.614337 
L 488.903788 181.977715 
L 488.496556 183.628207 
L 491.853213 183.8168 
L 491.640073 184.938863 
L 494.367619 186.18985 
L 494.524195 187.42283 
L 490.353553 189.028725 
L 490.736966 190.198414 
L 487.639207 192.789904 
L 488.580719 194.433079 
L 484.718714 193.59996 
L 483.352718 198.714017 
L 478.595713 198.269452 
L 479.928708 200.057632 
L 477.587875 202.131823 
L 477.605453 207.931049 
L 474.910873 209.283453 
L 475.457224 214.965871 
L 473.069915 216.162259 
L 469.808825 223.111389 
L 472.840634 228.315903 
L 471.298516 231.56268 
L 467.936012 230.131555 
L 464.496971 230.622226 
L 462.27997 228.636295 
L 461.048047 229.52874 
L 456.624235 228.479554 
L 450.147848 233.231818 
L 413.850006 197.828092 
L 401.610759 178.541501 
L 402.069972 177.05763 
L 400.077088 175.501264 
L 399.944193 169.362189 
L 405.070744 167.47366 
L 408.464011 167.847558 
L 409.143649 173.74091 
L 412.234791 174.271906 
L 413.478785 173.885561 
L 414.571622 166.08464 
L 418.003703 165.690243 
L 416.226832 170.750842 
L 418.763177 171.932954 
L 421.818069 171.522796 
L 423.230917 169.9906 
L 424.274646 163.550539 
L 431.852182 164.237168 
L 432.304846 160.564866 
L 437.719603 159.847093 
L 442.820523 155.895373 
L 450.073587 155.411281 
L 451.234428 160.860055 
L 457.023039 162.603567 
L 459.50376 159.881917 
L 459.612561 156.238177 
L 445.796417 139.604373 
L 441.515501 129.861464 
L 441.307936 122.640259 
L 444.073168 120.311594 
L 453.057654 126.835184 
L 456.161979 127.804532 
L 461.405726 121.858079 
L 466.617927 122.524613 
L 472.498856 119.811028 
L 477.045337 119.212275 
L 480.414066 119.846539 
L 482.986302 122.569649 
" style="fill:#1f77b4;"/>
    <path clip-path="url(#p5bb84efb0c)" d="M 268.578803 187.813024 
L 276.334306 188.158358 
L 276.991973 192.452848 
L 282.677322 195.138938 
L 284.029348 194.818546 
L 282.896311 193.716258 
L 287.403275 188.59195 
L 293.633899 188.098298 
L 292.512215 190.43872 
L 296.188882 193.902668 
L 305.848337 192.019993 
L 309.16652 193.766439 
L 308.664422 196.183398 
L 311.474693 196.335362 
L 312.010477 195.008232 
L 315.942758 199.366454 
L 320.165843 201.322361 
L 315.464104 204.201072 
L 312.268211 200.953594 
L 309.430854 200.299543 
L 306.56932 202.996987 
L 307.992 204.178731 
L 305.301849 207.027808 
L 304.473448 207.514858 
L 302.137455 205.555292 
L 298.028232 208.841263 
L 299.90243 212.081079 
L 297.385134 213.029194 
L 298.120806 214.190795 
L 295.628048 213.817264 
L 292.753328 215.762185 
L 289.998356 212.889663 
L 289.055015 213.637827 
L 285.52882 211.876736 
L 280.601491 214.385255 
L 283.205171 221.16148 
L 274.758197 224.129944 
L 273.644891 228.043957 
L 280.284936 231.369477 
L 274.230793 230.793065 
L 271.54466 229.329339 
L 269.61 230.170143 
L 265.978337 228.00367 
L 264.347989 229.796222 
L 258.357198 229.822221 
L 256.625812 226.609863 
L 258.438932 222.688202 
L 257.216175 221.494368 
L 257.683117 219.224991 
L 256.089395 218.250512 
L 256.673484 217.200233 
L 250.368154 216.498223 
L 249.255584 217.966701 
L 244.975695 218.876 
L 230.054966 217.859 
L 229.715875 216.175562 
L 227.831364 216.368551 
L 226.022347 211.886227 
L 220.741665 208.816689 
L 223.250616 203.54955 
L 223.049976 200.944401 
L 225.965374 197.702743 
L 225.245073 196.446293 
L 236.91393 193.061126 
L 240.824325 190.015023 
L 243.374946 190.778924 
L 243.404614 191.870581 
L 249.114482 191.651594 
L 249.583562 195.168596 
L 251.918529 194.927268 
L 253.420293 199.572222 
L 255.637671 200.248246 
L 264.357906 187.169602 
L 268.578803 187.813024 
" style="fill:#1f77b4;"/>
    <path clip-path="url(#p5bb84efb0c)" d="M 350.919848 99.712396 
L 354.561034 104.362114 
L 357.575965 106.174464 
L 365.60909 106.637726 
L 374.535369 108.852575 
L 380.915764 107.540088 
L 385.480933 104.429908 
L 401.818135 104.224128 
L 406.081183 101.962448 
L 406.969583 100.193306 
L 406.975089 101.122369 
L 410.258151 100.626163 
L 408.9552 98.826257 
L 410.202169 95.82923 
L 413.282316 97.048695 
L 415.211454 101.200009 
L 409.801793 108.4084 
L 408.314924 116.582446 
L 409.451621 118.949961 
L 417.271913 124.431338 
L 425.639786 121.401741 
L 431.511568 114.864245 
L 440.279663 116.373411 
L 444.073168 120.311594 
L 440.74028 124.160377 
L 442.119374 131.912589 
L 446.424467 140.557235 
L 458.933984 154.709994 
L 459.962614 158.012069 
L 459.305273 160.275222 
L 456.817592 162.591476 
L 451.234428 160.860055 
L 450.073587 155.411281 
L 442.37374 156.027931 
L 437.719603 159.847093 
L 432.304846 160.564866 
L 431.852182 164.237168 
L 424.274646 163.550539 
L 423.230917 169.9906 
L 421.818069 171.522796 
L 416.42019 171.040509 
L 415.997226 169.327034 
L 418.003703 165.690243 
L 414.571622 166.08464 
L 413.478785 173.885561 
L 412.234791 174.271906 
L 409.143649 173.74091 
L 408.464011 167.847558 
L 405.070744 167.47366 
L 400.294281 168.879523 
L 400.077088 175.501264 
L 402.069972 177.05763 
L 401.610759 178.541501 
L 409.288922 190.286089 
L 405.188506 192.047167 
L 401.555717 196.381908 
L 400.501402 194.382068 
L 397.705783 193.398799 
L 385.137909 196.69356 
L 372.454734 193.784421 
L 369.227722 191.04556 
L 367.247321 187.174033 
L 367.530754 185.545145 
L 370.456789 183.614513 
L 370.407337 180.607958 
L 367.672882 178.320281 
L 362.22374 176.529535 
L 335.528396 176.356274 
L 315.577504 172.536755 
L 314.284794 170.625885 
L 315.060427 168.689028 
L 327.29104 162.384093 
L 329.505528 160.154635 
L 328.759974 156.171785 
L 326.992284 155.021158 
L 322.219497 157.671391 
L 311.788822 159.19518 
L 299.02841 154.966964 
L 297.680778 152.345662 
L 300.953991 144.374095 
L 300.771252 141.781726 
L 311.015532 137.744668 
L 312.26616 133.042217 
L 316.570551 134.246302 
L 323.11944 132.981799 
L 324.78238 130.683125 
L 323.904255 128.850998 
L 329.670211 123.170778 
L 330.502627 118.497258 
L 317.391035 106.914173 
L 317.54597 102.297414 
L 319.042655 101.286318 
L 323.383655 101.558038 
L 323.923491 98.949197 
L 326.530148 99.921871 
L 331.390055 98.714852 
L 337.335071 94.948792 
L 336.49501 94.03878 
L 339.155887 92.432602 
L 344.616024 93.027685 
L 350.919848 99.712396 
" style="fill:#1f77b4;"/>
   </g>
   <g id="PathCollection_1">
    <defs>
     <path d="M 0 1.581139 
C 0.419323 1.581139 0.821528 1.41454 1.118034 1.118034 
C 1.41454 0.821528 1.581139 0.419323 1.581139 0 
C 1.581139 -0.419323 1.41454 -0.821528 1.118034 -1.118034 
C 0.821528 -1.41454 0.419323 -1.581139 0 -1.581139 
C -0.419323 -1.581139 -0.821528 -1.41454 -1.118034 -1.118034 
C -1.41454 -0.821528 -1.581139 -0.419323 -1.581139 0 
C -1.581139 0.419323 -1.41454 0.821528 -1.118034 1.118034 
C -0.821528 1.41454 -0.419323 1.581139 0 1.581139 
z
" id="m5595b48b9e" style="stroke:#ff0000;"/>
    </defs>
    <g clip-path="url(#p5bb84efb0c)">
     <use style="fill:#ff0000;stroke:#ff0000;" x="320.217996" xlink:href="#m5595b48b9e" y="267.084355"/>
    </g>
   </g>
   <g id="matplotlib.axis_1">
    <g id="xtick_1">
     <g id="line2d_1">
      <defs>
       <path d="M 0 0 
L 0 3.5 
" id="m4b98c303c2" style="stroke:#000000;stroke-width:0.8;"/>
      </defs>
      <g>
       <use style="stroke:#000000;stroke-width:0.8;" x="52.858453" xlink:href="#m4b98c303c2" y="503.124138"/>
      </g>
     </g>
     <g id="text_1">
      <!-- 139.55 -->
      <defs>
       <path d="M 12.40625 8.296875 
L 28.515625 8.296875 
L 28.515625 63.921875 
L 10.984375 60.40625 
L 10.984375 69.390625 
L 28.421875 72.90625 
L 38.28125 72.90625 
L 38.28125 8.296875 
L 54.390625 8.296875 
L 54.390625 0 
L 12.40625 0 
z
" id="DejaVuSans-49"/>
       <path d="M 40.578125 39.3125 
Q 47.65625 37.796875 51.625 33 
Q 55.609375 28.21875 55.609375 21.1875 
Q 55.609375 10.40625 48.1875 4.484375 
Q 40.765625 -1.421875 27.09375 -1.421875 
Q 22.515625 -1.421875 17.65625 -0.515625 
Q 12.796875 0.390625 7.625 2.203125 
L 7.625 11.71875 
Q 11.71875 9.328125 16.59375 8.109375 
Q 21.484375 6.890625 26.8125 6.890625 
Q 36.078125 6.890625 40.9375 10.546875 
Q 45.796875 14.203125 45.796875 21.1875 
Q 45.796875 27.640625 41.28125 31.265625 
Q 36.765625 34.90625 28.71875 34.90625 
L 20.21875 34.90625 
L 20.21875 43.015625 
L 29.109375 43.015625 
Q 36.375 43.015625 40.234375 45.921875 
Q 44.09375 48.828125 44.09375 54.296875 
Q 44.09375 59.90625 40.109375 62.90625 
Q 36.140625 65.921875 28.71875 65.921875 
Q 24.65625 65.921875 20.015625 65.03125 
Q 15.375 64.15625 9.8125 62.3125 
L 9.8125 71.09375 
Q 15.4375 72.65625 20.34375 73.4375 
Q 25.25 74.21875 29.59375 74.21875 
Q 40.828125 74.21875 47.359375 69.109375 
Q 53.90625 64.015625 53.90625 55.328125 
Q 53.90625 49.265625 50.4375 45.09375 
Q 46.96875 40.921875 40.578125 39.3125 
z
" id="DejaVuSans-51"/>
       <path d="M 10.984375 1.515625 
L 10.984375 10.5 
Q 14.703125 8.734375 18.5 7.8125 
Q 22.3125 6.890625 25.984375 6.890625 
Q 35.75 6.890625 40.890625 13.453125 
Q 46.046875 20.015625 46.78125 33.40625 
Q 43.953125 29.203125 39.59375 26.953125 
Q 35.25 24.703125 29.984375 24.703125 
Q 19.046875 24.703125 12.671875 31.3125 
Q 6.296875 37.9375 6.296875 49.421875 
Q 6.296875 60.640625 12.9375 67.421875 
Q 19.578125 74.21875 30.609375 74.21875 
Q 43.265625 74.21875 49.921875 64.515625 
Q 56.59375 54.828125 56.59375 36.375 
Q 56.59375 19.140625 48.40625 8.859375 
Q 40.234375 -1.421875 26.421875 -1.421875 
Q 22.703125 -1.421875 18.890625 -0.6875 
Q 15.09375 0.046875 10.984375 1.515625 
z
M 30.609375 32.421875 
Q 37.25 32.421875 41.125 36.953125 
Q 45.015625 41.5 45.015625 49.421875 
Q 45.015625 57.28125 41.125 61.84375 
Q 37.25 66.40625 30.609375 66.40625 
Q 23.96875 66.40625 20.09375 61.84375 
Q 16.21875 57.28125 16.21875 49.421875 
Q 16.21875 41.5 20.09375 36.953125 
Q 23.96875 32.421875 30.609375 32.421875 
z
" id="DejaVuSans-57"/>
       <path d="M 10.6875 12.40625 
L 21 12.40625 
L 21 0 
L 10.6875 0 
z
" id="DejaVuSans-46"/>
       <path d="M 10.796875 72.90625 
L 49.515625 72.90625 
L 49.515625 64.59375 
L 19.828125 64.59375 
L 19.828125 46.734375 
Q 21.96875 47.46875 24.109375 47.828125 
Q 26.265625 48.1875 28.421875 48.1875 
Q 40.625 48.1875 47.75 41.5 
Q 54.890625 34.8125 54.890625 23.390625 
Q 54.890625 11.625 47.5625 5.09375 
Q 40.234375 -1.421875 26.90625 -1.421875 
Q 22.3125 -1.421875 17.546875 -0.640625 
Q 12.796875 0.140625 7.71875 1.703125 
L 7.71875 11.625 
Q 12.109375 9.234375 16.796875 8.0625 
Q 21.484375 6.890625 26.703125 6.890625 
Q 35.15625 6.890625 40.078125 11.328125 
Q 45.015625 15.765625 45.015625 23.390625 
Q 45.015625 31 40.078125 35.4375 
Q 35.15625 39.890625 26.703125 39.890625 
Q 22.75 39.890625 18.8125 39.015625 
Q 14.890625 38.140625 10.796875 36.28125 
z
" id="DejaVuSans-53"/>
      </defs>
      <g transform="translate(35.363141 517.722576)scale(0.1 -0.1)">
       <use xlink:href="#DejaVuSans-49"/>
       <use x="63.623047" xlink:href="#DejaVuSans-51"/>
       <use x="127.246094" xlink:href="#DejaVuSans-57"/>
       <use x="190.869141" xlink:href="#DejaVuSans-46"/>
       <use x="222.65625" xlink:href="#DejaVuSans-53"/>
       <use x="286.279297" xlink:href="#DejaVuSans-53"/>
      </g>
     </g>
    </g>
    <g id="xtick_2">
     <g id="line2d_2">
      <g>
       <use style="stroke:#000000;stroke-width:0.8;" x="118.7755" xlink:href="#m4b98c303c2" y="503.124138"/>
      </g>
     </g>
     <g id="text_2">
      <!-- 139.60 -->
      <defs>
       <path d="M 33.015625 40.375 
Q 26.375 40.375 22.484375 35.828125 
Q 18.609375 31.296875 18.609375 23.390625 
Q 18.609375 15.53125 22.484375 10.953125 
Q 26.375 6.390625 33.015625 6.390625 
Q 39.65625 6.390625 43.53125 10.953125 
Q 47.40625 15.53125 47.40625 23.390625 
Q 47.40625 31.296875 43.53125 35.828125 
Q 39.65625 40.375 33.015625 40.375 
z
M 52.59375 71.296875 
L 52.59375 62.3125 
Q 48.875 64.0625 45.09375 64.984375 
Q 41.3125 65.921875 37.59375 65.921875 
Q 27.828125 65.921875 22.671875 59.328125 
Q 17.53125 52.734375 16.796875 39.40625 
Q 19.671875 43.65625 24.015625 45.921875 
Q 28.375 48.1875 33.59375 48.1875 
Q 44.578125 48.1875 50.953125 41.515625 
Q 57.328125 34.859375 57.328125 23.390625 
Q 57.328125 12.15625 50.6875 5.359375 
Q 44.046875 -1.421875 33.015625 -1.421875 
Q 20.359375 -1.421875 13.671875 8.265625 
Q 6.984375 17.96875 6.984375 36.375 
Q 6.984375 53.65625 15.1875 63.9375 
Q 23.390625 74.21875 37.203125 74.21875 
Q 40.921875 74.21875 44.703125 73.484375 
Q 48.484375 72.75 52.59375 71.296875 
z
" id="DejaVuSans-54"/>
       <path d="M 31.78125 66.40625 
Q 24.171875 66.40625 20.328125 58.90625 
Q 16.5 51.421875 16.5 36.375 
Q 16.5 21.390625 20.328125 13.890625 
Q 24.171875 6.390625 31.78125 6.390625 
Q 39.453125 6.390625 43.28125 13.890625 
Q 47.125 21.390625 47.125 36.375 
Q 47.125 51.421875 43.28125 58.90625 
Q 39.453125 66.40625 31.78125 66.40625 
z
M 31.78125 74.21875 
Q 44.046875 74.21875 50.515625 64.515625 
Q 56.984375 54.828125 56.984375 36.375 
Q 56.984375 17.96875 50.515625 8.265625 
Q 44.046875 -1.421875 31.78125 -1.421875 
Q 19.53125 -1.421875 13.0625 8.265625 
Q 6.59375 17.96875 6.59375 36.375 
Q 6.59375 54.828125 13.0625 64.515625 
Q 19.53125 74.21875 31.78125 74.21875 
z
" id="DejaVuSans-48"/>
      </defs>
      <g transform="translate(101.280188 517.722576)scale(0.1 -0.1)">
       <use xlink:href="#DejaVuSans-49"/>
       <use x="63.623047" xlink:href="#DejaVuSans-51"/>
       <use x="127.246094" xlink:href="#DejaVuSans-57"/>
       <use x="190.869141" xlink:href="#DejaVuSans-46"/>
       <use x="222.65625" xlink:href="#DejaVuSans-54"/>
       <use x="286.279297" xlink:href="#DejaVuSans-48"/>
      </g>
     </g>
    </g>
    <g id="xtick_3">
     <g id="line2d_3">
      <g>
       <use style="stroke:#000000;stroke-width:0.8;" x="184.692547" xlink:href="#m4b98c303c2" y="503.124138"/>
      </g>
     </g>
     <g id="text_3">
      <!-- 139.65 -->
      <g transform="translate(167.197235 517.722576)scale(0.1 -0.1)">
       <use xlink:href="#DejaVuSans-49"/>
       <use x="63.623047" xlink:href="#DejaVuSans-51"/>
       <use x="127.246094" xlink:href="#DejaVuSans-57"/>
       <use x="190.869141" xlink:href="#DejaVuSans-46"/>
       <use x="222.65625" xlink:href="#DejaVuSans-54"/>
       <use x="286.279297" xlink:href="#DejaVuSans-53"/>
      </g>
     </g>
    </g>
    <g id="xtick_4">
     <g id="line2d_4">
      <g>
       <use style="stroke:#000000;stroke-width:0.8;" x="250.609594" xlink:href="#m4b98c303c2" y="503.124138"/>
      </g>
     </g>
     <g id="text_4">
      <!-- 139.70 -->
      <defs>
       <path d="M 8.203125 72.90625 
L 55.078125 72.90625 
L 55.078125 68.703125 
L 28.609375 0 
L 18.3125 0 
L 43.21875 64.59375 
L 8.203125 64.59375 
z
" id="DejaVuSans-55"/>
      </defs>
      <g transform="translate(233.114282 517.722576)scale(0.1 -0.1)">
       <use xlink:href="#DejaVuSans-49"/>
       <use x="63.623047" xlink:href="#DejaVuSans-51"/>
       <use x="127.246094" xlink:href="#DejaVuSans-57"/>
       <use x="190.869141" xlink:href="#DejaVuSans-46"/>
       <use x="222.65625" xlink:href="#DejaVuSans-55"/>
       <use x="286.279297" xlink:href="#DejaVuSans-48"/>
      </g>
     </g>
    </g>
    <g id="xtick_5">
     <g id="line2d_5">
      <g>
       <use style="stroke:#000000;stroke-width:0.8;" x="316.526641" xlink:href="#m4b98c303c2" y="503.124138"/>
      </g>
     </g>
     <g id="text_5">
      <!-- 139.75 -->
      <g transform="translate(299.031328 517.722576)scale(0.1 -0.1)">
       <use xlink:href="#DejaVuSans-49"/>
       <use x="63.623047" xlink:href="#DejaVuSans-51"/>
       <use x="127.246094" xlink:href="#DejaVuSans-57"/>
       <use x="190.869141" xlink:href="#DejaVuSans-46"/>
       <use x="222.65625" xlink:href="#DejaVuSans-55"/>
       <use x="286.279297" xlink:href="#DejaVuSans-53"/>
      </g>
     </g>
    </g>
    <g id="xtick_6">
     <g id="line2d_6">
      <g>
       <use style="stroke:#000000;stroke-width:0.8;" x="382.443688" xlink:href="#m4b98c303c2" y="503.124138"/>
      </g>
     </g>
     <g id="text_6">
      <!-- 139.80 -->
      <defs>
       <path d="M 31.78125 34.625 
Q 24.75 34.625 20.71875 30.859375 
Q 16.703125 27.09375 16.703125 20.515625 
Q 16.703125 13.921875 20.71875 10.15625 
Q 24.75 6.390625 31.78125 6.390625 
Q 38.8125 6.390625 42.859375 10.171875 
Q 46.921875 13.96875 46.921875 20.515625 
Q 46.921875 27.09375 42.890625 30.859375 
Q 38.875 34.625 31.78125 34.625 
z
M 21.921875 38.8125 
Q 15.578125 40.375 12.03125 44.71875 
Q 8.5 49.078125 8.5 55.328125 
Q 8.5 64.0625 14.71875 69.140625 
Q 20.953125 74.21875 31.78125 74.21875 
Q 42.671875 74.21875 48.875 69.140625 
Q 55.078125 64.0625 55.078125 55.328125 
Q 55.078125 49.078125 51.53125 44.71875 
Q 48 40.375 41.703125 38.8125 
Q 48.828125 37.15625 52.796875 32.3125 
Q 56.78125 27.484375 56.78125 20.515625 
Q 56.78125 9.90625 50.3125 4.234375 
Q 43.84375 -1.421875 31.78125 -1.421875 
Q 19.734375 -1.421875 13.25 4.234375 
Q 6.78125 9.90625 6.78125 20.515625 
Q 6.78125 27.484375 10.78125 32.3125 
Q 14.796875 37.15625 21.921875 38.8125 
z
M 18.3125 54.390625 
Q 18.3125 48.734375 21.84375 45.5625 
Q 25.390625 42.390625 31.78125 42.390625 
Q 38.140625 42.390625 41.71875 45.5625 
Q 45.3125 48.734375 45.3125 54.390625 
Q 45.3125 60.0625 41.71875 63.234375 
Q 38.140625 66.40625 31.78125 66.40625 
Q 25.390625 66.40625 21.84375 63.234375 
Q 18.3125 60.0625 18.3125 54.390625 
z
" id="DejaVuSans-56"/>
      </defs>
      <g transform="translate(364.948375 517.722576)scale(0.1 -0.1)">
       <use xlink:href="#DejaVuSans-49"/>
       <use x="63.623047" xlink:href="#DejaVuSans-51"/>
       <use x="127.246094" xlink:href="#DejaVuSans-57"/>
       <use x="190.869141" xlink:href="#DejaVuSans-46"/>
       <use x="222.65625" xlink:href="#DejaVuSans-56"/>
       <use x="286.279297" xlink:href="#DejaVuSans-48"/>
      </g>
     </g>
    </g>
    <g id="xtick_7">
     <g id="line2d_7">
      <g>
       <use style="stroke:#000000;stroke-width:0.8;" x="448.360735" xlink:href="#m4b98c303c2" y="503.124138"/>
      </g>
     </g>
     <g id="text_7">
      <!-- 139.85 -->
      <g transform="translate(430.865422 517.722576)scale(0.1 -0.1)">
       <use xlink:href="#DejaVuSans-49"/>
       <use x="63.623047" xlink:href="#DejaVuSans-51"/>
       <use x="127.246094" xlink:href="#DejaVuSans-57"/>
       <use x="190.869141" xlink:href="#DejaVuSans-46"/>
       <use x="222.65625" xlink:href="#DejaVuSans-56"/>
       <use x="286.279297" xlink:href="#DejaVuSans-53"/>
      </g>
     </g>
    </g>
    <g id="xtick_8">
     <g id="line2d_8">
      <g>
       <use style="stroke:#000000;stroke-width:0.8;" x="514.277782" xlink:href="#m4b98c303c2" y="503.124138"/>
      </g>
     </g>
     <g id="text_8">
      <!-- 139.90 -->
      <g transform="translate(496.782469 517.722576)scale(0.1 -0.1)">
       <use xlink:href="#DejaVuSans-49"/>
       <use x="63.623047" xlink:href="#DejaVuSans-51"/>
       <use x="127.246094" xlink:href="#DejaVuSans-57"/>
       <use x="190.869141" xlink:href="#DejaVuSans-46"/>
       <use x="222.65625" xlink:href="#DejaVuSans-57"/>
       <use x="286.279297" xlink:href="#DejaVuSans-48"/>
      </g>
     </g>
    </g>
   </g>
   <g id="matplotlib.axis_2">
    <g id="ytick_1">
     <g id="line2d_9">
      <defs>
       <path d="M 0 0 
L -3.5 0 
" id="m54a97e5d6a" style="stroke:#000000;stroke-width:0.8;"/>
      </defs>
      <g>
       <use style="stroke:#000000;stroke-width:0.8;" x="46.24" xlink:href="#m54a97e5d6a" y="445.291091"/>
      </g>
     </g>
     <g id="text_9">
      <!-- 35.55 -->
      <g transform="translate(10.611875 449.09031)scale(0.1 -0.1)">
       <use xlink:href="#DejaVuSans-51"/>
       <use x="63.623047" xlink:href="#DejaVuSans-53"/>
       <use x="127.246094" xlink:href="#DejaVuSans-46"/>
       <use x="159.033203" xlink:href="#DejaVuSans-53"/>
       <use x="222.65625" xlink:href="#DejaVuSans-53"/>
      </g>
     </g>
    </g>
    <g id="ytick_2">
     <g id="line2d_10">
      <g>
       <use style="stroke:#000000;stroke-width:0.8;" x="46.24" xlink:href="#m54a97e5d6a" y="379.374044"/>
      </g>
     </g>
     <g id="text_10">
      <!-- 35.60 -->
      <g transform="translate(10.611875 383.173263)scale(0.1 -0.1)">
       <use xlink:href="#DejaVuSans-51"/>
       <use x="63.623047" xlink:href="#DejaVuSans-53"/>
       <use x="127.246094" xlink:href="#DejaVuSans-46"/>
       <use x="159.033203" xlink:href="#DejaVuSans-54"/>
       <use x="222.65625" xlink:href="#DejaVuSans-48"/>
      </g>
     </g>
    </g>
    <g id="ytick_3">
     <g id="line2d_11">
      <g>
       <use style="stroke:#000000;stroke-width:0.8;" x="46.24" xlink:href="#m54a97e5d6a" y="313.456997"/>
      </g>
     </g>
     <g id="text_11">
      <!-- 35.65 -->
      <g transform="translate(10.611875 317.256216)scale(0.1 -0.1)">
       <use xlink:href="#DejaVuSans-51"/>
       <use x="63.623047" xlink:href="#DejaVuSans-53"/>
       <use x="127.246094" xlink:href="#DejaVuSans-46"/>
       <use x="159.033203" xlink:href="#DejaVuSans-54"/>
       <use x="222.65625" xlink:href="#DejaVuSans-53"/>
      </g>
     </g>
    </g>
    <g id="ytick_4">
     <g id="line2d_12">
      <g>
       <use style="stroke:#000000;stroke-width:0.8;" x="46.24" xlink:href="#m54a97e5d6a" y="247.53995"/>
      </g>
     </g>
     <g id="text_12">
      <!-- 35.70 -->
      <g transform="translate(10.611875 251.339169)scale(0.1 -0.1)">
       <use xlink:href="#DejaVuSans-51"/>
       <use x="63.623047" xlink:href="#DejaVuSans-53"/>
       <use x="127.246094" xlink:href="#DejaVuSans-46"/>
       <use x="159.033203" xlink:href="#DejaVuSans-55"/>
       <use x="222.65625" xlink:href="#DejaVuSans-48"/>
      </g>
     </g>
    </g>
    <g id="ytick_5">
     <g id="line2d_13">
      <g>
       <use style="stroke:#000000;stroke-width:0.8;" x="46.24" xlink:href="#m54a97e5d6a" y="181.622903"/>
      </g>
     </g>
     <g id="text_13">
      <!-- 35.75 -->
      <g transform="translate(10.611875 185.422122)scale(0.1 -0.1)">
       <use xlink:href="#DejaVuSans-51"/>
       <use x="63.623047" xlink:href="#DejaVuSans-53"/>
       <use x="127.246094" xlink:href="#DejaVuSans-46"/>
       <use x="159.033203" xlink:href="#DejaVuSans-55"/>
       <use x="222.65625" xlink:href="#DejaVuSans-53"/>
      </g>
     </g>
    </g>
    <g id="ytick_6">
     <g id="line2d_14">
      <g>
       <use style="stroke:#000000;stroke-width:0.8;" x="46.24" xlink:href="#m54a97e5d6a" y="115.705856"/>
      </g>
     </g>
     <g id="text_14">
      <!-- 35.80 -->
      <g transform="translate(10.611875 119.505075)scale(0.1 -0.1)">
       <use xlink:href="#DejaVuSans-51"/>
       <use x="63.623047" xlink:href="#DejaVuSans-53"/>
       <use x="127.246094" xlink:href="#DejaVuSans-46"/>
       <use x="159.033203" xlink:href="#DejaVuSans-56"/>
       <use x="222.65625" xlink:href="#DejaVuSans-48"/>
      </g>
     </g>
    </g>
   </g>
   <g id="patch_3">
    <path d="M 46.24 503.124138 
L 46.24 72.875862 
" style="fill:none;stroke:#000000;stroke-linecap:square;stroke-linejoin:miter;stroke-width:0.8;"/>
   </g>
   <g id="patch_4">
    <path d="M 562.68 503.124138 
L 562.68 72.875862 
" style="fill:none;stroke:#000000;stroke-linecap:square;stroke-linejoin:miter;stroke-width:0.8;"/>
   </g>
   <g id="patch_5">
    <path d="M 46.24 503.124138 
L 562.68 503.124138 
" style="fill:none;stroke:#000000;stroke-linecap:square;stroke-linejoin:miter;stroke-width:0.8;"/>
   </g>
   <g id="patch_6">
    <path d="M 46.24 72.875862 
L 562.68 72.875862 
" style="fill:none;stroke:#000000;stroke-linecap:square;stroke-linejoin:miter;stroke-width:0.8;"/>
   </g>
  </g>
 </g>
 <defs>
  <clipPath id="p5bb84efb0c">
   <rect height="430.248276" width="516.44" x="46.24" y="72.875862"/>
  </clipPath>
 </defs>
</svg>
